# MagicaVoxel @ Ephtracy

# material
mtllib BushBlueFruit.mtl
usemtl palette

# normals
vn -1 0 0
vn 1 0 0
vn 0 0 1
vn 0 0 -1
vn 0 -1 0
vn 0 1 0

# texcoords
vt 0.876953 0.5
vt 0.955078 0.5

# verts
v -9 0 2
v -9 0 -2
v -9 3 3
v -9 3 2
v -9 3 1
v -9 3 -2
v -9 5 3
v -9 5 1
v -8 0 4
v -8 0 2
v -8 0 -2
v -8 0 -4
v -8 2 4
v -8 2 3
v -8 2 -3
v -8 2 -4
v -8 3 3
v -8 3 2
v -8 3 1
v -8 3 -2
v -8 4 -1
v -8 4 -3
v -8 5 1
v -8 5 -1
v -7 2 5
v -7 2 4
v -7 2 3
v -7 2 -3
v -7 2 -4
v -7 4 5
v -7 4 4
v -7 4 3
v -7 4 -1
v -7 4 -3
v -7 4 -4
v -7 5 4
v -7 5 3
v -7 5 -1
v -7 5 -3
v -6 0 5
v -6 0 4
v -6 0 -4
v -6 0 -5
v -6 2 5
v -6 2 4
v -6 3 -4
v -6 3 -5
v -6 5 2
v -6 5 -2
v -6 6 2
v -6 6 -2
v -5 1 7
v -5 1 5
v -5 3 7
v -5 3 5
v -5 4 -3
v -5 4 -4
v -5 5 3
v -5 5 2
v -5 5 -3
v -5 5 -4
v -5 6 3
v -5 6 2
v -5 6 1
v -5 6 -1
v -5 7 1
v -5 7 -1
v -4 0 6
v -4 0 5
v -4 1 6
v -4 1 5
v -4 6 2
v -4 6 1
v -4 7 2
v -4 7 1
v -3 0 7
v -3 0 6
v -3 1 7
v -3 1 6
v -3 4 6
v -3 4 5
v -3 4 4
v -3 5 5
v -3 5 4
v -3 6 6
v -3 6 4
v -3 7 1
v -3 7 -0
v -3 8 1
v -3 8 -0
v -2 1 7
v -2 1 6
v -2 2 7
v -2 2 6
v -1 3 6
v -1 3 5
v -1 4 6
v -1 4 5
v 1 5 4
v 1 5 3
v 1 6 3
v 1 6 2
v 1 7 4
v 1 7 2
v -3 1 7
v -3 1 6
v -3 3 7
v -3 3 6
v -1 4 6
v -1 4 5
v -1 5 5
v -1 5 4
v -1 6 6
v -1 6 4
v 1 3 6
v 1 3 5
v 1 4 6
v 1 4 5
v 3 5 4
v 3 5 3
v 3 6 3
v 3 6 2
v 3 7 4
v 3 7 2
v 3 7 1
v 3 7 -0
v 3 8 1
v 3 8 -0
v 4 0 7
v 4 0 6
v 4 1 7
v 4 1 6
v 4 2 7
v 4 2 6
v 4 2 5
v 4 3 6
v 4 3 5
v 4 6 2
v 4 6 1
v 4 7 2
v 4 7 1
v 5 0 6
v 5 0 5
v 5 2 6
v 5 2 5
v 5 4 5
v 5 4 4
v 5 4 -3
v 5 4 -4
v 5 5 5
v 5 5 4
v 5 5 -3
v 5 5 -4
v 5 6 1
v 5 6 -1
v 5 7 1
v 5 7 -1
v 6 0 -4
v 6 0 -5
v 6 3 -4
v 6 3 -5
v 6 4 4
v 6 4 3
v 6 5 4
v 6 5 3
v 6 5 2
v 6 5 -0
v 6 5 -2
v 6 6 3
v 6 6 2
v 6 6 -0
v 6 6 -2
v 7 0 5
v 7 0 4
v 7 2 5
v 7 2 4
v 7 2 3
v 7 2 -3
v 7 2 -4
v 7 4 5
v 7 4 4
v 7 4 3
v 7 4 2
v 7 4 -1
v 7 4 -3
v 7 4 -4
v 7 5 3
v 7 5 2
v 7 5 -1
v 7 5 -3
v 8 0 4
v 8 0 2
v 8 0 -2
v 8 0 -4
v 8 2 4
v 8 2 3
v 8 2 -3
v 8 2 -4
v 8 3 2
v 8 3 -2
v 8 4 3
v 8 4 2
v 8 4 1
v 8 4 -1
v 8 4 -3
v 8 5 1
v 8 5 -0
v 8 5 -1
v 8 6 2
v 8 6 -0
v 9 0 2
v 9 0 -2
v 9 3 2
v 9 3 -2
v -5 1 7
v -5 3 7
v -3 0 7
v -3 1 7
v -3 3 7
v -2 1 7
v -2 2 7
v 3 1 7
v 3 2 7
v 4 0 7
v 4 1 7
v 4 2 7
v -4 0 6
v -4 1 6
v -3 0 6
v -3 1 6
v -3 3 6
v -3 4 6
v -3 6 6
v -2 1 6
v -2 2 6
v -1 3 6
v -1 4 6
v -1 6 6
v 1 3 6
v 1 4 6
v 3 2 6
v 4 0 6
v 4 1 6
v 4 2 6
v 4 3 6
v 5 0 6
v 5 2 6
v -7 2 5
v -7 4 5
v -6 0 5
v -6 2 5
v -6 3 5
v -5 1 5
v -5 3 5
v -5 4 5
v -4 0 5
v -4 1 5
v -3 3 5
v -3 4 5
v -1 3 5
v -1 4 5
v -1 5 5
v 1 3 5
v 1 4 5
v 4 2 5
v 4 3 5
v 4 4 5
v 4 5 5
v 5 0 5
v 5 2 5
v 5 4 5
v 5 5 5
v 6 2 5
v 6 4 5
v 7 0 5
v 7 2 5
v 7 4 5
v -8 0 4
v -8 2 4
v -7 2 4
v -7 4 4
v -7 5 4
v -6 0 4
v -6 2 4
v -5 4 4
v -5 5 4
v -3 4 4
v -3 5 4
v 1 5 4
v 1 7 4
v 3 5 4
v 3 7 4
v 5 4 4
v 5 5 4
v 6 4 4
v 6 5 4
v 7 0 4
v 7 2 4
v 8 0 4
v 8 2 4
v -9 3 3
v -9 5 3
v -8 2 3
v -8 3 3
v -8 4 3
v -7 2 3
v -7 4 3
v -7 5 3
v -5 5 3
v -5 6 3
v 1 5 3
v 1 6 3
v 3 5 3
v 3 6 3
v 5 5 3
v 5 6 3
v 6 4 3
v 6 5 3
v 6 6 3
v 7 2 3
v 7 4 3
v 7 5 3
v 8 2 3
v 8 4 3
v -9 0 2
v -9 3 2
v -8 0 2
v -8 3 2
v -6 5 2
v -6 6 2
v -5 5 2
v -5 6 2
v -4 6 2
v -4 7 2
v 1 6 2
v 1 7 2
v 3 6 2
v 3 7 2
v 4 6 2
v 4 7 2
v 6 5 2
v 6 6 2
v 7 4 2
v 7 5 2
v 8 0 2
v 8 3 2
v 8 4 2
v 8 6 2
v 9 0 2
v 9 3 2
v -5 6 1
v -5 7 1
v -4 6 1
v -4 7 1
v -3 7 1
v -3 8 1
v 3 7 1
v 3 8 1
v 4 6 1
v 4 7 1
v 5 6 1
v 5 7 1
v -3 5 4
v -3 6 4
v -1 5 4
v -1 6 4
v -9 3 1
v -9 5 1
v -8 3 1
v -8 5 1
v -3 7 -0
v -3 8 -0
v 3 7 -0
v 3 8 -0
v 6 5 -0
v 6 6 -0
v 8 5 -0
v 8 6 -0
v -8 4 -1
v -8 5 -1
v -7 4 -1
v -7 5 -1
v -5 6 -1
v -5 7 -1
v 5 6 -1
v 5 7 -1
v 7 4 -1
v 7 5 -1
v 8 4 -1
v 8 5 -1
v -9 0 -2
v -9 3 -2
v -8 0 -2
v -8 3 -2
v -6 5 -2
v -6 6 -2
v 6 5 -2
v 6 6 -2
v 8 0 -2
v 8 3 -2
v 9 0 -2
v 9 3 -2
v -8 2 -3
v -8 4 -3
v -7 2 -3
v -7 4 -3
v -7 5 -3
v -5 4 -3
v -5 5 -3
v 5 4 -3
v 5 5 -3
v 7 2 -3
v 7 4 -3
v 7 5 -3
v 8 2 -3
v 8 4 -3
v -8 0 -4
v -8 2 -4
v -7 2 -4
v -7 4 -4
v -6 0 -4
v -6 3 -4
v -5 4 -4
v -5 5 -4
v 5 4 -4
v 5 5 -4
v 6 0 -4
v 6 3 -4
v 7 2 -4
v 7 4 -4
v 8 0 -4
v 8 2 -4
v -6 0 -5
v -6 3 -5
v 6 0 -5
v 6 3 -5
v -3 0 7
v 4 0 7
v -4 0 6
v -3 0 6
v 4 0 6
v 5 0 6
v -6 0 5
v -4 0 5
v 5 0 5
v 7 0 5
v -8 0 4
v -6 0 4
v 7 0 4
v 8 0 4
v -9 0 2
v -8 0 2
v 8 0 2
v 9 0 2
v -9 0 -2
v -8 0 -2
v 8 0 -2
v 9 0 -2
v -8 0 -4
v -6 0 -4
v 6 0 -4
v 8 0 -4
v -6 0 -5
v 6 0 -5
v -5 1 7
v -3 1 7
v -4 1 6
v -3 1 6
v -5 1 5
v -4 1 5
v -7 2 5
v -6 2 5
v -7 2 4
v -6 2 4
v -9 3 3
v -8 3 3
v -9 3 2
v -8 3 2
v -3 4 6
v -1 4 6
v -3 4 5
v -1 4 5
v -3 1 7
v -2 1 7
v -3 1 6
v -2 1 6
v -2 2 7
v 3 2 7
v 4 2 7
v -2 2 6
v 3 2 6
v 4 2 6
v 5 2 6
v 4 2 5
v 5 2 5
v -8 2 4
v -7 2 4
v 7 2 4
v 8 2 4
v -8 2 3
v -7 2 3
v 7 2 3
v 8 2 3
v -8 2 -3
v -7 2 -3
v 7 2 -3
v 8 2 -3
v -8 2 -4
v -7 2 -4
v 7 2 -4
v 8 2 -4
v -5 3 7
v -3 3 7
v -3 3 6
v -1 3 6
v 1 3 6
v 4 3 6
v -5 3 5
v -3 3 5
v -1 3 5
v 1 3 5
v 4 3 5
v 8 3 2
v 9 3 2
v -9 3 1
v -8 3 1
v -9 3 -2
v -8 3 -2
v 8 3 -2
v 9 3 -2
v -6 3 -4
v 6 3 -4
v -6 3 -5
v 6 3 -5
v -1 4 6
v 1 4 6
v -7 4 5
v -5 4 5
v -3 4 5
v -1 4 5
v 1 4 5
v 5 4 5
v 6 4 5
v 7 4 5
v -7 4 4
v -5 4 4
v -3 4 4
v 5 4 4
v 6 4 4
v 7 4 4
v 6 4 3
v 7 4 3
v 8 4 3
v 7 4 2
v 8 4 2
v -8 4 -1
v -7 4 -1
v 7 4 -1
v 8 4 -1
v -8 4 -3
v -7 4 -3
v -5 4 -3
v 5 4 -3
v 7 4 -3
v 8 4 -3
v -7 4 -4
v -5 4 -4
v 5 4 -4
v 7 4 -4
v -1 5 5
v 4 5 5
v 5 5 5
v -7 5 4
v -5 5 4
v -3 5 4
v -1 5 4
v 1 5 4
v 3 5 4
v 4 5 4
v 5 5 4
v 6 5 4
v -9 5 3
v -7 5 3
v -5 5 3
v 1 5 3
v 3 5 3
v 5 5 3
v 6 5 3
v 7 5 3
v -6 5 2
v -5 5 2
v 6 5 2
v 7 5 2
v -9 5 1
v -8 5 1
v -7 5 1
v 6 5 -0
v 8 5 -0
v -8 5 -1
v -7 5 -1
v 7 5 -1
v 8 5 -1
v -6 5 -2
v 6 5 -2
v -7 5 -3
v -5 5 -3
v 5 5 -3
v 7 5 -3
v -5 5 -4
v 5 5 -4
v -3 6 6
v -1 6 6
v -3 6 4
v -1 6 4
v -5 6 3
v 1 6 3
v 3 6 3
v 5 6 3
v 6 6 3
v -6 6 2
v -5 6 2
v -4 6 2
v 1 6 2
v 3 6 2
v 4 6 2
v 5 6 2
v 6 6 2
v 8 6 2
v -5 6 1
v -4 6 1
v 4 6 1
v 5 6 1
v 6 6 -0
v 8 6 -0
v -5 6 -1
v 5 6 -1
v -6 6 -2
v 6 6 -2
v 1 7 4
v 3 7 4
v -4 7 2
v 1 7 2
v 3 7 2
v 4 7 2
v -5 7 1
v -4 7 1
v -3 7 1
v 3 7 1
v 4 7 1
v 5 7 1
v -3 7 -0
v 3 7 -0
v -5 7 -1
v 5 7 -1
v -3 8 1
v 3 8 1
v -3 8 -0
v 3 8 -0

# faces
f 4/2/1 2/2/1 1/2/1
f 5/2/1 2/2/1 4/2/1
f 6/2/1 2/2/1 5/2/1
f 7/1/1 4/1/1 3/1/1
f 7/1/1 5/1/1 4/1/1
f 8/1/1 5/1/1 7/1/1
f 13/2/1 10/2/1 9/2/1
f 14/2/1 10/2/1 13/2/1
f 15/2/1 12/2/1 11/2/1
f 16/2/1 12/2/1 15/2/1
f 17/2/1 10/2/1 14/2/1
f 18/2/1 10/2/1 17/2/1
f 20/2/1 15/2/1 11/2/1
f 21/2/1 20/2/1 19/2/1
f 22/2/1 15/2/1 20/2/1
f 22/2/1 20/2/1 21/2/1
f 23/2/1 21/2/1 19/2/1
f 24/2/1 21/2/1 23/2/1
f 30/1/1 26/1/1 25/1/1
f 31/2/1 27/2/1 26/2/1
f 31/1/1 26/1/1 30/1/1
f 32/2/1 27/2/1 31/2/1
f 34/2/1 29/2/1 28/2/1
f 35/2/1 29/2/1 34/2/1
f 36/1/1 32/1/1 31/1/1
f 37/1/1 32/1/1 36/1/1
f 38/2/1 34/2/1 33/2/1
f 39/2/1 34/2/1 38/2/1
f 44/2/1 41/2/1 40/2/1
f 45/2/1 41/2/1 44/2/1
f 46/2/1 43/2/1 42/2/1
f 47/2/1 43/2/1 46/2/1
f 50/2/1 49/2/1 48/2/1
f 51/2/1 49/2/1 50/2/1
f 54/1/1 53/1/1 52/1/1
f 55/1/1 53/1/1 54/1/1
f 60/2/1 57/2/1 56/2/1
f 61/2/1 57/2/1 60/2/1
f 62/2/1 59/2/1 58/2/1
f 63/2/1 59/2/1 62/2/1
f 66/2/1 65/2/1 64/2/1
f 67/2/1 65/2/1 66/2/1
f 70/2/1 69/2/1 68/2/1
f 71/2/1 69/2/1 70/2/1
f 74/2/1 73/2/1 72/2/1
f 75/2/1 73/2/1 74/2/1
f 78/2/1 77/2/1 76/2/1
f 79/2/1 77/2/1 78/2/1
f 83/1/1 81/1/1 80/1/1
f 83/2/1 82/2/1 81/2/1
f 84/2/1 82/2/1 83/2/1
f 85/1/1 83/1/1 80/1/1
f 85/1/1 84/1/1 83/1/1
f 86/1/1 84/1/1 85/1/1
f 89/2/1 88/2/1 87/2/1
f 90/2/1 88/2/1 89/2/1
f 93/2/1 92/2/1 91/2/1
f 94/2/1 92/2/1 93/2/1
f 97/1/1 96/1/1 95/1/1
f 98/1/1 96/1/1 97/1/1
f 101/1/1 100/1/1 99/1/1
f 103/1/1 101/1/1 99/1/1
f 103/1/1 102/1/1 101/1/1
f 104/1/1 102/1/1 103/1/1
f 105/1/2 106/1/2 107/1/2
f 107/1/2 106/1/2 108/1/2
f 109/1/2 110/1/2 111/1/2
f 109/1/2 111/1/2 113/1/2
f 111/1/2 112/1/2 113/1/2
f 113/1/2 112/1/2 114/1/2
f 115/1/2 116/1/2 117/1/2
f 117/1/2 116/1/2 118/1/2
f 119/1/2 120/1/2 121/1/2
f 119/1/2 121/1/2 123/1/2
f 121/1/2 122/1/2 123/1/2
f 123/1/2 122/1/2 124/1/2
f 125/2/2 126/2/2 127/2/2
f 127/2/2 126/2/2 128/2/2
f 129/2/2 130/2/2 131/2/2
f 131/2/2 130/2/2 132/2/2
f 131/1/2 132/1/2 133/1/2
f 133/1/2 132/1/2 134/1/2
f 134/2/2 135/2/2 136/2/2
f 136/2/2 135/2/2 137/2/2
f 138/2/2 139/2/2 140/2/2
f 140/2/2 139/2/2 141/2/2
f 142/2/2 143/2/2 144/2/2
f 144/2/2 143/2/2 145/2/2
f 146/1/2 147/1/2 150/1/2
f 150/1/2 147/1/2 151/1/2
f 148/2/2 149/2/2 152/2/2
f 152/2/2 149/2/2 153/2/2
f 154/2/2 155/2/2 156/2/2
f 156/2/2 155/2/2 157/2/2
f 158/2/2 159/2/2 160/2/2
f 160/2/2 159/2/2 161/2/2
f 162/2/2 163/2/2 164/2/2
f 164/2/2 163/2/2 165/2/2
f 165/1/2 166/1/2 169/1/2
f 169/1/2 166/1/2 170/1/2
f 167/2/2 168/2/2 171/2/2
f 171/2/2 168/2/2 172/2/2
f 173/2/2 174/2/2 175/2/2
f 175/2/2 174/2/2 176/2/2
f 175/1/2 176/1/2 180/1/2
f 176/2/2 177/2/2 181/2/2
f 180/1/2 176/1/2 181/1/2
f 181/2/2 177/2/2 182/2/2
f 178/2/2 179/2/2 185/2/2
f 185/2/2 179/2/2 186/2/2
f 182/2/2 183/2/2 187/2/2
f 187/2/2 183/2/2 188/2/2
f 184/2/2 185/2/2 189/2/2
f 189/2/2 185/2/2 190/2/2
f 191/2/2 192/2/2 195/2/2
f 195/2/2 192/2/2 196/2/2
f 193/2/2 194/2/2 197/2/2
f 197/2/2 194/2/2 198/2/2
f 196/2/2 192/2/2 199/2/2
f 193/2/2 197/2/2 200/2/2
f 196/2/2 199/2/2 201/2/2
f 199/2/2 200/2/2 201/2/2
f 201/2/2 200/2/2 202/2/2
f 202/2/2 200/2/2 203/2/2
f 203/2/2 200/2/2 204/2/2
f 200/2/2 197/2/2 205/2/2
f 204/2/2 200/2/2 205/2/2
f 203/2/2 204/2/2 206/2/2
f 202/1/2 203/1/2 206/1/2
f 206/2/2 204/2/2 207/2/2
f 207/2/2 204/2/2 208/2/2
f 202/1/2 206/1/2 209/1/2
f 206/1/2 207/1/2 209/1/2
f 209/1/2 207/1/2 210/1/2
f 211/2/2 212/2/2 213/2/2
f 213/2/2 212/2/2 214/2/2
f 218/1/3 216/1/3 215/1/3
f 219/1/3 216/1/3 218/1/3
f 220/2/3 218/2/3 217/2/3
f 222/2/3 220/2/3 217/2/3
f 222/2/3 221/2/3 220/2/3
f 223/2/3 221/2/3 222/2/3
f 224/2/3 222/2/3 217/2/3
f 225/1/3 223/1/3 222/1/3
f 225/2/3 222/2/3 224/2/3
f 226/1/3 223/1/3 225/1/3
f 229/2/3 228/2/3 227/2/3
f 230/2/3 228/2/3 229/2/3
f 234/2/3 231/2/3 230/2/3
f 235/2/3 231/2/3 234/2/3
f 236/2/3 231/2/3 235/2/3
f 237/1/3 233/1/3 232/1/3
f 238/1/3 233/1/3 237/1/3
f 239/2/3 236/2/3 235/2/3
f 239/1/3 237/1/3 236/1/3
f 240/1/3 237/1/3 239/1/3
f 241/2/3 239/2/3 235/2/3
f 244/2/3 239/2/3 241/2/3
f 245/2/3 239/2/3 244/2/3
f 246/2/3 243/2/3 242/2/3
f 246/2/3 244/2/3 243/2/3
f 247/2/3 244/2/3 246/2/3
f 251/1/3 249/1/3 248/1/3
f 252/1/3 249/1/3 251/1/3
f 253/2/3 251/2/3 250/2/3
f 253/2/3 252/2/3 251/2/3
f 254/1/3 249/1/3 252/1/3
f 254/2/3 252/2/3 253/2/3
f 255/1/3 249/1/3 254/1/3
f 256/2/3 253/2/3 250/2/3
f 257/2/3 253/2/3 256/2/3
f 258/2/3 255/2/3 254/2/3
f 259/2/3 255/2/3 258/2/3
f 260/2/3 259/2/3 258/2/3
f 261/2/3 259/2/3 260/2/3
f 264/2/3 262/2/3 261/2/3
f 266/2/3 264/2/3 263/2/3
f 267/2/3 262/2/3 264/2/3
f 267/2/3 264/2/3 266/2/3
f 268/2/3 262/2/3 267/2/3
f 270/2/3 266/2/3 265/2/3
f 270/2/3 267/2/3 266/2/3
f 271/1/3 268/1/3 267/1/3
f 271/2/3 267/2/3 270/2/3
f 272/1/3 268/1/3 271/1/3
f 273/2/3 270/2/3 269/2/3
f 273/2/3 271/2/3 270/2/3
f 274/2/3 271/2/3 273/2/3
f 275/2/3 273/2/3 269/2/3
f 276/1/3 274/1/3 273/1/3
f 276/2/3 273/2/3 275/2/3
f 277/1/3 274/1/3 276/1/3
f 280/2/3 279/2/3 278/2/3
f 283/2/3 280/2/3 278/2/3
f 284/2/3 280/2/3 283/2/3
f 285/1/3 282/1/3 281/1/3
f 286/1/3 282/1/3 285/1/3
f 287/2/3 286/2/3 285/2/3
f 288/2/3 286/2/3 287/2/3
f 291/1/3 290/1/3 289/1/3
f 292/1/3 290/1/3 291/1/3
f 295/2/3 294/2/3 293/2/3
f 296/2/3 294/2/3 295/2/3
f 299/2/3 298/2/3 297/2/3
f 300/2/3 298/2/3 299/2/3
f 304/1/3 302/1/3 301/1/3
f 305/1/3 302/1/3 304/1/3
f 306/2/3 304/2/3 303/2/3
f 306/2/3 305/2/3 304/2/3
f 307/1/3 302/1/3 305/1/3
f 307/2/3 305/2/3 306/2/3
f 308/1/3 302/1/3 307/1/3
f 311/2/3 310/2/3 309/2/3
f 312/2/3 310/2/3 311/2/3
f 315/2/3 314/2/3 313/2/3
f 316/2/3 314/2/3 315/2/3
f 318/1/3 316/1/3 315/1/3
f 319/1/3 316/1/3 318/1/3
f 321/2/3 318/2/3 317/2/3
f 322/2/3 318/2/3 321/2/3
f 323/2/3 321/2/3 320/2/3
f 324/2/3 321/2/3 323/2/3
f 327/2/3 326/2/3 325/2/3
f 328/2/3 326/2/3 327/2/3
f 331/2/3 330/2/3 329/2/3
f 332/2/3 330/2/3 331/2/3
f 335/2/3 334/2/3 333/2/3
f 336/2/3 334/2/3 335/2/3
f 339/2/3 338/2/3 337/2/3
f 340/2/3 338/2/3 339/2/3
f 344/1/3 342/1/3 341/1/3
f 347/1/3 344/1/3 343/1/3
f 348/1/3 342/1/3 344/1/3
f 348/1/3 344/1/3 347/1/3
f 349/2/3 346/2/3 345/2/3
f 350/2/3 346/2/3 349/2/3
f 353/2/3 352/2/3 351/2/3
f 354/2/3 352/2/3 353/2/3
f 357/2/3 356/2/3 355/2/3
f 358/2/3 356/2/3 357/2/3
f 361/2/3 360/2/3 359/2/3
f 362/2/3 360/2/3 361/2/3
f 363/1/4 364/1/4 365/1/4
f 365/1/4 364/1/4 366/1/4
f 367/1/4 368/1/4 369/1/4
f 369/1/4 368/1/4 370/1/4
f 371/2/4 372/2/4 373/2/4
f 373/2/4 372/2/4 374/2/4
f 375/1/4 376/1/4 377/1/4
f 377/1/4 376/1/4 378/1/4
f 379/2/4 380/2/4 381/2/4
f 381/2/4 380/2/4 382/2/4
f 383/2/4 384/2/4 385/2/4
f 385/2/4 384/2/4 386/2/4
f 387/2/4 388/2/4 389/2/4
f 389/2/4 388/2/4 390/2/4
f 391/2/4 392/2/4 393/2/4
f 393/2/4 392/2/4 394/2/4
f 395/2/4 396/2/4 397/2/4
f 397/2/4 396/2/4 398/2/4
f 399/2/4 400/2/4 401/2/4
f 401/2/4 400/2/4 402/2/4
f 403/2/4 404/2/4 405/2/4
f 405/2/4 404/2/4 406/2/4
f 406/2/4 407/2/4 408/2/4
f 408/2/4 407/2/4 409/2/4
f 410/2/4 411/2/4 413/2/4
f 413/2/4 411/2/4 414/2/4
f 412/2/4 413/2/4 415/2/4
f 415/2/4 413/2/4 416/2/4
f 417/2/4 418/2/4 419/2/4
f 417/2/4 419/2/4 421/2/4
f 419/2/4 420/2/4 421/2/4
f 421/2/4 420/2/4 422/2/4
f 422/2/4 420/2/4 423/2/4
f 422/2/4 423/2/4 425/2/4
f 423/2/4 424/2/4 425/2/4
f 425/2/4 424/2/4 426/2/4
f 422/2/4 425/2/4 428/2/4
f 427/2/4 428/2/4 429/2/4
f 428/2/4 425/2/4 430/2/4
f 429/2/4 428/2/4 430/2/4
f 427/2/4 429/2/4 431/2/4
f 431/2/4 429/2/4 432/2/4
f 433/2/4 434/2/4 435/2/4
f 435/2/4 434/2/4 436/2/4
f 440/2/5 438/2/5 437/2/5
f 441/2/5 438/2/5 440/2/5
f 444/2/5 440/2/5 439/2/5
f 444/2/5 442/2/5 441/2/5
f 444/2/5 441/2/5 440/2/5
f 445/2/5 442/2/5 444/2/5
f 448/2/5 444/2/5 443/2/5
f 448/2/5 446/2/5 445/2/5
f 448/2/5 445/2/5 444/2/5
f 449/2/5 446/2/5 448/2/5
f 452/2/5 448/2/5 447/2/5
f 452/2/5 450/2/5 449/2/5
f 452/2/5 449/2/5 448/2/5
f 453/2/5 450/2/5 452/2/5
f 455/2/5 452/2/5 451/2/5
f 455/2/5 454/2/5 453/2/5
f 455/2/5 453/2/5 452/2/5
f 456/2/5 454/2/5 455/2/5
f 457/2/5 454/2/5 456/2/5
f 458/2/5 454/2/5 457/2/5
f 459/2/5 457/2/5 456/2/5
f 460/2/5 457/2/5 459/2/5
f 461/2/5 457/2/5 460/2/5
f 462/2/5 457/2/5 461/2/5
f 463/2/5 461/2/5 460/2/5
f 464/2/5 461/2/5 463/2/5
f 467/1/5 466/1/5 465/1/5
f 468/1/5 466/1/5 467/1/5
f 469/1/5 467/1/5 465/1/5
f 470/1/5 467/1/5 469/1/5
f 473/1/5 472/1/5 471/1/5
f 474/1/5 472/1/5 473/1/5
f 477/1/5 476/1/5 475/1/5
f 478/1/5 476/1/5 477/1/5
f 481/1/5 480/1/5 479/1/5
f 482/1/5 480/1/5 481/1/5
f 483/2/6 484/2/6 485/2/6
f 485/2/6 484/2/6 486/2/6
f 487/2/6 488/2/6 490/2/6
f 488/1/6 489/1/6 491/1/6
f 490/2/6 488/2/6 491/2/6
f 491/1/6 489/1/6 492/1/6
f 492/2/6 493/2/6 494/2/6
f 494/2/6 493/2/6 495/2/6
f 496/2/6 497/2/6 500/2/6
f 500/2/6 497/2/6 501/2/6
f 498/2/6 499/2/6 502/2/6
f 502/2/6 499/2/6 503/2/6
f 504/2/6 505/2/6 508/2/6
f 508/2/6 505/2/6 509/2/6
f 506/2/6 507/2/6 510/2/6
f 510/2/6 507/2/6 511/2/6
f 512/1/6 513/1/6 514/1/6
f 512/1/6 514/1/6 518/1/6
f 514/2/6 515/2/6 519/2/6
f 518/1/6 514/1/6 519/1/6
f 519/2/6 515/2/6 520/2/6
f 516/2/6 517/2/6 521/2/6
f 521/2/6 517/2/6 522/2/6
f 525/2/6 526/2/6 527/2/6
f 527/2/6 526/2/6 528/2/6
f 523/2/6 524/2/6 529/2/6
f 529/2/6 524/2/6 530/2/6
f 531/2/6 532/2/6 533/2/6
f 533/2/6 532/2/6 534/2/6
f 535/1/6 536/1/6 540/1/6
f 540/1/6 536/1/6 541/1/6
f 537/1/6 538/1/6 545/1/6
f 538/2/6 539/2/6 546/2/6
f 545/1/6 538/1/6 546/1/6
f 546/2/6 539/2/6 547/2/6
f 542/2/6 543/2/6 548/2/6
f 543/1/6 544/1/6 549/1/6
f 548/2/6 543/2/6 549/2/6
f 549/1/6 544/1/6 550/1/6
f 549/2/6 550/2/6 551/2/6
f 551/2/6 550/2/6 552/2/6
f 552/2/6 553/2/6 554/2/6
f 554/2/6 553/2/6 555/2/6
f 556/2/6 557/2/6 560/2/6
f 560/2/6 557/2/6 561/2/6
f 558/2/6 559/2/6 564/2/6
f 564/2/6 559/2/6 565/2/6
f 561/2/6 562/2/6 566/2/6
f 566/2/6 562/2/6 567/2/6
f 563/2/6 564/2/6 568/2/6
f 568/2/6 564/2/6 569/2/6
f 570/2/6 571/2/6 576/2/6
f 576/2/6 571/2/6 577/2/6
f 577/2/6 571/2/6 578/2/6
f 571/1/6 572/1/6 579/1/6
f 578/2/6 571/2/6 579/2/6
f 579/1/6 572/1/6 580/1/6
f 573/1/6 574/1/6 583/1/6
f 574/2/6 575/2/6 584/2/6
f 575/2/6 576/2/6 584/2/6
f 583/1/6 574/1/6 584/1/6
f 576/2/6 577/2/6 584/2/6
f 584/2/6 577/2/6 585/2/6
f 580/2/6 581/2/6 586/2/6
f 579/2/6 580/2/6 586/2/6
f 578/2/6 579/2/6 586/2/6
f 586/2/6 581/2/6 587/2/6
f 587/2/6 581/2/6 588/2/6
f 583/2/6 584/2/6 590/2/6
f 590/2/6 584/2/6 591/2/6
f 588/2/6 589/2/6 592/2/6
f 592/2/6 589/2/6 593/2/6
f 582/1/6 583/1/6 594/1/6
f 594/1/6 583/1/6 595/1/6
f 583/2/6 590/2/6 596/2/6
f 595/1/6 583/1/6 596/1/6
f 595/2/6 596/2/6 599/2/6
f 596/2/6 590/2/6 600/2/6
f 599/2/6 596/2/6 600/2/6
f 597/2/6 598/2/6 601/2/6
f 601/2/6 598/2/6 602/2/6
f 600/2/6 590/2/6 603/2/6
f 597/2/6 601/2/6 604/2/6
f 600/2/6 603/2/6 605/2/6
f 603/2/6 604/2/6 605/2/6
f 605/2/6 604/2/6 606/2/6
f 606/2/6 604/2/6 607/2/6
f 604/2/6 601/2/6 608/2/6
f 607/2/6 604/2/6 608/2/6
f 606/2/6 607/2/6 609/2/6
f 609/2/6 607/2/6 610/2/6
f 611/1/6 612/1/6 613/1/6
f 613/1/6 612/1/6 614/1/6
f 615/2/6 616/2/6 621/2/6
f 621/2/6 616/2/6 622/2/6
f 622/2/6 616/2/6 623/2/6
f 617/2/6 618/2/6 624/2/6
f 624/2/6 618/2/6 625/2/6
f 618/1/6 619/1/6 626/1/6
f 625/2/6 618/2/6 626/2/6
f 626/1/6 619/1/6 627/1/6
f 620/2/6 621/2/6 629/2/6
f 621/2/6 622/2/6 629/2/6
f 629/2/6 622/2/6 630/2/6
f 626/2/6 627/2/6 631/2/6
f 625/2/6 626/2/6 631/2/6
f 631/2/6 627/2/6 632/2/6
f 627/1/6 628/1/6 633/1/6
f 632/2/6 627/2/6 633/2/6
f 633/1/6 628/1/6 634/1/6
f 620/2/6 629/2/6 635/2/6
f 632/2/6 633/2/6 636/2/6
f 620/2/6 635/2/6 637/2/6
f 635/2/6 636/2/6 637/2/6
f 636/2/6 633/2/6 638/2/6
f 637/2/6 636/2/6 638/2/6
f 639/1/6 640/1/6 642/1/6
f 642/1/6 640/1/6 643/1/6
f 641/2/6 642/2/6 646/2/6
f 643/2/6 644/2/6 646/2/6
f 642/2/6 643/2/6 646/2/6
f 646/2/6 644/2/6 647/2/6
f 647/2/6 644/2/6 648/2/6
f 648/2/6 644/2/6 649/2/6
f 645/2/6 646/2/6 651/2/6
f 646/2/6 647/2/6 651/2/6
f 649/2/6 650/2/6 652/2/6
f 648/2/6 649/2/6 652/2/6
f 645/2/6 651/2/6 653/2/6
f 651/2/6 652/2/6 653/2/6
f 652/2/6 650/2/6 654/2/6
f 653/2/6 652/2/6 654/2/6
f 655/2/6 656/2/6 657/2/6
f 657/2/6 656/2/6 658/2/6
