# MagicaVoxel @ Ephtracy

# material
mtllib BushRedFruit.mtl
usemtl palette

# normals
vn -1 0 0
vn 1 0 0
vn 0 0 1
vn 0 0 -1
vn 0 -1 0
vn 0 1 0

# texcoords
vt 0.880859 0.5
vt 0.955078 0.5

# verts
v -9 0 2
v -9 0 -2
v -9 1 4
v -9 1 2
v -9 3 4
v -9 3 2
v -9 3 -2
v -8 0 4
v -8 0 2
v -8 0 -2
v -8 0 -4
v -8 1 4
v -8 1 2
v -8 2 -3
v -8 2 -4
v -8 3 3
v -8 3 2
v -8 3 -2
v -8 4 3
v -8 4 1
v -8 4 -1
v -8 4 -3
v -8 5 1
v -8 5 -1
v -7 2 -3
v -7 2 -4
v -7 3 4
v -7 3 3
v -7 4 4
v -7 4 3
v -7 4 1
v -7 4 -1
v -7 4 -3
v -7 4 -4
v -7 5 3
v -7 5 1
v -7 5 -1
v -7 5 -3
v -6 0 5
v -6 0 4
v -6 0 -4
v -6 0 -5
v -6 3 5
v -6 3 4
v -6 3 -4
v -6 3 -5
v -6 5 4
v -6 5 3
v -6 5 2
v -6 5 -2
v -6 6 2
v -6 6 -2
v -6 7 4
v -6 7 2
v -5 1 7
v -5 1 5
v -5 3 7
v -5 3 5
v -5 3 4
v -5 4 5
v -5 4 4
v -5 4 3
v -5 4 -3
v -5 4 -4
v -5 5 4
v -5 5 3
v -5 5 -3
v -5 5 -4
v -5 6 1
v -5 6 -1
v -5 7 1
v -5 7 -1
v -4 0 6
v -4 0 5
v -4 1 6
v -4 1 5
v -4 6 2
v -4 6 1
v -4 7 2
v -4 7 1
v -3 0 7
v -3 0 6
v -3 1 7
v -3 1 6
v -3 4 5
v -3 4 4
v -3 5 5
v -3 5 4
v -3 5 3
v -3 6 5
v -3 6 3
v -3 7 1
v -3 7 -0
v -3 8 1
v -3 8 -0
v -2 1 7
v -2 1 6
v -2 2 7
v -2 2 6
v -1 3 6
v -1 3 5
v -1 4 6
v -1 4 5
v 3 5 4
v 3 5 3
v 3 6 3
v 3 6 2
v 3 7 4
v 3 7 2
v 5 2 6
v 5 2 5
v 5 3 6
v 5 3 5
v -4 5 4
v -4 5 3
v -4 6 3
v -4 6 2
v -4 7 4
v -4 7 2
v -3 1 7
v -3 1 6
v -3 3 7
v -3 3 6
v -1 5 5
v -1 5 3
v -1 6 5
v -1 6 3
v 1 3 6
v 1 3 5
v 1 4 6
v 1 4 5
v 3 1 7
v 3 1 6
v 3 2 7
v 3 2 6
v 3 7 1
v 3 7 -0
v 3 8 1
v 3 8 -0
v 4 0 7
v 4 0 6
v 4 1 7
v 4 1 6
v 4 2 6
v 4 2 5
v 4 3 6
v 4 3 5
v 4 4 5
v 4 4 4
v 4 5 5
v 4 5 4
v 4 6 2
v 4 6 1
v 4 7 2
v 4 7 1
v 5 0 6
v 5 0 5
v 5 1 6
v 5 1 5
v 5 4 -3
v 5 4 -4
v 5 5 4
v 5 5 3
v 5 5 2
v 5 5 -3
v 5 5 -4
v 5 6 3
v 5 6 2
v 5 6 1
v 5 6 -1
v 5 7 4
v 5 7 2
v 5 7 1
v 5 7 -1
v 6 0 -4
v 6 0 -5
v 6 3 5
v 6 3 4
v 6 3 -4
v 6 3 -5
v 6 4 5
v 6 4 4
v 6 4 3
v 6 5 4
v 6 5 3
v 6 5 2
v 6 5 -2
v 6 6 2
v 6 6 -2
v 7 0 5
v 7 0 4
v 7 1 6
v 7 1 5
v 7 2 5
v 7 2 4
v 7 2 3
v 7 2 -3
v 7 2 -4
v 7 3 6
v 7 3 4
v 7 4 4
v 7 4 3
v 7 4 1
v 7 4 -1
v 7 4 -3
v 7 4 -4
v 7 5 3
v 7 5 1
v 7 5 -1
v 7 5 -3
v 8 0 4
v 8 0 2
v 8 0 -2
v 8 0 -4
v 8 2 4
v 8 2 3
v 8 2 -3
v 8 2 -4
v 8 3 2
v 8 3 -2
v 8 4 3
v 8 4 1
v 8 4 -1
v 8 4 -3
v 8 5 1
v 8 5 -1
v 9 0 2
v 9 0 -2
v 9 3 2
v 9 3 -2
v -5 1 7
v -5 3 7
v -3 0 7
v -3 1 7
v -3 3 7
v -2 1 7
v -2 2 7
v 3 1 7
v 3 2 7
v 4 0 7
v 4 1 7
v -4 0 6
v -4 1 6
v -3 0 6
v -3 1 6
v -3 3 6
v -2 1 6
v -2 2 6
v -1 3 6
v -1 4 6
v 1 3 6
v 1 4 6
v 3 1 6
v 3 2 6
v 4 0 6
v 4 1 6
v 4 2 6
v 4 3 6
v 5 0 6
v 5 1 6
v 5 2 6
v 5 3 6
v 7 1 6
v 7 3 6
v -6 0 5
v -6 3 5
v -5 1 5
v -5 3 5
v -5 4 5
v -4 0 5
v -4 1 5
v -3 3 5
v -3 4 5
v -3 5 5
v -3 6 5
v -1 3 5
v -1 4 5
v -1 5 5
v -1 6 5
v 1 3 5
v 1 4 5
v 4 2 5
v 4 3 5
v 4 4 5
v 4 5 5
v 5 0 5
v 5 1 5
v 5 2 5
v 5 3 5
v 6 3 5
v 6 4 5
v 7 0 5
v 7 1 5
v -9 1 4
v -9 3 4
v -8 0 4
v -8 1 4
v -8 2 4
v -7 2 4
v -7 3 4
v -7 4 4
v -6 0 4
v -6 3 4
v -6 5 4
v -6 7 4
v -5 3 4
v -5 4 4
v -5 5 4
v -4 5 4
v -4 7 4
v -3 4 4
v -3 5 4
v 3 5 4
v 3 7 4
v 4 4 4
v 4 5 4
v 5 5 4
v 5 7 4
v 6 3 4
v 6 4 4
v 6 5 4
v 7 0 4
v 7 2 4
v 7 3 4
v 7 4 4
v 8 0 4
v 8 2 4
v -8 3 3
v -8 4 3
v -7 3 3
v -7 4 3
v -7 5 3
v -6 5 3
v -5 4 3
v -5 5 3
v -4 5 3
v -4 6 3
v -3 5 3
v -3 6 3
v -1 5 3
v -1 6 3
v 3 5 3
v 3 6 3
v 6 4 3
v 6 5 3
v 7 2 3
v 7 4 3
v 7 5 3
v 8 2 3
v 8 4 3
v -9 0 2
v -9 1 2
v -8 0 2
v -8 1 2
v -4 6 2
v -4 7 2
v 3 6 2
v 3 7 2
v 5 5 2
v 5 6 2
v 6 5 2
v 6 6 2
v 8 0 2
v 8 3 2
v 9 0 2
v 9 3 2
v -8 4 1
v -8 5 1
v -7 4 1
v -7 5 1
v -5 6 1
v -5 7 1
v -4 6 1
v -4 7 1
v -3 7 1
v -3 8 1
v 3 7 1
v 3 8 1
v 4 6 1
v 4 7 1
v 5 6 1
v 5 7 1
v 7 4 1
v 7 5 1
v 8 4 1
v 8 5 1
v -6 6 2
v -6 7 2
v -4 6 2
v -4 7 2
v 4 6 2
v 4 7 2
v 5 6 2
v 5 7 2
v -3 7 -0
v -3 8 -0
v 3 7 -0
v 3 8 -0
v -8 4 -1
v -8 5 -1
v -7 4 -1
v -7 5 -1
v -5 6 -1
v -5 7 -1
v 5 6 -1
v 5 7 -1
v 7 4 -1
v 7 5 -1
v 8 4 -1
v 8 5 -1
v -9 0 -2
v -9 3 -2
v -8 0 -2
v -8 3 -2
v -6 5 -2
v -6 6 -2
v 6 5 -2
v 6 6 -2
v 8 0 -2
v 8 3 -2
v 9 0 -2
v 9 3 -2
v -8 2 -3
v -8 4 -3
v -7 2 -3
v -7 4 -3
v -7 5 -3
v -5 4 -3
v -5 5 -3
v 5 4 -3
v 5 5 -3
v 7 2 -3
v 7 4 -3
v 7 5 -3
v 8 2 -3
v 8 4 -3
v -8 0 -4
v -8 2 -4
v -7 2 -4
v -7 4 -4
v -6 0 -4
v -6 3 -4
v -5 4 -4
v -5 5 -4
v 5 4 -4
v 5 5 -4
v 6 0 -4
v 6 3 -4
v 7 2 -4
v 7 4 -4
v 8 0 -4
v 8 2 -4
v -6 0 -5
v -6 3 -5
v 6 0 -5
v 6 3 -5
v -3 0 7
v 4 0 7
v -4 0 6
v -3 0 6
v 4 0 6
v 5 0 6
v -6 0 5
v -4 0 5
v 5 0 5
v 7 0 5
v -8 0 4
v -6 0 4
v 7 0 4
v 8 0 4
v -9 0 2
v -8 0 2
v 8 0 2
v 9 0 2
v -9 0 -2
v -8 0 -2
v 8 0 -2
v 9 0 -2
v -8 0 -4
v -6 0 -4
v 6 0 -4
v 8 0 -4
v -6 0 -5
v 6 0 -5
v -5 1 7
v -3 1 7
v -4 1 6
v -3 1 6
v 5 1 6
v 7 1 6
v -5 1 5
v -4 1 5
v 5 1 5
v 7 1 5
v -9 1 4
v -8 1 4
v -9 1 2
v -8 1 2
v -6 5 4
v -5 5 4
v -6 5 3
v -5 5 3
v -3 1 7
v -2 1 7
v 3 1 7
v 4 1 7
v -3 1 6
v -2 1 6
v 3 1 6
v 4 1 6
v -2 2 7
v 3 2 7
v -2 2 6
v 3 2 6
v 4 2 6
v 5 2 6
v 4 2 5
v 5 2 5
v 7 2 4
v 8 2 4
v 7 2 3
v 8 2 3
v -8 2 -3
v -7 2 -3
v 7 2 -3
v 8 2 -3
v -8 2 -4
v -7 2 -4
v 7 2 -4
v 8 2 -4
v -5 3 7
v -3 3 7
v -3 3 6
v -1 3 6
v 1 3 6
v 4 3 6
v 5 3 6
v 7 3 6
v -6 3 5
v -5 3 5
v -3 3 5
v -1 3 5
v 1 3 5
v 4 3 5
v 5 3 5
v 6 3 5
v -9 3 4
v -7 3 4
v -6 3 4
v -5 3 4
v 6 3 4
v 7 3 4
v -8 3 3
v -7 3 3
v -9 3 2
v -8 3 2
v 8 3 2
v 9 3 2
v -9 3 -2
v -8 3 -2
v 8 3 -2
v 9 3 -2
v -6 3 -4
v 6 3 -4
v -6 3 -5
v 6 3 -5
v -1 4 6
v 1 4 6
v -5 4 5
v -3 4 5
v -1 4 5
v 1 4 5
v 4 4 5
v 6 4 5
v -7 4 4
v -5 4 4
v -3 4 4
v 4 4 4
v 6 4 4
v 7 4 4
v -8 4 3
v -7 4 3
v -5 4 3
v 6 4 3
v 7 4 3
v 8 4 3
v -8 4 1
v -7 4 1
v 7 4 1
v 8 4 1
v -8 4 -1
v -7 4 -1
v 7 4 -1
v 8 4 -1
v -8 4 -3
v -7 4 -3
v -5 4 -3
v 5 4 -3
v 7 4 -3
v 8 4 -3
v -7 4 -4
v -5 4 -4
v 5 4 -4
v 7 4 -4
v -1 5 5
v 4 5 5
v -4 5 4
v -3 5 4
v 3 5 4
v 4 5 4
v 5 5 4
v 6 5 4
v -7 5 3
v -6 5 3
v -4 5 3
v -3 5 3
v -1 5 3
v 3 5 3
v 5 5 3
v 6 5 3
v 7 5 3
v -6 5 2
v 5 5 2
v 6 5 2
v -8 5 1
v -7 5 1
v 7 5 1
v 8 5 1
v -8 5 -1
v -7 5 -1
v 7 5 -1
v 8 5 -1
v -6 5 -2
v 6 5 -2
v -7 5 -3
v -5 5 -3
v 5 5 -3
v 7 5 -3
v -5 5 -4
v 5 5 -4
v -3 6 5
v -1 6 5
v -4 6 3
v -3 6 3
v -1 6 3
v 3 6 3
v -6 6 2
v -4 6 2
v 3 6 2
v 4 6 2
v 5 6 2
v 6 6 2
v -5 6 1
v -4 6 1
v 4 6 1
v 5 6 1
v -5 6 -1
v 5 6 -1
v -6 6 -2
v 6 6 -2
v -6 7 4
v -4 7 4
v 3 7 4
v 5 7 4
v -6 7 2
v -4 7 2
v 3 7 2
v 4 7 2
v 5 7 2
v -5 7 1
v -4 7 1
v -3 7 1
v 3 7 1
v 4 7 1
v 5 7 1
v -3 7 -0
v 3 7 -0
v -5 7 -1
v 5 7 -1
v -3 8 1
v 3 8 1
v -3 8 -0
v 3 8 -0

# faces
f 4/2/1 2/2/1 1/2/1
f 5/1/1 4/1/1 3/1/1
f 6/2/1 2/2/1 4/2/1
f 6/1/1 4/1/1 5/1/1
f 7/2/1 2/2/1 6/2/1
f 12/2/1 9/2/1 8/2/1
f 13/2/1 9/2/1 12/2/1
f 14/2/1 11/2/1 10/2/1
f 15/2/1 11/2/1 14/2/1
f 18/2/1 14/2/1 10/2/1
f 19/2/1 17/2/1 16/2/1
f 19/2/1 18/2/1 17/2/1
f 20/2/1 18/2/1 19/2/1
f 21/2/1 18/2/1 20/2/1
f 22/2/1 14/2/1 18/2/1
f 22/2/1 18/2/1 21/2/1
f 23/2/1 21/2/1 20/2/1
f 24/2/1 21/2/1 23/2/1
f 29/2/1 28/2/1 27/2/1
f 30/2/1 28/2/1 29/2/1
f 33/2/1 26/2/1 25/2/1
f 34/2/1 26/2/1 33/2/1
f 35/2/1 31/2/1 30/2/1
f 36/2/1 31/2/1 35/2/1
f 37/2/1 33/2/1 32/2/1
f 38/2/1 33/2/1 37/2/1
f 43/2/1 40/2/1 39/2/1
f 44/2/1 40/2/1 43/2/1
f 45/2/1 42/2/1 41/2/1
f 46/2/1 42/2/1 45/2/1
f 51/1/1 48/1/1 47/1/1
f 51/2/1 50/2/1 49/2/1
f 51/1/1 49/1/1 48/1/1
f 52/2/1 50/2/1 51/2/1
f 53/1/1 51/1/1 47/1/1
f 54/1/1 51/1/1 53/1/1
f 57/1/1 56/1/1 55/1/1
f 58/1/1 56/1/1 57/1/1
f 60/2/1 59/2/1 58/2/1
f 61/2/1 59/2/1 60/2/1
f 65/2/1 62/2/1 61/2/1
f 66/2/1 62/2/1 65/2/1
f 67/2/1 64/2/1 63/2/1
f 68/2/1 64/2/1 67/2/1
f 71/2/1 70/2/1 69/2/1
f 72/2/1 70/2/1 71/2/1
f 75/2/1 74/2/1 73/2/1
f 76/2/1 74/2/1 75/2/1
f 79/2/1 78/2/1 77/2/1
f 80/2/1 78/2/1 79/2/1
f 83/2/1 82/2/1 81/2/1
f 84/2/1 82/2/1 83/2/1
f 87/2/1 86/2/1 85/2/1
f 88/2/1 86/2/1 87/2/1
f 90/1/1 88/1/1 87/1/1
f 90/1/1 89/1/1 88/1/1
f 91/1/1 89/1/1 90/1/1
f 94/2/1 93/2/1 92/2/1
f 95/2/1 93/2/1 94/2/1
f 98/2/1 97/2/1 96/2/1
f 99/2/1 97/2/1 98/2/1
f 102/1/1 101/1/1 100/1/1
f 103/1/1 101/1/1 102/1/1
f 106/1/1 105/1/1 104/1/1
f 108/1/1 106/1/1 104/1/1
f 108/1/1 107/1/1 106/1/1
f 109/1/1 107/1/1 108/1/1
f 112/1/1 111/1/1 110/1/1
f 113/1/1 111/1/1 112/1/1
f 114/1/2 115/1/2 116/1/2
f 114/1/2 116/1/2 118/1/2
f 116/1/2 117/1/2 118/1/2
f 118/1/2 117/1/2 119/1/2
f 120/1/2 121/1/2 122/1/2
f 122/1/2 121/1/2 123/1/2
f 124/1/2 125/1/2 126/1/2
f 126/1/2 125/1/2 127/1/2
f 128/1/2 129/1/2 130/1/2
f 130/1/2 129/1/2 131/1/2
f 132/2/2 133/2/2 134/2/2
f 134/2/2 133/2/2 135/2/2
f 136/2/2 137/2/2 138/2/2
f 138/2/2 137/2/2 139/2/2
f 140/2/2 141/2/2 142/2/2
f 142/2/2 141/2/2 143/2/2
f 144/2/2 145/2/2 146/2/2
f 146/2/2 145/2/2 147/2/2
f 148/2/2 149/2/2 150/2/2
f 150/2/2 149/2/2 151/2/2
f 152/2/2 153/2/2 154/2/2
f 154/2/2 153/2/2 155/2/2
f 156/2/2 157/2/2 158/2/2
f 158/2/2 157/2/2 159/2/2
f 160/2/2 161/2/2 165/2/2
f 165/2/2 161/2/2 166/2/2
f 163/2/2 164/2/2 167/2/2
f 162/1/2 163/1/2 167/1/2
f 167/2/2 164/2/2 168/2/2
f 162/1/2 167/1/2 171/1/2
f 167/1/2 168/1/2 171/1/2
f 171/1/2 168/1/2 172/1/2
f 169/2/2 170/2/2 173/2/2
f 173/2/2 170/2/2 174/2/2
f 175/2/2 176/2/2 179/2/2
f 179/2/2 176/2/2 180/2/2
f 177/2/2 178/2/2 181/2/2
f 181/2/2 178/2/2 182/2/2
f 182/2/2 183/2/2 184/2/2
f 184/2/2 183/2/2 185/2/2
f 186/2/2 187/2/2 188/2/2
f 188/2/2 187/2/2 189/2/2
f 190/2/2 191/2/2 193/2/2
f 193/2/2 191/2/2 194/2/2
f 192/1/2 193/1/2 194/1/2
f 194/2/2 191/2/2 195/2/2
f 192/1/2 194/1/2 199/1/2
f 194/1/2 195/1/2 199/1/2
f 195/2/2 196/2/2 200/2/2
f 199/1/2 195/1/2 200/1/2
f 200/2/2 196/2/2 201/2/2
f 201/2/2 196/2/2 202/2/2
f 197/2/2 198/2/2 205/2/2
f 205/2/2 198/2/2 206/2/2
f 202/2/2 203/2/2 207/2/2
f 207/2/2 203/2/2 208/2/2
f 204/2/2 205/2/2 209/2/2
f 209/2/2 205/2/2 210/2/2
f 211/2/2 212/2/2 215/2/2
f 215/2/2 212/2/2 216/2/2
f 213/2/2 214/2/2 217/2/2
f 217/2/2 214/2/2 218/2/2
f 216/2/2 212/2/2 219/2/2
f 213/2/2 217/2/2 220/2/2
f 216/2/2 219/2/2 221/2/2
f 219/2/2 220/2/2 221/2/2
f 221/2/2 220/2/2 222/2/2
f 222/2/2 220/2/2 223/2/2
f 220/2/2 217/2/2 224/2/2
f 223/2/2 220/2/2 224/2/2
f 222/2/2 223/2/2 225/2/2
f 225/2/2 223/2/2 226/2/2
f 227/2/2 228/2/2 229/2/2
f 229/2/2 228/2/2 230/2/2
f 234/1/3 232/1/3 231/1/3
f 235/1/3 232/1/3 234/1/3
f 236/2/3 234/2/3 233/2/3
f 238/2/3 236/2/3 233/2/3
f 238/2/3 237/2/3 236/2/3
f 239/2/3 237/2/3 238/2/3
f 240/2/3 238/2/3 233/2/3
f 241/2/3 238/2/3 240/2/3
f 244/2/3 243/2/3 242/2/3
f 245/2/3 243/2/3 244/2/3
f 247/2/3 246/2/3 245/2/3
f 248/2/3 246/2/3 247/2/3
f 249/2/3 246/2/3 248/2/3
f 251/2/3 249/2/3 248/2/3
f 251/1/3 250/1/3 249/1/3
f 252/1/3 250/1/3 251/1/3
f 254/2/3 251/2/3 248/2/3
f 256/2/3 254/2/3 253/2/3
f 257/2/3 251/2/3 254/2/3
f 257/2/3 254/2/3 256/2/3
f 258/2/3 251/2/3 257/2/3
f 259/2/3 256/2/3 255/2/3
f 259/2/3 257/2/3 256/2/3
f 260/2/3 257/2/3 259/2/3
f 261/2/3 257/2/3 260/2/3
f 263/1/3 262/1/3 261/1/3
f 263/1/3 261/1/3 260/1/3
f 264/1/3 262/1/3 263/1/3
f 267/2/3 266/2/3 265/2/3
f 268/2/3 266/2/3 267/2/3
f 270/2/3 267/2/3 265/2/3
f 271/2/3 267/2/3 270/2/3
f 272/2/3 269/2/3 268/2/3
f 273/2/3 269/2/3 272/2/3
f 276/2/3 273/2/3 272/2/3
f 276/2/3 274/2/3 273/2/3
f 277/2/3 274/2/3 276/2/3
f 278/1/3 275/1/3 274/1/3
f 278/2/3 274/2/3 277/2/3
f 279/1/3 275/1/3 278/1/3
f 281/2/3 278/2/3 277/2/3
f 283/2/3 281/2/3 280/2/3
f 284/2/3 278/2/3 281/2/3
f 284/2/3 281/2/3 283/2/3
f 285/2/3 278/2/3 284/2/3
f 288/2/3 283/2/3 282/2/3
f 288/2/3 284/2/3 283/2/3
f 289/2/3 284/2/3 288/2/3
f 290/2/3 284/2/3 289/2/3
f 291/2/3 284/2/3 290/2/3
f 292/2/3 287/2/3 286/2/3
f 293/2/3 287/2/3 292/2/3
f 297/1/3 295/1/3 294/1/3
f 298/1/3 295/1/3 297/1/3
f 299/2/3 297/2/3 296/2/3
f 299/1/3 295/1/3 298/1/3
f 299/2/3 298/2/3 297/2/3
f 300/1/3 295/1/3 299/1/3
f 302/2/3 299/2/3 296/2/3
f 302/2/3 301/2/3 300/2/3
f 302/2/3 300/2/3 299/2/3
f 303/2/3 301/2/3 302/2/3
f 306/2/3 301/2/3 303/2/3
f 307/2/3 301/2/3 306/2/3
f 308/1/3 305/1/3 304/1/3
f 309/2/3 308/2/3 307/2/3
f 309/1/3 305/1/3 308/1/3
f 310/1/3 305/1/3 309/1/3
f 311/2/3 309/2/3 307/2/3
f 312/2/3 309/2/3 311/2/3
f 316/1/3 314/1/3 313/1/3
f 317/1/3 314/1/3 316/1/3
f 317/2/3 316/2/3 315/2/3
f 318/1/3 314/1/3 317/1/3
f 320/2/3 317/2/3 315/2/3
f 321/2/3 317/2/3 320/2/3
f 324/2/3 320/2/3 319/2/3
f 325/2/3 320/2/3 324/2/3
f 326/2/3 323/2/3 322/2/3
f 327/2/3 323/2/3 326/2/3
f 330/2/3 329/2/3 328/2/3
f 331/2/3 329/2/3 330/2/3
f 333/2/3 332/2/3 331/2/3
f 334/2/3 333/2/3 331/2/3
f 335/2/3 333/2/3 334/2/3
f 338/2/3 337/2/3 336/2/3
f 339/2/3 337/2/3 338/2/3
f 342/2/3 341/2/3 340/2/3
f 343/2/3 341/2/3 342/2/3
f 347/2/3 345/2/3 344/2/3
f 348/2/3 345/2/3 347/2/3
f 349/2/3 347/2/3 346/2/3
f 350/2/3 347/2/3 349/2/3
f 353/2/3 352/2/3 351/2/3
f 354/2/3 352/2/3 353/2/3
f 357/2/3 356/2/3 355/2/3
f 358/2/3 356/2/3 357/2/3
f 361/2/3 360/2/3 359/2/3
f 362/2/3 360/2/3 361/2/3
f 365/2/3 364/2/3 363/2/3
f 366/2/3 364/2/3 365/2/3
f 369/2/3 368/2/3 367/2/3
f 370/2/3 368/2/3 369/2/3
f 373/2/3 372/2/3 371/2/3
f 374/2/3 372/2/3 373/2/3
f 377/2/3 376/2/3 375/2/3
f 378/2/3 376/2/3 377/2/3
f 381/2/3 380/2/3 379/2/3
f 382/2/3 380/2/3 381/2/3
f 385/2/3 384/2/3 383/2/3
f 386/2/3 384/2/3 385/2/3
f 387/1/4 388/1/4 389/1/4
f 389/1/4 388/1/4 390/1/4
f 391/1/4 392/1/4 393/1/4
f 393/1/4 392/1/4 394/1/4
f 395/2/4 396/2/4 397/2/4
f 397/2/4 396/2/4 398/2/4
f 399/2/4 400/2/4 401/2/4
f 401/2/4 400/2/4 402/2/4
f 403/2/4 404/2/4 405/2/4
f 405/2/4 404/2/4 406/2/4
f 407/2/4 408/2/4 409/2/4
f 409/2/4 408/2/4 410/2/4
f 411/2/4 412/2/4 413/2/4
f 413/2/4 412/2/4 414/2/4
f 415/2/4 416/2/4 417/2/4
f 417/2/4 416/2/4 418/2/4
f 419/2/4 420/2/4 421/2/4
f 421/2/4 420/2/4 422/2/4
f 423/2/4 424/2/4 425/2/4
f 425/2/4 424/2/4 426/2/4
f 426/2/4 427/2/4 428/2/4
f 428/2/4 427/2/4 429/2/4
f 430/2/4 431/2/4 433/2/4
f 433/2/4 431/2/4 434/2/4
f 432/2/4 433/2/4 435/2/4
f 435/2/4 433/2/4 436/2/4
f 437/2/4 438/2/4 439/2/4
f 437/2/4 439/2/4 441/2/4
f 439/2/4 440/2/4 441/2/4
f 441/2/4 440/2/4 442/2/4
f 442/2/4 440/2/4 443/2/4
f 442/2/4 443/2/4 445/2/4
f 443/2/4 444/2/4 445/2/4
f 445/2/4 444/2/4 446/2/4
f 442/2/4 445/2/4 448/2/4
f 447/2/4 448/2/4 449/2/4
f 448/2/4 445/2/4 450/2/4
f 449/2/4 448/2/4 450/2/4
f 447/2/4 449/2/4 451/2/4
f 451/2/4 449/2/4 452/2/4
f 453/2/4 454/2/4 455/2/4
f 455/2/4 454/2/4 456/2/4
f 460/2/5 458/2/5 457/2/5
f 461/2/5 458/2/5 460/2/5
f 464/2/5 460/2/5 459/2/5
f 464/2/5 462/2/5 461/2/5
f 464/2/5 461/2/5 460/2/5
f 465/2/5 462/2/5 464/2/5
f 468/2/5 464/2/5 463/2/5
f 468/2/5 466/2/5 465/2/5
f 468/2/5 465/2/5 464/2/5
f 469/2/5 466/2/5 468/2/5
f 472/2/5 468/2/5 467/2/5
f 472/2/5 470/2/5 469/2/5
f 472/2/5 469/2/5 468/2/5
f 473/2/5 470/2/5 472/2/5
f 475/2/5 472/2/5 471/2/5
f 475/2/5 474/2/5 473/2/5
f 475/2/5 473/2/5 472/2/5
f 476/2/5 474/2/5 475/2/5
f 477/2/5 474/2/5 476/2/5
f 478/2/5 474/2/5 477/2/5
f 479/2/5 477/2/5 476/2/5
f 480/2/5 477/2/5 479/2/5
f 481/2/5 477/2/5 480/2/5
f 482/2/5 477/2/5 481/2/5
f 483/2/5 481/2/5 480/2/5
f 484/2/5 481/2/5 483/2/5
f 487/1/5 486/1/5 485/1/5
f 488/1/5 486/1/5 487/1/5
f 491/1/5 487/1/5 485/1/5
f 492/1/5 487/1/5 491/1/5
f 493/1/5 490/1/5 489/1/5
f 494/1/5 490/1/5 493/1/5
f 497/1/5 496/1/5 495/1/5
f 498/1/5 496/1/5 497/1/5
f 501/1/5 500/1/5 499/1/5
f 502/1/5 500/1/5 501/1/5
f 503/2/6 504/2/6 507/2/6
f 507/2/6 504/2/6 508/2/6
f 505/2/6 506/2/6 509/2/6
f 509/2/6 506/2/6 510/2/6
f 511/2/6 512/2/6 513/2/6
f 513/2/6 512/2/6 514/2/6
f 515/2/6 516/2/6 517/2/6
f 517/2/6 516/2/6 518/2/6
f 519/2/6 520/2/6 521/2/6
f 521/2/6 520/2/6 522/2/6
f 523/2/6 524/2/6 527/2/6
f 527/2/6 524/2/6 528/2/6
f 525/2/6 526/2/6 529/2/6
f 529/2/6 526/2/6 530/2/6
f 531/1/6 532/1/6 533/1/6
f 531/1/6 533/1/6 540/1/6
f 533/2/6 534/2/6 541/2/6
f 540/1/6 533/1/6 541/1/6
f 541/2/6 534/2/6 542/2/6
f 535/2/6 536/2/6 543/2/6
f 543/2/6 536/2/6 544/2/6
f 537/1/6 538/1/6 545/1/6
f 545/1/6 538/1/6 546/1/6
f 539/2/6 540/2/6 549/2/6
f 549/2/6 540/2/6 550/2/6
f 546/1/6 538/1/6 551/1/6
f 551/1/6 538/1/6 552/1/6
f 547/1/6 548/1/6 553/1/6
f 553/1/6 548/1/6 554/1/6
f 547/1/6 553/1/6 555/1/6
f 555/1/6 553/1/6 556/1/6
f 555/2/6 556/2/6 559/2/6
f 559/2/6 556/2/6 560/2/6
f 557/2/6 558/2/6 561/2/6
f 561/2/6 558/2/6 562/2/6
f 563/2/6 564/2/6 565/2/6
f 565/2/6 564/2/6 566/2/6
f 567/1/6 568/1/6 571/1/6
f 571/1/6 568/1/6 572/1/6
f 569/2/6 570/2/6 576/2/6
f 576/2/6 570/2/6 577/2/6
f 573/2/6 574/2/6 578/2/6
f 578/2/6 574/2/6 579/2/6
f 575/2/6 576/2/6 582/2/6
f 582/2/6 576/2/6 583/2/6
f 579/2/6 580/2/6 584/2/6
f 584/2/6 580/2/6 585/2/6
f 581/2/6 582/2/6 587/2/6
f 587/2/6 582/2/6 588/2/6
f 585/2/6 586/2/6 589/2/6
f 589/2/6 586/2/6 590/2/6
f 591/2/6 592/2/6 595/2/6
f 595/2/6 592/2/6 596/2/6
f 593/2/6 594/2/6 599/2/6
f 599/2/6 594/2/6 600/2/6
f 596/2/6 597/2/6 601/2/6
f 601/2/6 597/2/6 602/2/6
f 598/2/6 599/2/6 603/2/6
f 603/2/6 599/2/6 604/2/6
f 605/2/6 606/2/6 609/2/6
f 609/2/6 606/2/6 610/2/6
f 607/2/6 608/2/6 615/2/6
f 615/2/6 608/2/6 616/2/6
f 605/2/6 609/2/6 617/2/6
f 617/2/6 609/2/6 618/2/6
f 611/2/6 612/2/6 619/2/6
f 619/2/6 612/2/6 620/2/6
f 613/2/6 614/2/6 622/2/6
f 620/2/6 621/2/6 623/2/6
f 619/2/6 620/2/6 623/2/6
f 623/2/6 621/2/6 624/2/6
f 613/2/6 622/2/6 626/2/6
f 624/2/6 621/2/6 627/2/6
f 625/2/6 626/2/6 629/2/6
f 626/2/6 622/2/6 630/2/6
f 629/2/6 626/2/6 630/2/6
f 627/2/6 628/2/6 631/2/6
f 624/2/6 627/2/6 631/2/6
f 631/2/6 628/2/6 632/2/6
f 630/2/6 622/2/6 633/2/6
f 624/2/6 631/2/6 634/2/6
f 630/2/6 633/2/6 635/2/6
f 633/2/6 634/2/6 635/2/6
f 635/2/6 634/2/6 636/2/6
f 636/2/6 634/2/6 637/2/6
f 634/2/6 631/2/6 638/2/6
f 637/2/6 634/2/6 638/2/6
f 636/2/6 637/2/6 639/2/6
f 639/2/6 637/2/6 640/2/6
f 641/1/6 642/1/6 644/1/6
f 644/1/6 642/1/6 645/1/6
f 643/2/6 644/2/6 648/2/6
f 645/2/6 646/2/6 648/2/6
f 644/2/6 645/2/6 648/2/6
f 648/2/6 646/2/6 649/2/6
f 647/2/6 648/2/6 653/2/6
f 653/2/6 648/2/6 654/2/6
f 651/2/6 652/2/6 655/2/6
f 650/2/6 651/2/6 655/2/6
f 655/2/6 652/2/6 656/2/6
f 647/2/6 653/2/6 657/2/6
f 656/2/6 652/2/6 658/2/6
f 647/2/6 657/2/6 659/2/6
f 657/2/6 658/2/6 659/2/6
f 658/2/6 652/2/6 660/2/6
f 659/2/6 658/2/6 660/2/6
f 661/1/6 662/1/6 665/1/6
f 665/1/6 662/1/6 666/1/6
f 663/1/6 664/1/6 667/1/6
f 667/1/6 664/1/6 668/1/6
f 668/1/6 664/1/6 669/1/6
f 666/2/6 667/2/6 671/2/6
f 667/2/6 668/2/6 671/2/6
f 671/2/6 668/2/6 672/2/6
f 672/2/6 668/2/6 673/2/6
f 673/2/6 668/2/6 674/2/6
f 670/2/6 671/2/6 676/2/6
f 671/2/6 672/2/6 676/2/6
f 674/2/6 675/2/6 677/2/6
f 673/2/6 674/2/6 677/2/6
f 670/2/6 676/2/6 678/2/6
f 676/2/6 677/2/6 678/2/6
f 677/2/6 675/2/6 679/2/6
f 678/2/6 677/2/6 679/2/6
f 680/2/6 681/2/6 682/2/6
f 682/2/6 681/2/6 683/2/6
