# MagicaVoxel @ Ephtracy

# material
mtllib CookedMeat.mtl
usemtl palette

# normals
vn -1 0 0
vn 1 0 0
vn 0 0 1
vn 0 0 -1
vn 0 -1 0
vn 0 1 0

# texcoords
vt 0.736328 0.5
vt 0.740234 0.5
vt 0.744141 0.5

# verts
v -6 0 -1
v -6 0 -2
v -6 1 -1
v -6 1 -2
v -5 0 -0
v -5 0 -1
v -5 0 -2
v -5 0 -4
v -5 1 -0
v -5 1 -1
v -5 1 -2
v -5 1 -4
v -4 0 1
v -4 0 -0
v -4 0 -4
v -4 0 -5
v -4 1 1
v -4 1 -0
v -4 1 -4
v -4 1 -5
v -3 0 2
v -3 0 1
v -3 1 2
v -3 1 1
v -2 0 3
v -2 0 2
v -2 1 3
v -2 1 2
v -1 0 4
v -1 0 3
v -1 1 4
v -1 1 3
v -2 0 -4
v -2 0 -5
v -2 1 -4
v -2 1 -5
v -1 0 -3
v -1 0 -4
v -1 1 -3
v -1 1 -4
v 0 0 -2
v 0 0 -3
v 0 1 -2
v 0 1 -3
v 1 0 -1
v 1 0 -2
v 1 1 -1
v 1 1 -2
v 2 0 4
v 2 0 3
v 2 1 4
v 2 1 3
v 3 0 3
v 3 0 2
v 3 0 1
v 3 0 -0
v 3 0 -1
v 3 1 3
v 3 1 2
v 3 1 1
v 3 1 -0
v 3 1 -1
v 4 0 2
v 4 0 1
v 4 1 2
v 4 1 1
v -1 0 4
v -1 1 4
v 0 0 4
v 0 1 4
v 2 0 4
v 2 1 4
v -2 0 3
v -2 1 3
v -1 0 3
v -1 1 3
v 2 0 3
v 2 1 3
v 3 0 3
v 3 1 3
v -3 0 2
v -3 1 2
v -2 0 2
v -2 1 2
v 3 0 2
v 3 1 2
v 4 0 2
v 4 1 2
v -4 0 1
v -4 1 1
v -3 0 1
v -3 1 1
v -5 0 -0
v -5 1 -0
v -4 0 -0
v -4 1 -0
v -6 0 -1
v -6 1 -1
v -5 0 -1
v -5 1 -1
v 3 0 1
v 3 1 1
v 4 0 1
v 4 1 1
v 1 0 -1
v 1 1 -1
v 2 0 -1
v 2 1 -1
v 3 0 -1
v 3 1 -1
v -6 0 -2
v -6 1 -2
v -5 0 -2
v -5 1 -2
v 0 0 -2
v 0 1 -2
v 1 0 -2
v 1 1 -2
v -1 0 -3
v -1 1 -3
v 0 0 -3
v 0 1 -3
v -5 0 -4
v -5 1 -4
v -4 0 -4
v -4 1 -4
v -2 0 -4
v -2 1 -4
v -1 0 -4
v -1 1 -4
v -4 0 -5
v -4 1 -5
v -2 0 -5
v -2 1 -5
v -1 0 4
v 0 0 4
v 2 0 4
v -2 0 3
v -1 0 3
v 1 0 3
v 2 0 3
v 3 0 3
v -3 0 2
v -2 0 2
v -1 0 2
v 0 0 2
v 1 0 2
v 3 0 2
v 4 0 2
v -4 0 1
v -3 0 1
v -2 0 1
v -1 0 1
v 0 0 1
v 1 0 1
v 2 0 1
v 3 0 1
v 4 0 1
v -5 0 -0
v -4 0 -0
v -3 0 -0
v -2 0 -0
v -1 0 -0
v 0 0 -0
v 1 0 -0
v 2 0 -0
v 3 0 -0
v -6 0 -1
v -5 0 -1
v -4 0 -1
v -2 0 -1
v -1 0 -1
v 1 0 -1
v 2 0 -1
v 3 0 -1
v -6 0 -2
v -5 0 -2
v -4 0 -2
v -3 0 -2
v -2 0 -2
v -1 0 -2
v 0 0 -2
v 1 0 -2
v -4 0 -3
v -3 0 -3
v -2 0 -3
v -1 0 -3
v 0 0 -3
v -5 0 -4
v -4 0 -4
v -3 0 -4
v -2 0 -4
v -1 0 -4
v -4 0 -5
v -2 0 -5
v -1 1 4
v 0 1 4
v 2 1 4
v -2 1 3
v -1 1 3
v 1 1 3
v 2 1 3
v 3 1 3
v -3 1 2
v -2 1 2
v -1 1 2
v 0 1 2
v 1 1 2
v 3 1 2
v 4 1 2
v -4 1 1
v -3 1 1
v -2 1 1
v -1 1 1
v 0 1 1
v 1 1 1
v 2 1 1
v 3 1 1
v 4 1 1
v -5 1 -0
v -4 1 -0
v -3 1 -0
v -2 1 -0
v -1 1 -0
v 0 1 -0
v 1 1 -0
v 2 1 -0
v 3 1 -0
v -6 1 -1
v -5 1 -1
v -4 1 -1
v -2 1 -1
v -1 1 -1
v 1 1 -1
v 2 1 -1
v 3 1 -1
v -6 1 -2
v -5 1 -2
v -4 1 -2
v -3 1 -2
v -2 1 -2
v -1 1 -2
v 0 1 -2
v 1 1 -2
v -4 1 -3
v -3 1 -3
v -2 1 -3
v -1 1 -3
v 0 1 -3
v -5 1 -4
v -4 1 -4
v -3 1 -4
v -2 1 -4
v -1 1 -4
v -4 1 -5
v -2 1 -5

# faces
f 3/1/1 2/1/1 1/1/1
f 4/1/1 2/1/1 3/1/1
f 9/1/1 6/1/1 5/1/1
f 10/1/1 6/1/1 9/1/1
f 11/1/1 8/1/1 7/1/1
f 12/1/1 8/1/1 11/1/1
f 17/1/1 14/1/1 13/1/1
f 18/1/1 14/1/1 17/1/1
f 19/1/1 16/1/1 15/1/1
f 20/1/1 16/1/1 19/1/1
f 23/1/1 22/1/1 21/1/1
f 24/1/1 22/1/1 23/1/1
f 27/1/1 26/1/1 25/1/1
f 28/1/1 26/1/1 27/1/1
f 31/1/1 30/1/1 29/1/1
f 32/1/1 30/1/1 31/1/1
f 33/1/2 34/1/2 35/1/2
f 35/1/2 34/1/2 36/1/2
f 37/1/2 38/1/2 39/1/2
f 39/1/2 38/1/2 40/1/2
f 41/1/2 42/1/2 43/1/2
f 43/1/2 42/1/2 44/1/2
f 45/1/2 46/1/2 47/1/2
f 47/1/2 46/1/2 48/1/2
f 49/2/2 50/2/2 51/2/2
f 51/2/2 50/2/2 52/2/2
f 53/1/2 54/1/2 58/1/2
f 58/1/2 54/1/2 59/1/2
f 55/1/2 56/1/2 60/1/2
f 56/2/2 57/2/2 61/2/2
f 60/1/2 56/1/2 61/1/2
f 61/2/2 57/2/2 62/2/2
f 63/1/2 64/1/2 65/1/2
f 65/1/2 64/1/2 66/1/2
f 69/1/3 68/1/3 67/1/3
f 70/1/3 68/1/3 69/1/3
f 71/2/3 70/2/3 69/2/3
f 72/2/3 70/2/3 71/2/3
f 75/1/3 74/1/3 73/1/3
f 76/1/3 74/1/3 75/1/3
f 79/1/3 78/1/3 77/1/3
f 80/1/3 78/1/3 79/1/3
f 83/1/3 82/1/3 81/1/3
f 84/1/3 82/1/3 83/1/3
f 87/1/3 86/1/3 85/1/3
f 88/1/3 86/1/3 87/1/3
f 91/1/3 90/1/3 89/1/3
f 92/1/3 90/1/3 91/1/3
f 95/1/3 94/1/3 93/1/3
f 96/1/3 94/1/3 95/1/3
f 99/1/3 98/1/3 97/1/3
f 100/1/3 98/1/3 99/1/3
f 101/1/4 102/1/4 103/1/4
f 103/1/4 102/1/4 104/1/4
f 105/1/4 106/1/4 107/1/4
f 107/1/4 106/1/4 108/1/4
f 107/2/4 108/2/4 109/2/4
f 109/2/4 108/2/4 110/2/4
f 111/1/4 112/1/4 113/1/4
f 113/1/4 112/1/4 114/1/4
f 115/1/4 116/1/4 117/1/4
f 117/1/4 116/1/4 118/1/4
f 119/1/4 120/1/4 121/1/4
f 121/1/4 120/1/4 122/1/4
f 123/1/4 124/1/4 125/1/4
f 125/1/4 124/1/4 126/1/4
f 127/1/4 128/1/4 129/1/4
f 129/1/4 128/1/4 130/1/4
f 131/1/4 132/1/4 133/1/4
f 133/1/4 132/1/4 134/1/4
f 139/1/5 136/1/5 135/1/5
f 140/2/5 137/2/5 136/2/5
f 141/2/5 137/2/5 140/2/5
f 144/1/5 139/1/5 138/1/5
f 145/1/5 136/1/5 139/1/5
f 145/1/5 139/1/5 144/1/5
f 146/2/5 140/2/5 136/2/5
f 146/1/5 136/1/5 145/1/5
f 147/1/5 142/1/5 141/1/5
f 147/2/5 140/2/5 146/2/5
f 147/1/5 141/1/5 140/1/5
f 148/1/5 142/1/5 147/1/5
f 151/1/5 144/1/5 143/1/5
f 152/2/5 145/2/5 144/2/5
f 152/1/5 144/1/5 151/1/5
f 153/1/5 146/1/5 145/1/5
f 153/2/5 145/2/5 152/2/5
f 154/3/5 147/3/5 146/3/5
f 154/1/5 146/1/5 153/1/5
f 155/2/5 148/2/5 147/2/5
f 155/3/5 147/3/5 154/3/5
f 156/2/5 148/2/5 155/2/5
f 157/1/5 149/1/5 148/1/5
f 157/2/5 148/2/5 156/2/5
f 158/1/5 149/1/5 157/1/5
f 160/1/5 151/1/5 150/1/5
f 161/3/5 152/3/5 151/3/5
f 161/1/5 151/1/5 160/1/5
f 162/1/5 153/1/5 152/1/5
f 162/3/5 152/3/5 161/3/5
f 163/3/5 154/3/5 153/3/5
f 163/1/5 153/1/5 162/1/5
f 164/2/5 155/2/5 154/2/5
f 164/3/5 154/3/5 163/3/5
f 165/3/5 156/3/5 155/3/5
f 165/2/5 155/2/5 164/2/5
f 166/1/5 157/1/5 156/1/5
f 166/3/5 156/3/5 165/3/5
f 167/1/5 157/1/5 166/1/5
f 169/1/5 160/1/5 159/1/5
f 169/1/5 161/1/5 160/1/5
f 169/1/5 162/1/5 161/1/5
f 170/1/5 162/1/5 169/1/5
f 171/3/5 163/3/5 162/3/5
f 171/1/5 162/1/5 170/1/5
f 172/2/5 164/2/5 163/2/5
f 172/3/5 163/3/5 171/3/5
f 173/1/5 166/1/5 165/1/5
f 173/1/5 165/1/5 164/1/5
f 174/2/5 167/2/5 166/2/5
f 174/1/5 166/1/5 173/1/5
f 175/2/5 167/2/5 174/2/5
f 176/1/5 169/1/5 168/1/5
f 177/2/5 170/2/5 169/2/5
f 177/1/5 169/1/5 176/1/5
f 178/3/5 171/3/5 170/3/5
f 178/2/5 170/2/5 177/2/5
f 179/3/5 171/3/5 178/3/5
f 180/2/5 172/2/5 171/2/5
f 180/3/5 171/3/5 179/3/5
f 181/2/5 164/2/5 172/2/5
f 181/2/5 172/2/5 180/2/5
f 182/1/5 173/1/5 164/1/5
f 182/2/5 164/2/5 181/2/5
f 183/1/5 173/1/5 182/1/5
f 184/2/5 179/2/5 178/2/5
f 184/1/5 178/1/5 177/1/5
f 185/1/5 180/1/5 179/1/5
f 185/2/5 179/2/5 184/2/5
f 186/2/5 181/2/5 180/2/5
f 186/1/5 180/1/5 185/1/5
f 187/1/5 182/1/5 181/1/5
f 187/2/5 181/2/5 186/2/5
f 188/1/5 182/1/5 187/1/5
f 189/1/5 184/1/5 177/1/5
f 190/3/5 185/3/5 184/3/5
f 190/1/5 184/1/5 189/1/5
f 191/2/5 186/2/5 185/2/5
f 191/3/5 185/3/5 190/3/5
f 192/1/5 187/1/5 186/1/5
f 192/2/5 186/2/5 191/2/5
f 193/1/5 187/1/5 192/1/5
f 194/1/5 191/1/5 190/1/5
f 194/1/5 192/1/5 191/1/5
f 195/1/5 192/1/5 194/1/5
f 196/1/6 197/1/6 200/1/6
f 197/2/6 198/2/6 201/2/6
f 201/2/6 198/2/6 202/2/6
f 199/1/6 200/1/6 205/1/6
f 200/1/6 197/1/6 206/1/6
f 205/1/6 200/1/6 206/1/6
f 197/2/6 201/2/6 207/2/6
f 206/1/6 197/1/6 207/1/6
f 202/1/6 203/1/6 208/1/6
f 207/2/6 201/2/6 208/2/6
f 201/1/6 202/1/6 208/1/6
f 208/1/6 203/1/6 209/1/6
f 204/1/6 205/1/6 212/1/6
f 205/2/6 206/2/6 213/2/6
f 212/1/6 205/1/6 213/1/6
f 206/1/6 207/1/6 214/1/6
f 213/2/6 206/2/6 214/2/6
f 207/3/6 208/3/6 215/3/6
f 214/1/6 207/1/6 215/1/6
f 208/2/6 209/2/6 216/2/6
f 215/3/6 208/3/6 216/3/6
f 216/2/6 209/2/6 217/2/6
f 209/1/6 210/1/6 218/1/6
f 217/2/6 209/2/6 218/2/6
f 218/1/6 210/1/6 219/1/6
f 211/1/6 212/1/6 221/1/6
f 212/3/6 213/3/6 222/3/6
f 221/1/6 212/1/6 222/1/6
f 213/1/6 214/1/6 223/1/6
f 222/3/6 213/3/6 223/3/6
f 214/3/6 215/3/6 224/3/6
f 223/1/6 214/1/6 224/1/6
f 215/2/6 216/2/6 225/2/6
f 224/3/6 215/3/6 225/3/6
f 216/3/6 217/3/6 226/3/6
f 225/2/6 216/2/6 226/2/6
f 217/1/6 218/1/6 227/1/6
f 226/3/6 217/3/6 227/3/6
f 227/1/6 218/1/6 228/1/6
f 220/1/6 221/1/6 230/1/6
f 221/1/6 222/1/6 230/1/6
f 222/1/6 223/1/6 230/1/6
f 230/1/6 223/1/6 231/1/6
f 223/3/6 224/3/6 232/3/6
f 231/1/6 223/1/6 232/1/6
f 224/2/6 225/2/6 233/2/6
f 232/3/6 224/3/6 233/3/6
f 226/1/6 227/1/6 234/1/6
f 225/1/6 226/1/6 234/1/6
f 227/2/6 228/2/6 235/2/6
f 234/1/6 227/1/6 235/1/6
f 235/2/6 228/2/6 236/2/6
f 229/1/6 230/1/6 237/1/6
f 230/2/6 231/2/6 238/2/6
f 237/1/6 230/1/6 238/1/6
f 231/3/6 232/3/6 239/3/6
f 238/2/6 231/2/6 239/2/6
f 239/3/6 232/3/6 240/3/6
f 232/2/6 233/2/6 241/2/6
f 240/3/6 232/3/6 241/3/6
f 233/2/6 225/2/6 242/2/6
f 241/2/6 233/2/6 242/2/6
f 225/1/6 234/1/6 243/1/6
f 242/2/6 225/2/6 243/2/6
f 243/1/6 234/1/6 244/1/6
f 239/2/6 240/2/6 245/2/6
f 238/1/6 239/1/6 245/1/6
f 240/1/6 241/1/6 246/1/6
f 245/2/6 240/2/6 246/2/6
f 241/2/6 242/2/6 247/2/6
f 246/1/6 241/1/6 247/1/6
f 242/1/6 243/1/6 248/1/6
f 247/2/6 242/2/6 248/2/6
f 248/1/6 243/1/6 249/1/6
f 238/1/6 245/1/6 250/1/6
f 245/3/6 246/3/6 251/3/6
f 250/1/6 245/1/6 251/1/6
f 246/2/6 247/2/6 252/2/6
f 251/3/6 246/3/6 252/3/6
f 247/1/6 248/1/6 253/1/6
f 252/2/6 247/2/6 253/2/6
f 253/1/6 248/1/6 254/1/6
f 251/1/6 252/1/6 255/1/6
f 252/1/6 253/1/6 255/1/6
f 255/1/6 253/1/6 256/1/6
