# MagicaVoxel @ Ephtracy

# material
mtllib Moon.mtl
usemtl palette

# normals
vn -1 0 0
vn 1 0 0
vn 0 0 1
vn 0 0 -1
vn 0 -1 0
vn 0 1 0

# texcoords
vt 0.814453 0.5
vt 0.818359 0.5
vt 0.822266 0.5
vt 0.830078 0.5
vt 0.833984 0.5

# verts
v -7 0 3
v -7 0 -0
v -7 0 -1
v -7 0 -2
v -7 0 -3
v -7 1 3
v -7 1 -0
v -7 1 -1
v -7 1 -2
v -7 1 -3
v -6 0 4
v -6 0 3
v -6 0 -3
v -6 0 -4
v -6 1 4
v -6 1 3
v -6 1 -3
v -6 1 -4
v -5 0 5
v -5 0 4
v -5 0 -4
v -5 0 -5
v -5 1 5
v -5 1 4
v -5 1 -4
v -5 1 -5
v -4 0 6
v -4 0 5
v -4 0 -5
v -4 0 -6
v -4 1 6
v -4 1 5
v -4 1 -5
v -4 1 -6
v -3 0 7
v -3 0 6
v -3 0 -6
v -3 0 -7
v -3 1 7
v -3 1 6
v -3 1 -6
v -3 1 -7
v 3 0 7
v 3 0 6
v 3 0 -6
v 3 0 -7
v 3 1 7
v 3 1 6
v 3 1 -6
v 3 1 -7
v 4 0 6
v 4 0 5
v 4 0 -5
v 4 0 -6
v 4 1 6
v 4 1 5
v 4 1 -5
v 4 1 -6
v 5 0 5
v 5 0 4
v 5 0 -4
v 5 0 -5
v 5 1 5
v 5 1 4
v 5 1 -4
v 5 1 -5
v 6 0 4
v 6 0 3
v 6 0 -3
v 6 0 -4
v 6 1 4
v 6 1 3
v 6 1 -3
v 6 1 -4
v 7 0 3
v 7 0 2
v 7 0 -2
v 7 0 -3
v 7 1 3
v 7 1 2
v 7 1 -2
v 7 1 -3
v -3 0 7
v -3 1 7
v -2 0 7
v -2 1 7
v -1 0 7
v -1 1 7
v 2 0 7
v 2 1 7
v 3 0 7
v 3 1 7
v -4 0 6
v -4 1 6
v -3 0 6
v -3 1 6
v 3 0 6
v 3 1 6
v 4 0 6
v 4 1 6
v -5 0 5
v -5 1 5
v -4 0 5
v -4 1 5
v 4 0 5
v 4 1 5
v 5 0 5
v 5 1 5
v -6 0 4
v -6 1 4
v -5 0 4
v -5 1 4
v 5 0 4
v 5 1 4
v 6 0 4
v 6 1 4
v -7 0 3
v -7 1 3
v -6 0 3
v -6 1 3
v 6 0 3
v 6 1 3
v 7 0 3
v 7 1 3
v -7 0 -3
v -7 1 -3
v -6 0 -3
v -6 1 -3
v 6 0 -3
v 6 1 -3
v 7 0 -3
v 7 1 -3
v -6 0 -4
v -6 1 -4
v -5 0 -4
v -5 1 -4
v 5 0 -4
v 5 1 -4
v 6 0 -4
v 6 1 -4
v -5 0 -5
v -5 1 -5
v -4 0 -5
v -4 1 -5
v 4 0 -5
v 4 1 -5
v 5 0 -5
v 5 1 -5
v -4 0 -6
v -4 1 -6
v -3 0 -6
v -3 1 -6
v 3 0 -6
v 3 1 -6
v 4 0 -6
v 4 1 -6
v -3 0 -7
v -3 1 -7
v 1 0 -7
v 1 1 -7
v 3 0 -7
v 3 1 -7
v -3 0 7
v -2 0 7
v -1 0 7
v 2 0 7
v 3 0 7
v -4 0 6
v -3 0 6
v -2 0 6
v -1 0 6
v 0 0 6
v 1 0 6
v 2 0 6
v 3 0 6
v 4 0 6
v -5 0 5
v -4 0 5
v -3 0 5
v 0 0 5
v 1 0 5
v 4 0 5
v 5 0 5
v -6 0 4
v -5 0 4
v -4 0 4
v -3 0 4
v -2 0 4
v 0 0 4
v 4 0 4
v 5 0 4
v 6 0 4
v -7 0 3
v -6 0 3
v 6 0 3
v 7 0 3
v -6 0 2
v -5 0 2
v -4 0 2
v -3 0 2
v -2 0 2
v 6 0 2
v 7 0 2
v -5 0 1
v -4 0 1
v -3 0 1
v -7 0 -0
v -6 0 -0
v -4 0 -0
v -3 0 -0
v -7 0 -1
v -6 0 -1
v -5 0 -1
v -4 0 -1
v -7 0 -2
v -6 0 -2
v -4 0 -2
v -3 0 -2
v -2 0 -2
v 6 0 -2
v 7 0 -2
v -7 0 -3
v -6 0 -3
v -4 0 -3
v -3 0 -3
v 6 0 -3
v 7 0 -3
v -6 0 -4
v -5 0 -4
v -4 0 -4
v -3 0 -4
v -2 0 -4
v 0 0 -4
v 4 0 -4
v 5 0 -4
v 6 0 -4
v -5 0 -5
v -4 0 -5
v -3 0 -5
v -2 0 -5
v 0 0 -5
v 4 0 -5
v 5 0 -5
v -4 0 -6
v -3 0 -6
v -2 0 -6
v 0 0 -6
v 1 0 -6
v 3 0 -6
v 4 0 -6
v -3 0 -7
v 1 0 -7
v 3 0 -7
v -3 1 7
v -2 1 7
v -1 1 7
v 2 1 7
v 3 1 7
v -4 1 6
v -3 1 6
v -2 1 6
v -1 1 6
v 0 1 6
v 1 1 6
v 2 1 6
v 3 1 6
v 4 1 6
v -5 1 5
v -4 1 5
v -3 1 5
v 0 1 5
v 1 1 5
v 4 1 5
v 5 1 5
v -6 1 4
v -5 1 4
v -4 1 4
v -3 1 4
v -2 1 4
v 0 1 4
v 4 1 4
v 5 1 4
v 6 1 4
v -7 1 3
v -6 1 3
v 6 1 3
v 7 1 3
v -6 1 2
v -5 1 2
v -4 1 2
v -3 1 2
v -2 1 2
v 6 1 2
v 7 1 2
v -5 1 1
v -4 1 1
v -3 1 1
v -7 1 -0
v -6 1 -0
v -4 1 -0
v -3 1 -0
v -7 1 -1
v -6 1 -1
v -5 1 -1
v -4 1 -1
v -7 1 -2
v -6 1 -2
v -4 1 -2
v -3 1 -2
v -2 1 -2
v 6 1 -2
v 7 1 -2
v -7 1 -3
v -6 1 -3
v -4 1 -3
v -3 1 -3
v 6 1 -3
v 7 1 -3
v -6 1 -4
v -5 1 -4
v -4 1 -4
v -3 1 -4
v -2 1 -4
v 0 1 -4
v 4 1 -4
v 5 1 -4
v 6 1 -4
v -5 1 -5
v -4 1 -5
v -3 1 -5
v -2 1 -5
v 0 1 -5
v 4 1 -5
v 5 1 -5
v -4 1 -6
v -3 1 -6
v -2 1 -6
v 0 1 -6
v 1 1 -6
v 3 1 -6
v 4 1 -6
v -3 1 -7
v 1 1 -7
v 3 1 -7

# faces
f 6/5/1 2/5/1 1/5/1
f 7/3/1 3/3/1 2/3/1
f 7/5/1 2/5/1 6/5/1
f 8/5/1 4/5/1 3/5/1
f 8/3/1 3/3/1 7/3/1
f 9/3/1 5/3/1 4/3/1
f 9/5/1 4/5/1 8/5/1
f 10/3/1 5/3/1 9/3/1
f 15/5/1 12/5/1 11/5/1
f 16/5/1 12/5/1 15/5/1
f 17/3/1 14/3/1 13/3/1
f 18/3/1 14/3/1 17/3/1
f 23/3/1 20/3/1 19/3/1
f 24/3/1 20/3/1 23/3/1
f 25/3/1 22/3/1 21/3/1
f 26/3/1 22/3/1 25/3/1
f 31/3/1 28/3/1 27/3/1
f 32/3/1 28/3/1 31/3/1
f 33/3/1 30/3/1 29/3/1
f 34/3/1 30/3/1 33/3/1
f 39/3/1 36/3/1 35/3/1
f 40/3/1 36/3/1 39/3/1
f 41/3/1 38/3/1 37/3/1
f 42/3/1 38/3/1 41/3/1
f 43/5/2 44/5/2 47/5/2
f 47/5/2 44/5/2 48/5/2
f 45/5/2 46/5/2 49/5/2
f 49/5/2 46/5/2 50/5/2
f 51/3/2 52/3/2 55/3/2
f 55/3/2 52/3/2 56/3/2
f 53/3/2 54/3/2 57/3/2
f 57/3/2 54/3/2 58/3/2
f 59/3/2 60/3/2 63/3/2
f 63/3/2 60/3/2 64/3/2
f 61/5/2 62/5/2 65/5/2
f 65/5/2 62/5/2 66/5/2
f 67/4/2 68/4/2 71/4/2
f 71/4/2 68/4/2 72/4/2
f 69/4/2 70/4/2 73/4/2
f 73/4/2 70/4/2 74/4/2
f 75/3/2 76/3/2 79/3/2
f 76/4/2 77/4/2 80/4/2
f 79/3/2 76/3/2 80/3/2
f 77/5/2 78/5/2 81/5/2
f 80/4/2 77/4/2 81/4/2
f 81/5/2 78/5/2 82/5/2
f 85/3/3 84/3/3 83/3/3
f 86/3/3 84/3/3 85/3/3
f 87/5/3 86/5/3 85/5/3
f 88/5/3 86/5/3 87/5/3
f 89/3/3 88/3/3 87/3/3
f 90/3/3 88/3/3 89/3/3
f 91/5/3 90/5/3 89/5/3
f 92/5/3 90/5/3 91/5/3
f 95/3/3 94/3/3 93/3/3
f 96/3/3 94/3/3 95/3/3
f 99/3/3 98/3/3 97/3/3
f 100/3/3 98/3/3 99/3/3
f 103/3/3 102/3/3 101/3/3
f 104/3/3 102/3/3 103/3/3
f 107/3/3 106/3/3 105/3/3
f 108/3/3 106/3/3 107/3/3
f 111/5/3 110/5/3 109/5/3
f 112/5/3 110/5/3 111/5/3
f 115/4/3 114/4/3 113/4/3
f 116/4/3 114/4/3 115/4/3
f 119/5/3 118/5/3 117/5/3
f 120/5/3 118/5/3 119/5/3
f 123/3/3 122/3/3 121/3/3
f 124/3/3 122/3/3 123/3/3
f 125/3/4 126/3/4 127/3/4
f 127/3/4 126/3/4 128/3/4
f 129/5/4 130/5/4 131/5/4
f 131/5/4 130/5/4 132/5/4
f 133/3/4 134/3/4 135/3/4
f 135/3/4 134/3/4 136/3/4
f 137/4/4 138/4/4 139/4/4
f 139/4/4 138/4/4 140/4/4
f 141/3/4 142/3/4 143/3/4
f 143/3/4 142/3/4 144/3/4
f 145/5/4 146/5/4 147/5/4
f 147/5/4 146/5/4 148/5/4
f 149/3/4 150/3/4 151/3/4
f 151/3/4 150/3/4 152/3/4
f 153/3/4 154/3/4 155/3/4
f 155/3/4 154/3/4 156/3/4
f 157/3/4 158/3/4 159/3/4
f 159/3/4 158/3/4 160/3/4
f 159/5/4 160/5/4 161/5/4
f 161/5/4 160/5/4 162/5/4
f 169/3/5 164/3/5 163/3/5
f 170/5/5 165/5/5 164/5/5
f 170/3/5 164/3/5 169/3/5
f 171/3/5 166/3/5 165/3/5
f 171/5/5 165/5/5 170/5/5
f 172/3/5 166/3/5 171/3/5
f 173/3/5 166/3/5 172/3/5
f 174/5/5 167/5/5 166/5/5
f 174/3/5 166/3/5 173/3/5
f 175/5/5 167/5/5 174/5/5
f 178/3/5 169/3/5 168/3/5
f 178/3/5 170/3/5 169/3/5
f 178/3/5 171/3/5 170/3/5
f 178/3/5 172/3/5 171/3/5
f 179/3/5 172/3/5 178/3/5
f 180/5/5 173/5/5 172/5/5
f 180/3/5 172/3/5 179/3/5
f 181/3/5 176/3/5 175/3/5
f 181/5/5 173/5/5 180/5/5
f 181/3/5 175/3/5 174/3/5
f 181/3/5 174/3/5 173/3/5
f 182/3/5 176/3/5 181/3/5
f 185/3/5 178/3/5 177/3/5
f 186/5/5 179/5/5 178/5/5
f 186/3/5 178/3/5 185/3/5
f 187/3/5 180/3/5 179/3/5
f 187/5/5 179/5/5 186/5/5
f 188/3/5 180/3/5 187/3/5
f 189/4/5 181/4/5 180/4/5
f 189/3/5 180/3/5 188/3/5
f 189/4/5 182/4/5 181/4/5
f 190/3/5 183/3/5 182/3/5
f 190/4/5 182/4/5 189/4/5
f 191/3/5 183/3/5 190/3/5
f 194/5/5 185/5/5 184/5/5
f 195/4/5 192/4/5 191/4/5
f 195/4/5 189/4/5 188/4/5
f 195/4/5 190/4/5 189/4/5
f 195/4/5 191/4/5 190/4/5
f 197/5/5 194/5/5 193/5/5
f 197/5/5 185/5/5 194/5/5
f 198/3/5 186/3/5 185/3/5
f 198/5/5 185/5/5 197/5/5
f 198/3/5 188/3/5 187/3/5
f 198/3/5 187/3/5 186/3/5
f 199/3/5 188/3/5 198/3/5
f 200/3/5 188/3/5 199/3/5
f 201/4/5 195/4/5 188/4/5
f 201/3/5 188/3/5 200/3/5
f 202/3/5 196/3/5 195/3/5
f 202/4/5 195/4/5 201/4/5
f 203/3/5 196/3/5 202/3/5
f 204/3/5 198/3/5 197/3/5
f 204/3/5 199/3/5 198/3/5
f 205/2/5 200/2/5 199/2/5
f 205/3/5 199/3/5 204/3/5
f 206/4/5 201/4/5 200/4/5
f 206/2/5 200/2/5 205/2/5
f 206/4/5 203/4/5 202/4/5
f 206/4/5 202/4/5 201/4/5
f 207/5/5 197/5/5 193/5/5
f 208/3/5 204/3/5 197/3/5
f 208/5/5 197/5/5 207/5/5
f 209/2/5 205/2/5 204/2/5
f 209/3/5 206/3/5 205/3/5
f 210/4/5 203/4/5 206/4/5
f 210/3/5 206/3/5 209/3/5
f 211/3/5 208/3/5 207/3/5
f 212/3/5 204/3/5 208/3/5
f 212/3/5 208/3/5 211/3/5
f 213/2/5 209/2/5 204/2/5
f 213/3/5 204/3/5 212/3/5
f 213/2/5 210/2/5 209/2/5
f 214/2/5 210/2/5 213/2/5
f 215/5/5 212/5/5 211/5/5
f 216/3/5 213/3/5 212/3/5
f 216/5/5 212/5/5 215/5/5
f 216/3/5 214/3/5 213/3/5
f 217/2/5 210/2/5 214/2/5
f 217/3/5 214/3/5 216/3/5
f 218/4/5 203/4/5 210/4/5
f 218/2/5 210/2/5 217/2/5
f 219/4/5 203/4/5 218/4/5
f 220/4/5 203/4/5 219/4/5
f 221/4/5 203/4/5 220/4/5
f 222/3/5 216/3/5 215/3/5
f 222/3/5 217/3/5 216/3/5
f 222/3/5 218/3/5 217/3/5
f 223/3/5 218/3/5 222/3/5
f 224/3/5 218/3/5 223/3/5
f 225/5/5 219/5/5 218/5/5
f 225/3/5 218/3/5 224/3/5
f 226/5/5 221/5/5 220/5/5
f 226/4/5 220/4/5 219/4/5
f 227/5/5 221/5/5 226/5/5
f 228/3/5 224/3/5 223/3/5
f 229/3/5 224/3/5 228/3/5
f 230/5/5 225/5/5 224/5/5
f 230/3/5 224/3/5 229/3/5
f 231/5/5 219/5/5 225/5/5
f 231/5/5 225/5/5 230/5/5
f 232/4/5 226/4/5 219/4/5
f 232/5/5 219/5/5 231/5/5
f 233/4/5 226/4/5 232/4/5
f 234/4/5 226/4/5 233/4/5
f 235/4/5 226/4/5 234/4/5
f 236/4/5 226/4/5 235/4/5
f 237/3/5 230/3/5 229/3/5
f 238/1/5 231/1/5 230/1/5
f 238/3/5 230/3/5 237/3/5
f 239/5/5 232/5/5 231/5/5
f 239/1/5 231/1/5 238/1/5
f 240/3/5 233/3/5 232/3/5
f 240/5/5 232/5/5 239/5/5
f 241/4/5 234/4/5 233/4/5
f 241/3/5 233/3/5 240/3/5
f 242/5/5 235/5/5 234/5/5
f 242/4/5 234/4/5 241/4/5
f 243/5/5 235/5/5 242/5/5
f 244/3/5 239/3/5 238/3/5
f 244/3/5 240/3/5 239/3/5
f 245/3/5 240/3/5 244/3/5
f 246/5/5 241/5/5 240/5/5
f 246/3/5 240/3/5 245/3/5
f 247/3/5 242/3/5 241/3/5
f 247/5/5 241/5/5 246/5/5
f 248/3/5 242/3/5 247/3/5
f 249/3/5 242/3/5 248/3/5
f 250/3/5 242/3/5 249/3/5
f 251/3/5 246/3/5 245/3/5
f 251/3/5 247/3/5 246/3/5
f 251/3/5 248/3/5 247/3/5
f 252/5/5 249/5/5 248/5/5
f 252/3/5 248/3/5 251/3/5
f 253/5/5 249/5/5 252/5/5
f 254/3/6 255/3/6 260/3/6
f 255/5/6 256/5/6 261/5/6
f 260/3/6 255/3/6 261/3/6
f 256/3/6 257/3/6 262/3/6
f 261/5/6 256/5/6 262/5/6
f 262/3/6 257/3/6 263/3/6
f 263/3/6 257/3/6 264/3/6
f 257/5/6 258/5/6 265/5/6
f 264/3/6 257/3/6 265/3/6
f 265/5/6 258/5/6 266/5/6
f 259/3/6 260/3/6 269/3/6
f 260/3/6 261/3/6 269/3/6
f 261/3/6 262/3/6 269/3/6
f 262/3/6 263/3/6 269/3/6
f 269/3/6 263/3/6 270/3/6
f 263/5/6 264/5/6 271/5/6
f 270/3/6 263/3/6 271/3/6
f 266/3/6 267/3/6 272/3/6
f 271/5/6 264/5/6 272/5/6
f 265/3/6 266/3/6 272/3/6
f 264/3/6 265/3/6 272/3/6
f 272/3/6 267/3/6 273/3/6
f 268/3/6 269/3/6 276/3/6
f 269/5/6 270/5/6 277/5/6
f 276/3/6 269/3/6 277/3/6
f 270/3/6 271/3/6 278/3/6
f 277/5/6 270/5/6 278/5/6
f 278/3/6 271/3/6 279/3/6
f 271/4/6 272/4/6 280/4/6
f 279/3/6 271/3/6 280/3/6
f 272/4/6 273/4/6 280/4/6
f 273/3/6 274/3/6 281/3/6
f 280/4/6 273/4/6 281/4/6
f 281/3/6 274/3/6 282/3/6
f 275/5/6 276/5/6 285/5/6
f 282/4/6 283/4/6 286/4/6
f 279/4/6 280/4/6 286/4/6
f 280/4/6 281/4/6 286/4/6
f 281/4/6 282/4/6 286/4/6
f 284/5/6 285/5/6 288/5/6
f 285/5/6 276/5/6 288/5/6
f 276/3/6 277/3/6 289/3/6
f 288/5/6 276/5/6 289/5/6
f 278/3/6 279/3/6 289/3/6
f 277/3/6 278/3/6 289/3/6
f 289/3/6 279/3/6 290/3/6
f 290/3/6 279/3/6 291/3/6
f 279/4/6 286/4/6 292/4/6
f 291/3/6 279/3/6 292/3/6
f 286/3/6 287/3/6 293/3/6
f 292/4/6 286/4/6 293/4/6
f 293/3/6 287/3/6 294/3/6
f 288/3/6 289/3/6 295/3/6
f 289/3/6 290/3/6 295/3/6
f 290/2/6 291/2/6 296/2/6
f 295/3/6 290/3/6 296/3/6
f 291/4/6 292/4/6 297/4/6
f 296/2/6 291/2/6 297/2/6
f 293/4/6 294/4/6 297/4/6
f 292/4/6 293/4/6 297/4/6
f 284/5/6 288/5/6 298/5/6
f 288/3/6 295/3/6 299/3/6
f 298/5/6 288/5/6 299/5/6
f 295/2/6 296/2/6 300/2/6
f 296/3/6 297/3/6 300/3/6
f 297/4/6 294/4/6 301/4/6
f 300/3/6 297/3/6 301/3/6
f 298/3/6 299/3/6 302/3/6
f 299/3/6 295/3/6 303/3/6
f 302/3/6 299/3/6 303/3/6
f 295/2/6 300/2/6 304/2/6
f 303/3/6 295/3/6 304/3/6
f 300/2/6 301/2/6 304/2/6
f 304/2/6 301/2/6 305/2/6
f 302/5/6 303/5/6 306/5/6
f 303/3/6 304/3/6 307/3/6
f 306/5/6 303/5/6 307/5/6
f 304/3/6 305/3/6 307/3/6
f 305/2/6 301/2/6 308/2/6
f 307/3/6 305/3/6 308/3/6
f 301/4/6 294/4/6 309/4/6
f 308/2/6 301/2/6 309/2/6
f 309/4/6 294/4/6 310/4/6
f 310/4/6 294/4/6 311/4/6
f 311/4/6 294/4/6 312/4/6
f 306/3/6 307/3/6 313/3/6
f 307/3/6 308/3/6 313/3/6
f 308/3/6 309/3/6 313/3/6
f 313/3/6 309/3/6 314/3/6
f 314/3/6 309/3/6 315/3/6
f 309/5/6 310/5/6 316/5/6
f 315/3/6 309/3/6 316/3/6
f 311/5/6 312/5/6 317/5/6
f 310/4/6 311/4/6 317/4/6
f 317/5/6 312/5/6 318/5/6
f 314/3/6 315/3/6 319/3/6
f 319/3/6 315/3/6 320/3/6
f 315/5/6 316/5/6 321/5/6
f 320/3/6 315/3/6 321/3/6
f 316/5/6 310/5/6 322/5/6
f 321/5/6 316/5/6 322/5/6
f 310/4/6 317/4/6 323/4/6
f 322/5/6 310/5/6 323/5/6
f 323/4/6 317/4/6 324/4/6
f 324/4/6 317/4/6 325/4/6
f 325/4/6 317/4/6 326/4/6
f 326/4/6 317/4/6 327/4/6
f 320/3/6 321/3/6 328/3/6
f 321/1/6 322/1/6 329/1/6
f 328/3/6 321/3/6 329/3/6
f 322/5/6 323/5/6 330/5/6
f 329/1/6 322/1/6 330/1/6
f 323/3/6 324/3/6 331/3/6
f 330/5/6 323/5/6 331/5/6
f 324/4/6 325/4/6 332/4/6
f 331/3/6 324/3/6 332/3/6
f 325/5/6 326/5/6 333/5/6
f 332/4/6 325/4/6 333/4/6
f 333/5/6 326/5/6 334/5/6
f 329/3/6 330/3/6 335/3/6
f 330/3/6 331/3/6 335/3/6
f 335/3/6 331/3/6 336/3/6
f 331/5/6 332/5/6 337/5/6
f 336/3/6 331/3/6 337/3/6
f 332/3/6 333/3/6 338/3/6
f 337/5/6 332/5/6 338/5/6
f 338/3/6 333/3/6 339/3/6
f 339/3/6 333/3/6 340/3/6
f 340/3/6 333/3/6 341/3/6
f 336/3/6 337/3/6 342/3/6
f 337/3/6 338/3/6 342/3/6
f 338/3/6 339/3/6 342/3/6
f 339/5/6 340/5/6 343/5/6
f 342/3/6 339/3/6 343/3/6
f 343/5/6 340/5/6 344/5/6
