# MagicaVoxel @ Ephtracy

# material
mtllib RawMeat.mtl
usemtl palette

# normals
vn -1 0 0
vn 1 0 0
vn 0 0 1
vn 0 0 -1
vn 0 -1 0
vn 0 1 0

# texcoords
vt 0.720703 0.5
vt 0.724609 0.5
vt 0.728516 0.5
vt 0.732422 0.5

# verts
v -6 0 -1
v -6 0 -2
v -6 1 -1
v -6 1 -2
v -5 0 -0
v -5 0 -1
v -5 0 -2
v -5 0 -4
v -5 1 -0
v -5 1 -1
v -5 1 -2
v -5 1 -4
v -4 0 1
v -4 0 -0
v -4 0 -4
v -4 0 -5
v -4 1 1
v -4 1 -0
v -4 1 -4
v -4 1 -5
v -3 0 2
v -3 0 1
v -3 1 2
v -3 1 1
v -2 0 3
v -2 0 2
v -2 1 3
v -2 1 2
v -1 0 4
v -1 0 3
v -1 1 4
v -1 1 3
v -2 0 -4
v -2 0 -5
v -2 1 -4
v -2 1 -5
v -1 0 -3
v -1 0 -4
v -1 1 -3
v -1 1 -4
v 0 0 -2
v 0 0 -3
v 0 1 -2
v 0 1 -3
v 1 0 -1
v 1 0 -2
v 1 1 -1
v 1 1 -2
v 2 0 4
v 2 0 3
v 2 1 4
v 2 1 3
v 3 0 3
v 3 0 2
v 3 0 1
v 3 0 -1
v 3 1 3
v 3 1 2
v 3 1 1
v 3 1 -1
v 4 0 2
v 4 0 1
v 4 1 2
v 4 1 1
v -1 0 4
v -1 1 4
v 0 0 4
v 0 1 4
v 2 0 4
v 2 1 4
v -2 0 3
v -2 1 3
v -1 0 3
v -1 1 3
v 2 0 3
v 2 1 3
v 3 0 3
v 3 1 3
v -3 0 2
v -3 1 2
v -2 0 2
v -2 1 2
v 3 0 2
v 3 1 2
v 4 0 2
v 4 1 2
v -4 0 1
v -4 1 1
v -3 0 1
v -3 1 1
v -5 0 -0
v -5 1 -0
v -4 0 -0
v -4 1 -0
v -6 0 -1
v -6 1 -1
v -5 0 -1
v -5 1 -1
v 3 0 1
v 3 1 1
v 4 0 1
v 4 1 1
v 1 0 -1
v 1 1 -1
v 3 0 -1
v 3 1 -1
v -6 0 -2
v -6 1 -2
v -5 0 -2
v -5 1 -2
v 0 0 -2
v 0 1 -2
v 1 0 -2
v 1 1 -2
v -1 0 -3
v -1 1 -3
v 0 0 -3
v 0 1 -3
v -5 0 -4
v -5 1 -4
v -4 0 -4
v -4 1 -4
v -2 0 -4
v -2 1 -4
v -1 0 -4
v -1 1 -4
v -4 0 -5
v -4 1 -5
v -3 0 -5
v -3 1 -5
v -2 0 -5
v -2 1 -5
v -1 0 4
v 0 0 4
v 2 0 4
v -2 0 3
v -1 0 3
v 0 0 3
v 1 0 3
v 2 0 3
v 3 0 3
v -3 0 2
v -2 0 2
v -1 0 2
v 0 0 2
v 1 0 2
v 2 0 2
v 3 0 2
v 4 0 2
v -4 0 1
v -3 0 1
v -2 0 1
v -1 0 1
v 0 0 1
v 2 0 1
v 3 0 1
v 4 0 1
v -5 0 -0
v -4 0 -0
v -3 0 -0
v -2 0 -0
v -1 0 -0
v 0 0 -0
v 1 0 -0
v 2 0 -0
v -6 0 -1
v -5 0 -1
v -4 0 -1
v -3 0 -1
v -2 0 -1
v -1 0 -1
v 0 0 -1
v 1 0 -1
v 3 0 -1
v -6 0 -2
v -5 0 -2
v -4 0 -2
v -3 0 -2
v -2 0 -2
v -1 0 -2
v 0 0 -2
v 1 0 -2
v -3 0 -3
v -2 0 -3
v -1 0 -3
v 0 0 -3
v -5 0 -4
v -4 0 -4
v -3 0 -4
v -2 0 -4
v -1 0 -4
v -4 0 -5
v -3 0 -5
v -2 0 -5
v -1 1 4
v 0 1 4
v 2 1 4
v -2 1 3
v -1 1 3
v 0 1 3
v 1 1 3
v 2 1 3
v 3 1 3
v -3 1 2
v -2 1 2
v -1 1 2
v 0 1 2
v 1 1 2
v 2 1 2
v 3 1 2
v 4 1 2
v -4 1 1
v -3 1 1
v -2 1 1
v -1 1 1
v 0 1 1
v 2 1 1
v 3 1 1
v 4 1 1
v -5 1 -0
v -4 1 -0
v -3 1 -0
v -2 1 -0
v -1 1 -0
v 0 1 -0
v 1 1 -0
v 2 1 -0
v -6 1 -1
v -5 1 -1
v -4 1 -1
v -3 1 -1
v -2 1 -1
v -1 1 -1
v 0 1 -1
v 1 1 -1
v 3 1 -1
v -6 1 -2
v -5 1 -2
v -4 1 -2
v -3 1 -2
v -2 1 -2
v -1 1 -2
v 0 1 -2
v 1 1 -2
v -3 1 -3
v -2 1 -3
v -1 1 -3
v 0 1 -3
v -5 1 -4
v -4 1 -4
v -3 1 -4
v -2 1 -4
v -1 1 -4
v -4 1 -5
v -3 1 -5
v -2 1 -5

# faces
f 3/1/1 2/1/1 1/1/1
f 4/1/1 2/1/1 3/1/1
f 9/1/1 6/1/1 5/1/1
f 10/1/1 6/1/1 9/1/1
f 11/4/1 8/4/1 7/4/1
f 12/4/1 8/4/1 11/4/1
f 17/1/1 14/1/1 13/1/1
f 18/1/1 14/1/1 17/1/1
f 19/1/1 16/1/1 15/1/1
f 20/1/1 16/1/1 19/1/1
f 23/1/1 22/1/1 21/1/1
f 24/1/1 22/1/1 23/1/1
f 27/1/1 26/1/1 25/1/1
f 28/1/1 26/1/1 27/1/1
f 31/1/1 30/1/1 29/1/1
f 32/1/1 30/1/1 31/1/1
f 33/4/2 34/4/2 35/4/2
f 35/4/2 34/4/2 36/4/2
f 37/4/2 38/4/2 39/4/2
f 39/4/2 38/4/2 40/4/2
f 41/1/2 42/1/2 43/1/2
f 43/1/2 42/1/2 44/1/2
f 45/1/2 46/1/2 47/1/2
f 47/1/2 46/1/2 48/1/2
f 49/3/2 50/3/2 51/3/2
f 51/3/2 50/3/2 52/3/2
f 53/1/2 54/1/2 57/1/2
f 57/1/2 54/1/2 58/1/2
f 55/1/2 56/1/2 59/1/2
f 59/1/2 56/1/2 60/1/2
f 61/1/2 62/1/2 63/1/2
f 63/1/2 62/1/2 64/1/2
f 67/1/3 66/1/3 65/1/3
f 68/1/3 66/1/3 67/1/3
f 69/3/3 68/3/3 67/3/3
f 70/3/3 68/3/3 69/3/3
f 73/1/3 72/1/3 71/1/3
f 74/1/3 72/1/3 73/1/3
f 77/1/3 76/1/3 75/1/3
f 78/1/3 76/1/3 77/1/3
f 81/1/3 80/1/3 79/1/3
f 82/1/3 80/1/3 81/1/3
f 85/1/3 84/1/3 83/1/3
f 86/1/3 84/1/3 85/1/3
f 89/1/3 88/1/3 87/1/3
f 90/1/3 88/1/3 89/1/3
f 93/1/3 92/1/3 91/1/3
f 94/1/3 92/1/3 93/1/3
f 97/1/3 96/1/3 95/1/3
f 98/1/3 96/1/3 97/1/3
f 99/1/4 100/1/4 101/1/4
f 101/1/4 100/1/4 102/1/4
f 103/1/4 104/1/4 105/1/4
f 105/1/4 104/1/4 106/1/4
f 107/1/4 108/1/4 109/1/4
f 109/1/4 108/1/4 110/1/4
f 111/1/4 112/1/4 113/1/4
f 113/1/4 112/1/4 114/1/4
f 115/1/4 116/1/4 117/1/4
f 117/1/4 116/1/4 118/1/4
f 119/4/4 120/4/4 121/4/4
f 121/4/4 120/4/4 122/4/4
f 123/4/4 124/4/4 125/4/4
f 125/4/4 124/4/4 126/4/4
f 127/1/4 128/1/4 129/1/4
f 129/1/4 128/1/4 130/1/4
f 129/4/4 130/4/4 131/4/4
f 131/4/4 130/4/4 132/4/4
f 137/1/5 134/1/5 133/1/5
f 138/3/5 135/3/5 134/3/5
f 138/1/5 134/1/5 137/1/5
f 139/3/5 135/3/5 138/3/5
f 140/3/5 135/3/5 139/3/5
f 143/1/5 137/1/5 136/1/5
f 144/4/5 138/4/5 137/4/5
f 144/1/5 137/1/5 143/1/5
f 145/2/5 139/2/5 138/2/5
f 145/4/5 138/4/5 144/4/5
f 146/1/5 141/1/5 140/1/5
f 146/2/5 139/2/5 145/2/5
f 146/1/5 140/1/5 139/1/5
f 147/1/5 141/1/5 146/1/5
f 148/1/5 141/1/5 147/1/5
f 151/1/5 143/1/5 142/1/5
f 151/1/5 144/1/5 143/1/5
f 152/1/5 144/1/5 151/1/5
f 153/2/5 145/2/5 144/2/5
f 153/1/5 144/1/5 152/1/5
f 154/1/5 146/1/5 145/1/5
f 154/2/5 145/2/5 153/2/5
f 154/1/5 147/1/5 146/1/5
f 155/4/5 148/4/5 147/4/5
f 155/1/5 147/1/5 154/1/5
f 156/1/5 149/1/5 148/1/5
f 156/4/5 148/4/5 155/4/5
f 157/1/5 149/1/5 156/1/5
f 159/1/5 151/1/5 150/1/5
f 160/4/5 152/4/5 151/4/5
f 160/1/5 151/1/5 159/1/5
f 161/2/5 153/2/5 152/2/5
f 161/4/5 152/4/5 160/4/5
f 162/1/5 154/1/5 153/1/5
f 162/2/5 153/2/5 161/2/5
f 163/3/5 155/3/5 154/3/5
f 163/1/5 154/1/5 162/1/5
f 164/3/5 155/3/5 163/3/5
f 165/1/5 156/1/5 155/1/5
f 165/3/5 155/3/5 164/3/5
f 167/1/5 159/1/5 158/1/5
f 167/1/5 160/1/5 159/1/5
f 168/1/5 160/1/5 167/1/5
f 169/2/5 161/2/5 160/2/5
f 169/1/5 160/1/5 168/1/5
f 170/3/5 162/3/5 161/3/5
f 170/2/5 161/2/5 169/2/5
f 171/4/5 163/4/5 162/4/5
f 171/3/5 162/3/5 170/3/5
f 172/3/5 164/3/5 163/3/5
f 172/4/5 163/4/5 171/4/5
f 173/1/5 165/1/5 164/1/5
f 173/3/5 164/3/5 172/3/5
f 174/1/5 156/1/5 165/1/5
f 174/1/5 165/1/5 173/1/5
f 175/1/5 167/1/5 166/1/5
f 176/4/5 168/4/5 167/4/5
f 176/1/5 167/1/5 175/1/5
f 177/2/5 169/2/5 168/2/5
f 177/4/5 168/4/5 176/4/5
f 178/4/5 170/4/5 169/4/5
f 178/2/5 169/2/5 177/2/5
f 179/1/5 171/1/5 170/1/5
f 179/4/5 170/4/5 178/4/5
f 180/3/5 172/3/5 171/3/5
f 180/1/5 171/1/5 179/1/5
f 181/1/5 173/1/5 172/1/5
f 181/3/5 172/3/5 180/3/5
f 182/1/5 173/1/5 181/1/5
f 183/1/5 179/1/5 178/1/5
f 183/1/5 178/1/5 177/1/5
f 184/4/5 180/4/5 179/4/5
f 184/1/5 179/1/5 183/1/5
f 185/1/5 181/1/5 180/1/5
f 185/4/5 180/4/5 184/4/5
f 186/1/5 181/1/5 185/1/5
f 187/4/5 177/4/5 176/4/5
f 188/1/5 183/1/5 177/1/5
f 188/4/5 177/4/5 187/4/5
f 189/3/5 184/3/5 183/3/5
f 189/1/5 183/1/5 188/1/5
f 190/4/5 185/4/5 184/4/5
f 190/3/5 184/3/5 189/3/5
f 191/4/5 185/4/5 190/4/5
f 192/1/5 189/1/5 188/1/5
f 193/4/5 190/4/5 189/4/5
f 193/1/5 189/1/5 192/1/5
f 194/4/5 190/4/5 193/4/5
f 195/1/6 196/1/6 199/1/6
f 196/3/6 197/3/6 200/3/6
f 199/1/6 196/1/6 200/1/6
f 200/3/6 197/3/6 201/3/6
f 201/3/6 197/3/6 202/3/6
f 198/1/6 199/1/6 205/1/6
f 199/4/6 200/4/6 206/4/6
f 205/1/6 199/1/6 206/1/6
f 200/2/6 201/2/6 207/2/6
f 206/4/6 200/4/6 207/4/6
f 202/1/6 203/1/6 208/1/6
f 207/2/6 201/2/6 208/2/6
f 201/1/6 202/1/6 208/1/6
f 208/1/6 203/1/6 209/1/6
f 209/1/6 203/1/6 210/1/6
f 204/1/6 205/1/6 213/1/6
f 205/1/6 206/1/6 213/1/6
f 213/1/6 206/1/6 214/1/6
f 206/2/6 207/2/6 215/2/6
f 214/1/6 206/1/6 215/1/6
f 207/1/6 208/1/6 216/1/6
f 215/2/6 207/2/6 216/2/6
f 208/1/6 209/1/6 216/1/6
f 209/4/6 210/4/6 217/4/6
f 216/1/6 209/1/6 217/1/6
f 210/1/6 211/1/6 218/1/6
f 217/4/6 210/4/6 218/4/6
f 218/1/6 211/1/6 219/1/6
f 212/1/6 213/1/6 221/1/6
f 213/4/6 214/4/6 222/4/6
f 221/1/6 213/1/6 222/1/6
f 214/2/6 215/2/6 223/2/6
f 222/4/6 214/4/6 223/4/6
f 215/1/6 216/1/6 224/1/6
f 223/2/6 215/2/6 224/2/6
f 216/3/6 217/3/6 225/3/6
f 224/1/6 216/1/6 225/1/6
f 225/3/6 217/3/6 226/3/6
f 217/1/6 218/1/6 227/1/6
f 226/3/6 217/3/6 227/3/6
f 220/1/6 221/1/6 229/1/6
f 221/1/6 222/1/6 229/1/6
f 229/1/6 222/1/6 230/1/6
f 222/2/6 223/2/6 231/2/6
f 230/1/6 222/1/6 231/1/6
f 223/3/6 224/3/6 232/3/6
f 231/2/6 223/2/6 232/2/6
f 224/4/6 225/4/6 233/4/6
f 232/3/6 224/3/6 233/3/6
f 225/3/6 226/3/6 234/3/6
f 233/4/6 225/4/6 234/4/6
f 226/1/6 227/1/6 235/1/6
f 234/3/6 226/3/6 235/3/6
f 227/1/6 218/1/6 236/1/6
f 235/1/6 227/1/6 236/1/6
f 228/1/6 229/1/6 237/1/6
f 229/4/6 230/4/6 238/4/6
f 237/1/6 229/1/6 238/1/6
f 230/2/6 231/2/6 239/2/6
f 238/4/6 230/4/6 239/4/6
f 231/4/6 232/4/6 240/4/6
f 239/2/6 231/2/6 240/2/6
f 232/1/6 233/1/6 241/1/6
f 240/4/6 232/4/6 241/4/6
f 233/3/6 234/3/6 242/3/6
f 241/1/6 233/1/6 242/1/6
f 234/1/6 235/1/6 243/1/6
f 242/3/6 234/3/6 243/3/6
f 243/1/6 235/1/6 244/1/6
f 240/1/6 241/1/6 245/1/6
f 239/1/6 240/1/6 245/1/6
f 241/4/6 242/4/6 246/4/6
f 245/1/6 241/1/6 246/1/6
f 242/1/6 243/1/6 247/1/6
f 246/4/6 242/4/6 247/4/6
f 247/1/6 243/1/6 248/1/6
f 238/4/6 239/4/6 249/4/6
f 239/1/6 245/1/6 250/1/6
f 249/4/6 239/4/6 250/4/6
f 245/3/6 246/3/6 251/3/6
f 250/1/6 245/1/6 251/1/6
f 246/4/6 247/4/6 252/4/6
f 251/3/6 246/3/6 252/3/6
f 252/4/6 247/4/6 253/4/6
f 250/1/6 251/1/6 254/1/6
f 251/4/6 252/4/6 255/4/6
f 254/1/6 251/1/6 255/1/6
f 255/4/6 252/4/6 256/4/6
