# MagicaVoxel @ Ephtracy

# material
mtllib HealthBar.mtl
usemtl palette

# normals
vn -1 0 0
vn 1 0 0
vn 0 0 1
vn 0 0 -1
vn 0 -1 0
vn 0 1 0

# texcoords
vt 0.814453 0.5
vt 0.818359 0.5
vt 0.822266 0.5
vt 0.826172 0.5
vt 0.884766 0.5

# verts
v -10 0 4
v -10 0 -3
v -10 1 4
v -10 1 3
v -10 1 2
v -10 1 1
v -10 1 -2
v -10 1 -3
v -10 2 4
v -10 2 3
v -10 2 2
v -10 2 1
v -10 2 -2
v -10 2 -3
v 7 1 3
v 7 1 2
v 7 1 1
v 7 1 -0
v 7 1 -2
v 7 2 3
v 7 2 2
v 7 2 1
v 7 2 -0
v 7 2 -2
v -3 1 3
v -3 1 2
v -3 1 1
v -3 1 -0
v -3 1 -2
v -3 2 3
v -3 2 2
v -3 2 -2
v 8 0 4
v 8 0 -3
v 8 1 3
v 8 1 2
v 8 1 1
v 8 1 -0
v 8 2 4
v 8 2 3
v 8 2 2
v 8 2 1
v 8 2 -0
v 8 2 -3
v -10 0 4
v -10 1 4
v -10 2 4
v -9 1 4
v -9 2 4
v 6 1 4
v 6 2 4
v 7 1 4
v 7 2 4
v 8 0 4
v 8 2 4
v -3 1 -2
v -3 2 -2
v 1 1 -2
v 1 2 -2
v 2 1 -2
v 2 2 -2
v 4 1 -2
v 4 2 -2
v 5 1 -2
v 5 2 -2
v 7 1 -2
v 7 2 -2
v -3 1 3
v -3 2 3
v 0 1 3
v 1 1 3
v 3 1 3
v 4 1 3
v 6 1 3
v 6 2 3
v 7 1 3
v 7 2 3
v -10 0 -3
v -10 1 -3
v -10 2 -3
v -9 1 -3
v -9 2 -3
v -7 1 -3
v -7 2 -3
v -6 1 -3
v -6 2 -3
v -4 1 -3
v -4 2 -3
v -3 1 -3
v -3 2 -3
v 1 1 -3
v 1 2 -3
v 2 1 -3
v 2 2 -3
v 4 1 -3
v 4 2 -3
v 5 1 -3
v 5 2 -3
v 8 0 -3
v 8 2 -3
v -10 0 4
v 8 0 4
v -3 0 3
v 0 0 3
v 1 0 3
v 3 0 3
v 4 0 3
v 7 0 3
v -6 0 2
v -3 0 2
v 3 0 2
v 4 0 2
v -3 0 1
v -1 0 1
v 0 0 1
v 1 0 1
v 4 0 1
v 6 0 1
v -6 0 -0
v -5 0 -0
v -3 0 -0
v -1 0 -0
v 1 0 -0
v 2 0 -0
v 5 0 -0
v 6 0 -0
v -6 0 -1
v -5 0 -1
v -4 0 -1
v 1 0 -1
v 2 0 -1
v 4 0 -1
v 5 0 -1
v -6 0 -2
v -5 0 -2
v -4 0 -2
v 7 0 -2
v -10 0 -3
v 8 0 -3
v -3 1 3
v 0 1 3
v 1 1 3
v 3 1 3
v 4 1 3
v 6 1 3
v 7 1 3
v -3 1 2
v 3 1 2
v 4 1 2
v 7 1 2
v -3 1 1
v -1 1 1
v 0 1 1
v 1 1 1
v 4 1 1
v 6 1 1
v 7 1 1
v -3 1 -0
v -1 1 -0
v 1 1 -0
v 2 1 -0
v 5 1 -0
v 6 1 -0
v 7 1 -0
v 1 1 -1
v 2 1 -1
v 4 1 -1
v 5 1 -1
v -3 1 -2
v 1 1 -2
v 2 1 -2
v 4 1 -2
v 5 1 -2
v 7 1 -2
v -10 2 4
v -9 2 4
v 6 2 4
v 7 2 4
v 8 2 4
v -10 2 3
v -9 2 3
v -7 2 3
v -6 2 3
v -4 2 3
v -3 2 3
v 6 2 3
v 7 2 3
v 8 2 3
v -10 2 2
v -9 2 2
v -8 2 2
v -7 2 2
v -6 2 2
v -5 2 2
v -4 2 2
v -3 2 2
v 7 2 2
v 8 2 2
v -10 2 1
v -9 2 1
v -8 2 1
v -5 2 1
v -4 2 1
v 7 2 1
v 8 2 1
v 7 2 -0
v 8 2 -0
v -9 2 -1
v -8 2 -1
v -7 2 -1
v -6 2 -1
v -5 2 -1
v -4 2 -1
v -10 2 -2
v -9 2 -2
v -8 2 -2
v -7 2 -2
v -6 2 -2
v -5 2 -2
v -4 2 -2
v -3 2 -2
v 1 2 -2
v 2 2 -2
v 4 2 -2
v 5 2 -2
v 7 2 -2
v -10 2 -3
v -9 2 -3
v -7 2 -3
v -6 2 -3
v -4 2 -3
v -3 2 -3
v 1 2 -3
v 2 2 -3
v 4 2 -3
v 5 2 -3
v 8 2 -3

# faces
f 3/2/1 2/2/1 1/2/1
f 4/2/1 2/2/1 3/2/1
f 5/2/1 2/2/1 4/2/1
f 6/2/1 2/2/1 5/2/1
f 7/2/1 2/2/1 6/2/1
f 8/2/1 2/2/1 7/2/1
f 9/3/1 4/3/1 3/3/1
f 10/2/1 5/2/1 4/2/1
f 10/3/1 4/3/1 9/3/1
f 11/1/1 6/1/1 5/1/1
f 11/2/1 5/2/1 10/2/1
f 12/2/1 7/2/1 6/2/1
f 12/1/1 6/1/1 11/1/1
f 13/1/1 8/1/1 7/1/1
f 13/2/1 7/2/1 12/2/1
f 14/1/1 8/1/1 13/1/1
f 20/1/1 16/1/1 15/1/1
f 21/2/1 17/2/1 16/2/1
f 21/1/1 16/1/1 20/1/1
f 22/3/1 18/3/1 17/3/1
f 22/2/1 17/2/1 21/2/1
f 23/2/1 19/2/1 18/2/1
f 23/3/1 18/3/1 22/3/1
f 24/2/1 19/2/1 23/2/1
f 25/3/2 26/3/2 30/3/2
f 28/2/2 29/2/2 31/2/2
f 30/3/2 26/3/2 31/3/2
f 26/2/2 27/2/2 31/2/2
f 27/2/2 28/2/2 31/2/2
f 31/2/2 29/2/2 32/2/2
f 33/2/2 34/2/2 35/2/2
f 35/2/2 34/2/2 36/2/2
f 36/2/2 34/2/2 37/2/2
f 37/2/2 34/2/2 38/2/2
f 33/2/2 35/2/2 39/2/2
f 35/1/2 36/1/2 40/1/2
f 39/2/2 35/2/2 40/2/2
f 36/2/2 37/2/2 41/2/2
f 40/1/2 36/1/2 41/1/2
f 37/3/2 38/3/2 42/3/2
f 41/2/2 37/2/2 42/2/2
f 38/2/2 34/2/2 43/2/2
f 42/3/2 38/3/2 43/3/2
f 43/2/2 34/2/2 44/2/2
f 48/2/3 46/2/3 45/2/3
f 48/3/3 47/3/3 46/3/3
f 49/3/3 47/3/3 48/3/3
f 50/2/3 48/2/3 45/2/3
f 50/2/3 49/2/3 48/2/3
f 51/2/3 49/2/3 50/2/3
f 52/2/3 50/2/3 45/2/3
f 52/1/3 51/1/3 50/1/3
f 53/1/3 51/1/3 52/1/3
f 54/2/3 52/2/3 45/2/3
f 54/2/3 53/2/3 52/2/3
f 55/2/3 53/2/3 54/2/3
f 58/2/3 57/2/3 56/2/3
f 59/2/3 57/2/3 58/2/3
f 60/1/3 59/1/3 58/1/3
f 61/1/3 59/1/3 60/1/3
f 62/2/3 61/2/3 60/2/3
f 63/2/3 61/2/3 62/2/3
f 64/3/3 63/3/3 62/3/3
f 65/3/3 63/3/3 64/3/3
f 66/2/3 65/2/3 64/2/3
f 67/2/3 65/2/3 66/2/3
f 68/2/4 69/2/4 70/2/4
f 70/2/4 69/2/4 71/2/4
f 71/2/4 69/2/4 72/2/4
f 72/2/4 69/2/4 73/2/4
f 73/2/4 69/2/4 74/2/4
f 74/2/4 69/2/4 75/2/4
f 74/1/4 75/1/4 76/1/4
f 76/1/4 75/1/4 77/1/4
f 78/2/4 79/2/4 81/2/4
f 79/1/4 80/1/4 81/1/4
f 81/1/4 80/1/4 82/1/4
f 78/2/4 81/2/4 83/2/4
f 81/2/4 82/2/4 83/2/4
f 83/2/4 82/2/4 84/2/4
f 78/2/4 83/2/4 85/2/4
f 83/1/4 84/1/4 85/1/4
f 85/1/4 84/1/4 86/1/4
f 78/2/4 85/2/4 87/2/4
f 85/2/4 86/2/4 87/2/4
f 87/2/4 86/2/4 88/2/4
f 78/2/4 87/2/4 89/2/4
f 87/3/4 88/3/4 89/3/4
f 89/3/4 88/3/4 90/3/4
f 78/2/4 89/2/4 91/2/4
f 89/2/4 90/2/4 91/2/4
f 91/2/4 90/2/4 92/2/4
f 78/2/4 91/2/4 93/2/4
f 91/1/4 92/1/4 93/1/4
f 93/1/4 92/1/4 94/1/4
f 78/2/4 93/2/4 95/2/4
f 93/2/4 94/2/4 95/2/4
f 95/2/4 94/2/4 96/2/4
f 78/2/4 95/2/4 97/2/4
f 95/3/4 96/3/4 97/3/4
f 97/3/4 96/3/4 98/3/4
f 78/2/4 97/2/4 99/2/4
f 97/2/4 98/2/4 99/2/4
f 99/2/4 98/2/4 100/2/4
f 103/2/5 102/2/5 101/2/5
f 104/2/5 102/2/5 103/2/5
f 105/2/5 102/2/5 104/2/5
f 106/2/5 102/2/5 105/2/5
f 107/2/5 102/2/5 106/2/5
f 108/2/5 102/2/5 107/2/5
f 109/2/5 103/2/5 101/2/5
f 110/1/5 104/1/5 103/1/5
f 110/2/5 103/2/5 109/2/5
f 111/1/5 106/1/5 105/1/5
f 111/4/5 107/4/5 106/4/5
f 112/1/5 108/1/5 107/1/5
f 112/4/5 107/4/5 111/4/5
f 113/1/5 104/1/5 110/1/5
f 113/1/5 110/1/5 109/1/5
f 114/1/5 104/1/5 113/1/5
f 115/4/5 105/4/5 104/4/5
f 115/1/5 104/1/5 114/1/5
f 116/1/5 112/1/5 111/1/5
f 116/4/5 105/4/5 115/4/5
f 116/1/5 111/1/5 105/1/5
f 117/1/5 108/1/5 112/1/5
f 117/1/5 112/1/5 116/1/5
f 118/1/5 108/1/5 117/1/5
f 119/2/5 109/2/5 101/2/5
f 119/1/5 113/1/5 109/1/5
f 120/1/5 113/1/5 119/1/5
f 121/4/5 114/4/5 113/4/5
f 121/1/5 113/1/5 120/1/5
f 122/1/5 116/1/5 115/1/5
f 122/4/5 114/4/5 121/4/5
f 122/1/5 115/1/5 114/1/5
f 122/1/5 117/1/5 116/1/5
f 123/1/5 117/1/5 122/1/5
f 124/1/5 117/1/5 123/1/5
f 125/4/5 118/4/5 117/4/5
f 126/1/5 108/1/5 118/1/5
f 126/4/5 118/4/5 125/4/5
f 127/4/5 120/4/5 119/4/5
f 127/2/5 119/2/5 101/2/5
f 128/1/5 121/1/5 120/1/5
f 128/4/5 120/4/5 127/4/5
f 128/1/5 122/1/5 121/1/5
f 128/1/5 123/1/5 122/1/5
f 129/1/5 123/1/5 128/1/5
f 130/4/5 124/4/5 123/4/5
f 130/1/5 123/1/5 129/1/5
f 131/1/5 117/1/5 124/1/5
f 131/4/5 124/4/5 130/4/5
f 132/4/5 125/4/5 117/4/5
f 132/1/5 117/1/5 131/1/5
f 133/1/5 126/1/5 125/1/5
f 133/4/5 125/4/5 132/4/5
f 134/2/5 127/2/5 101/2/5
f 134/1/5 128/1/5 127/1/5
f 135/4/5 129/4/5 128/4/5
f 135/1/5 128/1/5 134/1/5
f 136/1/5 131/1/5 130/1/5
f 136/4/5 129/4/5 135/4/5
f 136/1/5 132/1/5 131/1/5
f 136/1/5 133/1/5 132/1/5
f 136/1/5 130/1/5 129/1/5
f 137/2/5 102/2/5 108/2/5
f 137/1/5 133/1/5 136/1/5
f 137/1/5 108/1/5 126/1/5
f 137/1/5 126/1/5 133/1/5
f 138/2/5 136/2/5 135/2/5
f 138/2/5 135/2/5 134/2/5
f 138/2/5 137/2/5 136/2/5
f 138/2/5 134/2/5 101/2/5
f 139/2/5 102/2/5 137/2/5
f 139/2/5 137/2/5 138/2/5
f 140/1/6 141/1/6 147/1/6
f 142/1/6 143/1/6 148/1/6
f 143/4/6 144/4/6 148/4/6
f 145/1/6 146/1/6 149/1/6
f 148/4/6 144/4/6 149/4/6
f 144/1/6 145/1/6 149/1/6
f 149/1/6 146/1/6 150/1/6
f 147/1/6 141/1/6 151/1/6
f 151/1/6 141/1/6 152/1/6
f 141/4/6 142/4/6 153/4/6
f 152/1/6 141/1/6 153/1/6
f 142/1/6 148/1/6 154/1/6
f 153/4/6 142/4/6 154/4/6
f 148/1/6 149/1/6 154/1/6
f 149/1/6 150/1/6 154/1/6
f 154/1/6 150/1/6 155/1/6
f 155/1/6 150/1/6 156/1/6
f 156/1/6 150/1/6 157/1/6
f 151/4/6 152/4/6 158/4/6
f 152/1/6 153/1/6 159/1/6
f 158/4/6 152/4/6 159/4/6
f 153/1/6 154/1/6 159/1/6
f 154/1/6 155/1/6 159/1/6
f 159/1/6 155/1/6 160/1/6
f 160/1/6 155/1/6 161/1/6
f 155/4/6 156/4/6 162/4/6
f 156/1/6 157/1/6 163/1/6
f 162/4/6 156/4/6 163/4/6
f 163/1/6 157/1/6 164/1/6
f 158/1/6 159/1/6 165/1/6
f 159/1/6 160/1/6 165/1/6
f 160/4/6 161/4/6 165/4/6
f 161/1/6 155/1/6 166/1/6
f 165/4/6 161/4/6 166/4/6
f 155/4/6 162/4/6 167/4/6
f 166/1/6 155/1/6 167/1/6
f 163/1/6 164/1/6 168/1/6
f 167/4/6 162/4/6 168/4/6
f 162/1/6 163/1/6 168/1/6
f 165/1/6 166/1/6 169/1/6
f 158/1/6 165/1/6 169/1/6
f 167/1/6 168/1/6 169/1/6
f 166/1/6 167/1/6 169/1/6
f 169/1/6 168/1/6 170/1/6
f 170/1/6 168/1/6 171/1/6
f 171/1/6 168/1/6 172/1/6
f 168/1/6 164/1/6 173/1/6
f 172/1/6 168/1/6 173/1/6
f 173/1/6 164/1/6 174/1/6
f 175/3/6 176/3/6 180/3/6
f 176/2/6 177/2/6 181/2/6
f 180/3/6 176/3/6 181/3/6
f 181/2/6 177/2/6 182/2/6
f 182/2/6 177/2/6 183/2/6
f 183/2/6 177/2/6 184/2/6
f 184/2/6 177/2/6 185/2/6
f 177/1/6 178/1/6 186/1/6
f 185/2/6 177/2/6 186/2/6
f 178/2/6 179/2/6 187/2/6
f 186/1/6 178/1/6 187/1/6
f 187/2/6 179/2/6 188/2/6
f 180/2/6 181/2/6 189/2/6
f 181/2/6 182/2/6 189/2/6
f 189/2/6 182/2/6 190/2/6
f 190/2/6 182/2/6 191/2/6
f 182/5/6 183/5/6 192/5/6
f 191/2/6 182/2/6 192/2/6
f 183/2/6 184/2/6 193/2/6
f 192/5/6 183/5/6 193/5/6
f 193/2/6 184/2/6 194/2/6
f 184/3/6 185/3/6 195/3/6
f 194/2/6 184/2/6 195/2/6
f 195/3/6 185/3/6 196/3/6
f 187/1/6 188/1/6 197/1/6
f 197/1/6 188/1/6 198/1/6
f 189/1/6 190/1/6 199/1/6
f 190/2/6 191/2/6 200/2/6
f 199/1/6 190/1/6 200/1/6
f 193/5/6 194/5/6 201/5/6
f 200/2/6 191/2/6 201/2/6
f 191/5/6 192/5/6 201/5/6
f 192/5/6 193/5/6 201/5/6
f 195/2/6 196/2/6 202/2/6
f 201/5/6 194/5/6 202/5/6
f 194/2/6 195/2/6 202/2/6
f 202/2/6 196/2/6 203/2/6
f 197/2/6 198/2/6 204/2/6
f 204/2/6 198/2/6 205/2/6
f 204/3/6 205/3/6 206/3/6
f 206/3/6 205/3/6 207/3/6
f 199/2/6 200/2/6 208/2/6
f 200/5/6 201/5/6 208/5/6
f 201/5/6 202/5/6 208/5/6
f 202/5/6 203/5/6 208/5/6
f 208/5/6 203/5/6 209/5/6
f 209/5/6 203/5/6 210/5/6
f 210/5/6 203/5/6 211/5/6
f 211/5/6 203/5/6 212/5/6
f 203/2/6 196/2/6 213/2/6
f 212/5/6 203/5/6 213/5/6
f 199/2/6 208/2/6 214/2/6
f 208/3/6 209/3/6 215/3/6
f 214/2/6 208/2/6 215/2/6
f 209/5/6 210/5/6 216/5/6
f 215/3/6 209/3/6 216/3/6
f 210/2/6 211/2/6 217/2/6
f 216/5/6 210/5/6 217/5/6
f 211/5/6 212/5/6 218/5/6
f 217/2/6 211/2/6 218/2/6
f 212/2/6 213/2/6 219/2/6
f 218/5/6 212/5/6 219/5/6
f 213/2/6 196/2/6 220/2/6
f 219/2/6 213/2/6 220/2/6
f 220/2/6 196/2/6 221/2/6
f 206/2/6 207/2/6 226/2/6
f 214/1/6 215/1/6 227/1/6
f 216/2/6 217/2/6 228/2/6
f 227/1/6 215/1/6 228/1/6
f 215/2/6 216/2/6 228/2/6
f 217/1/6 218/1/6 229/1/6
f 228/2/6 217/2/6 229/2/6
f 218/2/6 219/2/6 230/2/6
f 229/1/6 218/1/6 230/1/6
f 219/2/6 220/2/6 230/2/6
f 220/3/6 221/3/6 231/3/6
f 230/2/6 220/2/6 231/2/6
f 221/2/6 222/2/6 232/2/6
f 231/3/6 221/3/6 232/3/6
f 222/1/6 223/1/6 233/1/6
f 232/2/6 222/2/6 233/2/6
f 223/2/6 224/2/6 234/2/6
f 233/1/6 223/1/6 234/1/6
f 224/3/6 225/3/6 235/3/6
f 234/2/6 224/2/6 235/2/6
f 225/2/6 226/2/6 236/2/6
f 235/3/6 225/3/6 236/3/6
f 226/2/6 207/2/6 237/2/6
f 236/2/6 226/2/6 237/2/6
