# MagicaVoxel @ Ephtracy

# material
mtllib Plate.mtl
usemtl palette

# normals
vn -1 0 0
vn 1 0 0
vn 0 0 1
vn 0 0 -1
vn 0 -1 0
vn 0 1 0

# texcoords
vt 0.814453 0.5
vt 0.818359 0.5
vt 0.822266 0.5
vt 0.826172 0.5

# verts
v -10 1 5
v -10 1 -3
v -10 2 5
v -10 2 -3
v -9 0 5
v -9 0 -8
v -9 1 9
v -9 1 5
v -9 1 -3
v -9 1 -8
v -9 1 -9
v -9 2 9
v -9 2 5
v -9 2 -3
v -9 2 -9
v -8 0 8
v -8 0 5
v -8 1 8
v -8 1 5
v -5 0 9
v -5 0 8
v -5 0 -8
v -5 0 -9
v -5 1 9
v -5 1 8
v -5 1 -8
v -5 1 -9
v -5 1 -10
v -5 2 -9
v -5 2 -10
v -4 1 10
v -4 1 9
v -4 2 10
v -4 2 9
v -2 1 -7
v -2 1 -8
v -2 2 -7
v -2 2 -8
v 3 0 -8
v 3 0 -9
v 3 1 -8
v 3 1 -9
v 3 1 -10
v 3 2 -9
v 3 2 -10
v 5 1 8
v 5 1 7
v 5 2 8
v 5 2 7
v 6 1 -7
v 6 1 -8
v 6 2 -7
v 6 2 -8
v 7 1 7
v 7 1 -1
v 7 1 -6
v 7 1 -7
v 7 2 7
v 7 2 -1
v 7 2 -6
v 7 2 -7
v 8 1 -1
v 8 1 -6
v 8 2 -1
v 8 2 -6
v -8 1 5
v -8 1 -3
v -8 2 5
v -8 2 -3
v -7 1 7
v -7 1 5
v -7 1 -3
v -7 1 -7
v -7 2 7
v -7 2 5
v -7 2 -3
v -7 2 -7
v -5 1 -7
v -5 1 -8
v -5 2 -7
v -5 2 -8
v -4 1 8
v -4 1 7
v -4 2 8
v -4 2 7
v -2 0 -8
v -2 0 -9
v -2 1 -8
v -2 1 -9
v -2 1 -10
v -2 2 -9
v -2 2 -10
v 3 1 -7
v 3 1 -8
v 3 2 -7
v 3 2 -8
v 5 1 10
v 5 1 9
v 5 2 10
v 5 2 9
v 6 0 9
v 6 0 8
v 6 1 9
v 6 1 8
v 6 1 -9
v 6 1 -10
v 6 2 -9
v 6 2 -10
v 7 0 -8
v 7 0 -9
v 7 1 -8
v 7 1 -9
v 8 0 8
v 8 0 -0
v 8 0 -7
v 8 0 -8
v 8 1 8
v 8 1 -0
v 8 1 -7
v 8 1 -8
v 9 0 -0
v 9 0 -7
v 9 1 9
v 9 1 -0
v 9 1 -1
v 9 1 -6
v 9 1 -7
v 9 1 -9
v 9 2 9
v 9 2 -1
v 9 2 -6
v 9 2 -9
v 10 1 -1
v 10 1 -6
v 10 2 -1
v 10 2 -6
v -4 1 10
v -4 2 10
v 5 1 10
v 5 2 10
v -9 1 9
v -9 2 9
v -5 0 9
v -5 1 9
v -4 1 9
v -4 2 9
v 5 1 9
v 5 2 9
v 6 0 9
v 6 1 9
v 9 1 9
v 9 2 9
v -8 0 8
v -8 1 8
v -5 0 8
v -5 1 8
v 6 0 8
v 6 1 8
v 8 0 8
v 8 1 8
v -10 1 5
v -10 2 5
v -9 0 5
v -9 1 5
v -9 2 5
v -8 0 5
v -8 1 5
v 8 0 -0
v 8 1 -0
v 9 0 -0
v 9 1 -0
v 9 1 -1
v 9 2 -1
v 10 1 -1
v 10 2 -1
v -8 1 -3
v -8 2 -3
v -7 1 -3
v -7 2 -3
v 7 1 -6
v 7 2 -6
v 8 1 -6
v 8 2 -6
v -7 1 -7
v -7 2 -7
v -5 1 -7
v -5 2 -7
v -2 1 -7
v -2 2 -7
v 3 1 -7
v 3 2 -7
v 6 1 -7
v 6 2 -7
v 7 1 -7
v 7 2 -7
v -5 1 -8
v -5 2 -8
v -2 1 -8
v -2 2 -8
v 3 1 -8
v 3 2 -8
v 6 1 -8
v 6 2 -8
v -4 1 8
v -4 2 8
v 5 1 8
v 5 2 8
v -7 1 7
v -7 2 7
v -4 1 7
v -4 2 7
v 5 1 7
v 5 2 7
v 7 1 7
v 7 2 7
v -8 1 5
v -8 2 5
v -7 1 5
v -7 2 5
v 7 1 -1
v 7 2 -1
v 8 1 -1
v 8 2 -1
v -10 1 -3
v -10 2 -3
v -9 1 -3
v -9 2 -3
v 9 1 -6
v 9 2 -6
v 10 1 -6
v 10 2 -6
v 8 0 -7
v 8 1 -7
v 9 0 -7
v 9 1 -7
v -9 0 -8
v -9 1 -8
v -5 0 -8
v -5 1 -8
v -2 0 -8
v -2 1 -8
v 3 0 -8
v 3 1 -8
v 7 0 -8
v 7 1 -8
v 8 0 -8
v 8 1 -8
v -9 1 -9
v -9 2 -9
v -5 0 -9
v -5 1 -9
v -5 2 -9
v -2 0 -9
v -2 1 -9
v -2 2 -9
v 3 0 -9
v 3 1 -9
v 3 2 -9
v 6 1 -9
v 6 2 -9
v 7 0 -9
v 7 1 -9
v 9 1 -9
v 9 2 -9
v -5 1 -10
v -5 2 -10
v -2 1 -10
v -2 2 -10
v 3 1 -10
v 3 2 -10
v 6 1 -10
v 6 2 -10
v -5 0 9
v 6 0 9
v -8 0 8
v -5 0 8
v 6 0 8
v 8 0 8
v -1 0 6
v 4 0 6
v -9 0 5
v -8 0 5
v -5 0 5
v -1 0 5
v 4 0 5
v 5 0 5
v -6 0 4
v -5 0 4
v 5 0 1
v 6 0 1
v 8 0 -0
v 9 0 -0
v -6 0 -1
v -5 0 -1
v 5 0 -3
v 6 0 -3
v -5 0 -4
v -4 0 -4
v 4 0 -4
v 5 0 -4
v -4 0 -5
v -2 0 -5
v 2 0 -5
v 4 0 -5
v -2 0 -6
v 2 0 -6
v 8 0 -7
v 9 0 -7
v -9 0 -8
v -5 0 -8
v -2 0 -8
v 3 0 -8
v 7 0 -8
v 8 0 -8
v -5 0 -9
v -2 0 -9
v 3 0 -9
v 7 0 -9
v -4 1 10
v 5 1 10
v -9 1 9
v -5 1 9
v -4 1 9
v 5 1 9
v 6 1 9
v 9 1 9
v -8 1 8
v -5 1 8
v 6 1 8
v 8 1 8
v -10 1 5
v -9 1 5
v -8 1 5
v 8 1 -0
v 9 1 -0
v 9 1 -1
v 10 1 -1
v -10 1 -3
v -9 1 -3
v 9 1 -6
v 10 1 -6
v 8 1 -7
v 9 1 -7
v -9 1 -8
v -5 1 -8
v -2 1 -8
v 3 1 -8
v 7 1 -8
v 8 1 -8
v -9 1 -9
v -5 1 -9
v -2 1 -9
v 3 1 -9
v 6 1 -9
v 7 1 -9
v 9 1 -9
v -5 1 -10
v -2 1 -10
v 3 1 -10
v 6 1 -10
v -4 1 8
v 5 1 8
v -7 1 7
v -4 1 7
v 5 1 7
v 7 1 7
v -1 1 6
v 4 1 6
v -8 1 5
v -7 1 5
v -5 1 5
v -1 1 5
v 4 1 5
v 5 1 5
v -6 1 4
v -5 1 4
v 5 1 1
v 6 1 1
v -6 1 -1
v -5 1 -1
v 7 1 -1
v 8 1 -1
v -8 1 -3
v -7 1 -3
v 5 1 -3
v 6 1 -3
v -5 1 -4
v -4 1 -4
v 4 1 -4
v 5 1 -4
v -4 1 -5
v -2 1 -5
v 2 1 -5
v 4 1 -5
v -2 1 -6
v 2 1 -6
v 7 1 -6
v 8 1 -6
v -7 1 -7
v -5 1 -7
v -2 1 -7
v 3 1 -7
v 6 1 -7
v 7 1 -7
v -5 1 -8
v -2 1 -8
v 3 1 -8
v 6 1 -8
v -4 2 10
v 5 2 10
v -9 2 9
v -4 2 9
v 5 2 9
v 9 2 9
v -8 2 8
v -4 2 8
v 5 2 8
v 8 2 8
v -7 2 7
v -4 2 7
v 5 2 7
v 7 2 7
v -10 2 5
v -9 2 5
v -8 2 5
v -7 2 5
v 7 2 -1
v 8 2 -1
v 9 2 -1
v 10 2 -1
v -10 2 -3
v -9 2 -3
v -8 2 -3
v -7 2 -3
v 7 2 -6
v 8 2 -6
v 9 2 -6
v 10 2 -6
v -7 2 -7
v -5 2 -7
v -2 2 -7
v 3 2 -7
v 6 2 -7
v 7 2 -7
v -8 2 -8
v -5 2 -8
v -2 2 -8
v 3 2 -8
v 6 2 -8
v 8 2 -8
v -9 2 -9
v -5 2 -9
v -2 2 -9
v 3 2 -9
v 6 2 -9
v 9 2 -9
v -5 2 -10
v -2 2 -10
v 3 2 -10
v 6 2 -10

# faces
f 3/3/1 2/3/1 1/3/1
f 4/3/1 2/3/1 3/3/1
f 8/1/1 6/1/1 5/1/1
f 9/1/1 6/1/1 8/1/1
f 10/1/1 6/1/1 9/1/1
f 12/3/1 8/3/1 7/3/1
f 13/3/1 8/3/1 12/3/1
f 14/3/1 11/3/1 10/3/1
f 14/3/1 10/3/1 9/3/1
f 15/3/1 11/3/1 14/3/1
f 18/1/1 17/1/1 16/1/1
f 19/1/1 17/1/1 18/1/1
f 24/1/1 21/1/1 20/1/1
f 25/1/1 21/1/1 24/1/1
f 26/1/1 23/1/1 22/1/1
f 27/1/1 23/1/1 26/1/1
f 29/3/1 28/3/1 27/3/1
f 30/3/1 28/3/1 29/3/1
f 33/3/1 32/3/1 31/3/1
f 34/3/1 32/3/1 33/3/1
f 37/2/1 36/2/1 35/2/1
f 38/2/1 36/2/1 37/2/1
f 41/1/1 40/1/1 39/1/1
f 42/1/1 40/1/1 41/1/1
f 44/3/1 43/3/1 42/3/1
f 45/3/1 43/3/1 44/3/1
f 48/2/1 47/2/1 46/2/1
f 49/2/1 47/2/1 48/2/1
f 52/2/1 51/2/1 50/2/1
f 53/2/1 51/2/1 52/2/1
f 58/2/1 55/2/1 54/2/1
f 59/2/1 55/2/1 58/2/1
f 60/2/1 57/2/1 56/2/1
f 61/2/1 57/2/1 60/2/1
f 64/2/1 63/2/1 62/2/1
f 65/2/1 63/2/1 64/2/1
f 66/2/2 67/2/2 68/2/2
f 68/2/2 67/2/2 69/2/2
f 70/2/2 71/2/2 74/2/2
f 74/2/2 71/2/2 75/2/2
f 72/2/2 73/2/2 76/2/2
f 76/2/2 73/2/2 77/2/2
f 78/2/2 79/2/2 80/2/2
f 80/2/2 79/2/2 81/2/2
f 82/2/2 83/2/2 84/2/2
f 84/2/2 83/2/2 85/2/2
f 86/1/2 87/1/2 88/1/2
f 88/1/2 87/1/2 89/1/2
f 89/3/2 90/3/2 91/3/2
f 91/3/2 90/3/2 92/3/2
f 93/2/2 94/2/2 95/2/2
f 95/2/2 94/2/2 96/2/2
f 97/3/2 98/3/2 99/3/2
f 99/3/2 98/3/2 100/3/2
f 101/1/2 102/1/2 103/1/2
f 103/1/2 102/1/2 104/1/2
f 105/3/2 106/3/2 107/3/2
f 107/3/2 106/3/2 108/3/2
f 109/1/2 110/1/2 111/1/2
f 111/1/2 110/1/2 112/1/2
f 113/1/2 114/1/2 117/1/2
f 117/1/2 114/1/2 118/1/2
f 115/1/2 116/1/2 119/1/2
f 119/1/2 116/1/2 120/1/2
f 121/1/2 122/1/2 124/1/2
f 124/1/2 122/1/2 125/1/2
f 125/1/2 122/1/2 126/1/2
f 126/1/2 122/1/2 127/1/2
f 123/3/2 124/3/2 129/3/2
f 124/3/2 125/3/2 129/3/2
f 129/3/2 125/3/2 130/3/2
f 127/3/2 128/3/2 131/3/2
f 126/3/2 127/3/2 131/3/2
f 131/3/2 128/3/2 132/3/2
f 133/3/2 134/3/2 135/3/2
f 135/3/2 134/3/2 136/3/2
f 139/3/3 138/3/3 137/3/3
f 140/3/3 138/3/3 139/3/3
f 144/3/3 142/3/3 141/3/3
f 145/3/3 142/3/3 144/3/3
f 145/1/3 144/1/3 143/1/3
f 146/3/3 142/3/3 145/3/3
f 147/1/3 145/1/3 143/1/3
f 149/1/3 147/1/3 143/1/3
f 150/3/3 148/3/3 147/3/3
f 150/1/3 147/1/3 149/1/3
f 151/3/3 148/3/3 150/3/3
f 152/3/3 148/3/3 151/3/3
f 155/1/3 154/1/3 153/1/3
f 156/1/3 154/1/3 155/1/3
f 159/1/3 158/1/3 157/1/3
f 160/1/3 158/1/3 159/1/3
f 164/3/3 162/3/3 161/3/3
f 165/3/3 162/3/3 164/3/3
f 166/1/3 164/1/3 163/1/3
f 167/1/3 164/1/3 166/1/3
f 170/1/3 169/1/3 168/1/3
f 171/1/3 169/1/3 170/1/3
f 174/3/3 173/3/3 172/3/3
f 175/3/3 173/3/3 174/3/3
f 178/2/3 177/2/3 176/2/3
f 179/2/3 177/2/3 178/2/3
f 182/2/3 181/2/3 180/2/3
f 183/2/3 181/2/3 182/2/3
f 186/2/3 185/2/3 184/2/3
f 187/2/3 185/2/3 186/2/3
f 190/2/3 189/2/3 188/2/3
f 191/2/3 189/2/3 190/2/3
f 194/2/3 193/2/3 192/2/3
f 195/2/3 193/2/3 194/2/3
f 198/2/3 197/2/3 196/2/3
f 199/2/3 197/2/3 198/2/3
f 202/2/3 201/2/3 200/2/3
f 203/2/3 201/2/3 202/2/3
f 204/2/4 205/2/4 206/2/4
f 206/2/4 205/2/4 207/2/4
f 208/2/4 209/2/4 210/2/4
f 210/2/4 209/2/4 211/2/4
f 212/2/4 213/2/4 214/2/4
f 214/2/4 213/2/4 215/2/4
f 216/2/4 217/2/4 218/2/4
f 218/2/4 217/2/4 219/2/4
f 220/2/4 221/2/4 222/2/4
f 222/2/4 221/2/4 223/2/4
f 224/3/4 225/3/4 226/3/4
f 226/3/4 225/3/4 227/3/4
f 228/3/4 229/3/4 230/3/4
f 230/3/4 229/3/4 231/3/4
f 232/1/4 233/1/4 234/1/4
f 234/1/4 233/1/4 235/1/4
f 236/1/4 237/1/4 238/1/4
f 238/1/4 237/1/4 239/1/4
f 240/1/4 241/1/4 242/1/4
f 242/1/4 241/1/4 243/1/4
f 244/1/4 245/1/4 246/1/4
f 246/1/4 245/1/4 247/1/4
f 248/3/4 249/3/4 251/3/4
f 251/3/4 249/3/4 252/3/4
f 250/1/4 251/1/4 253/1/4
f 253/1/4 251/1/4 254/1/4
f 254/3/4 255/3/4 257/3/4
f 257/3/4 255/3/4 258/3/4
f 256/1/4 257/1/4 259/1/4
f 256/1/4 259/1/4 261/1/4
f 259/3/4 260/3/4 262/3/4
f 261/1/4 259/1/4 262/1/4
f 262/3/4 260/3/4 263/3/4
f 263/3/4 260/3/4 264/3/4
f 265/3/4 266/3/4 267/3/4
f 267/3/4 266/3/4 268/3/4
f 269/3/4 270/3/4 271/3/4
f 271/3/4 270/3/4 272/3/4
f 276/1/5 274/1/5 273/1/5
f 277/1/5 274/1/5 276/1/5
f 279/1/5 276/1/5 275/1/5
f 279/1/5 278/1/5 277/1/5
f 279/1/5 277/1/5 276/1/5
f 280/1/5 278/1/5 279/1/5
f 282/1/5 279/1/5 275/1/5
f 283/1/5 279/1/5 282/1/5
f 284/4/5 280/4/5 279/4/5
f 284/1/5 279/1/5 283/1/5
f 285/1/5 278/1/5 280/1/5
f 285/4/5 280/4/5 284/4/5
f 286/1/5 278/1/5 285/1/5
f 287/1/5 283/1/5 282/1/5
f 287/1/5 282/1/5 281/1/5
f 288/4/5 284/4/5 283/4/5
f 288/1/5 283/1/5 287/1/5
f 288/4/5 286/4/5 285/4/5
f 288/4/5 285/4/5 284/4/5
f 289/1/5 278/1/5 286/1/5
f 289/4/5 286/4/5 288/4/5
f 289/4/5 288/4/5 287/4/5
f 290/1/5 278/1/5 289/1/5
f 291/1/5 278/1/5 290/1/5
f 293/1/5 287/1/5 281/1/5
f 293/4/5 289/4/5 287/4/5
f 293/4/5 290/4/5 289/4/5
f 294/4/5 290/4/5 293/4/5
f 295/4/5 290/4/5 294/4/5
f 296/1/5 292/1/5 291/1/5
f 296/4/5 290/4/5 295/4/5
f 296/1/5 291/1/5 290/1/5
f 297/4/5 295/4/5 294/4/5
f 297/1/5 294/1/5 293/1/5
f 298/4/5 295/4/5 297/4/5
f 299/4/5 295/4/5 298/4/5
f 300/1/5 296/1/5 295/1/5
f 300/4/5 295/4/5 299/4/5
f 301/4/5 299/4/5 298/4/5
f 301/1/5 298/1/5 297/1/5
f 302/4/5 299/4/5 301/4/5
f 303/4/5 299/4/5 302/4/5
f 304/1/5 300/1/5 299/1/5
f 304/4/5 299/4/5 303/4/5
f 305/4/5 303/4/5 302/4/5
f 305/1/5 302/1/5 301/1/5
f 306/1/5 304/1/5 303/1/5
f 306/4/5 303/4/5 305/4/5
f 307/1/5 292/1/5 296/1/5
f 307/1/5 304/1/5 306/1/5
f 307/1/5 306/1/5 305/1/5
f 307/1/5 296/1/5 300/1/5
f 307/1/5 300/1/5 304/1/5
f 308/1/5 292/1/5 307/1/5
f 309/1/5 305/1/5 301/1/5
f 309/1/5 301/1/5 297/1/5
f 309/1/5 307/1/5 305/1/5
f 309/1/5 297/1/5 293/1/5
f 309/1/5 293/1/5 281/1/5
f 310/1/5 307/1/5 309/1/5
f 311/1/5 307/1/5 310/1/5
f 312/1/5 307/1/5 311/1/5
f 313/1/5 307/1/5 312/1/5
f 314/1/5 307/1/5 313/1/5
f 315/1/5 311/1/5 310/1/5
f 316/1/5 311/1/5 315/1/5
f 317/1/5 313/1/5 312/1/5
f 318/1/5 313/1/5 317/1/5
f 323/3/5 320/3/5 319/3/5
f 324/3/5 320/3/5 323/3/5
f 327/3/5 322/3/5 321/3/5
f 328/3/5 322/3/5 327/3/5
f 329/3/5 326/3/5 325/3/5
f 330/3/5 326/3/5 329/3/5
f 332/3/5 327/3/5 321/3/5
f 333/3/5 327/3/5 332/3/5
f 334/3/5 326/3/5 330/3/5
f 335/3/5 326/3/5 334/3/5
f 338/3/5 332/3/5 331/3/5
f 339/3/5 332/3/5 338/3/5
f 340/3/5 337/3/5 336/3/5
f 341/3/5 337/3/5 340/3/5
f 349/3/5 343/3/5 342/3/5
f 350/3/5 345/3/5 344/3/5
f 351/3/5 345/3/5 350/3/5
f 352/3/5 347/3/5 346/3/5
f 353/3/5 347/3/5 352/3/5
f 355/3/5 349/3/5 348/3/5
f 356/3/5 343/3/5 349/3/5
f 356/3/5 349/3/5 355/3/5
f 357/3/5 352/3/5 351/3/5
f 358/3/5 352/3/5 357/3/5
f 359/3/5 354/3/5 353/3/5
f 360/3/5 354/3/5 359/3/5
f 361/1/6 362/1/6 364/1/6
f 364/1/6 362/1/6 365/1/6
f 363/1/6 364/1/6 367/1/6
f 365/1/6 366/1/6 367/1/6
f 364/1/6 365/1/6 367/1/6
f 367/1/6 366/1/6 368/1/6
f 363/1/6 367/1/6 370/1/6
f 370/1/6 367/1/6 371/1/6
f 367/4/6 368/4/6 372/4/6
f 371/1/6 367/1/6 372/1/6
f 368/1/6 366/1/6 373/1/6
f 372/4/6 368/4/6 373/4/6
f 373/1/6 366/1/6 374/1/6
f 370/1/6 371/1/6 375/1/6
f 369/1/6 370/1/6 375/1/6
f 371/4/6 372/4/6 376/4/6
f 375/1/6 371/1/6 376/1/6
f 373/4/6 374/4/6 376/4/6
f 372/4/6 373/4/6 376/4/6
f 374/1/6 366/1/6 377/1/6
f 376/4/6 374/4/6 377/4/6
f 375/4/6 376/4/6 377/4/6
f 377/1/6 366/1/6 378/1/6
f 369/1/6 375/1/6 379/1/6
f 375/4/6 377/4/6 379/4/6
f 377/4/6 378/4/6 379/4/6
f 379/4/6 378/4/6 380/4/6
f 378/1/6 366/1/6 381/1/6
f 369/1/6 379/1/6 383/1/6
f 379/1/6 380/1/6 383/1/6
f 383/1/6 380/1/6 384/1/6
f 380/4/6 378/4/6 385/4/6
f 381/1/6 382/1/6 386/1/6
f 385/4/6 378/4/6 386/4/6
f 378/1/6 381/1/6 386/1/6
f 384/1/6 380/1/6 387/1/6
f 380/4/6 385/4/6 387/4/6
f 387/4/6 385/4/6 388/4/6
f 388/4/6 385/4/6 389/4/6
f 385/1/6 386/1/6 390/1/6
f 389/4/6 385/4/6 390/4/6
f 388/4/6 389/4/6 391/4/6
f 387/1/6 388/1/6 391/1/6
f 391/4/6 389/4/6 392/4/6
f 392/4/6 389/4/6 393/4/6
f 389/1/6 390/1/6 394/1/6
f 393/4/6 389/4/6 394/4/6
f 392/4/6 393/4/6 395/4/6
f 391/1/6 392/1/6 395/1/6
f 393/1/6 394/1/6 396/1/6
f 395/4/6 393/4/6 396/4/6
f 386/1/6 382/1/6 397/1/6
f 396/1/6 394/1/6 397/1/6
f 390/1/6 386/1/6 397/1/6
f 394/1/6 390/1/6 397/1/6
f 397/1/6 382/1/6 398/1/6
f 395/1/6 396/1/6 399/1/6
f 391/1/6 395/1/6 399/1/6
f 396/1/6 397/1/6 399/1/6
f 387/1/6 391/1/6 399/1/6
f 384/1/6 387/1/6 399/1/6
f 399/1/6 397/1/6 400/1/6
f 400/1/6 397/1/6 401/1/6
f 401/1/6 397/1/6 402/1/6
f 402/1/6 397/1/6 403/1/6
f 403/1/6 397/1/6 404/1/6
f 400/1/6 401/1/6 405/1/6
f 405/1/6 401/1/6 406/1/6
f 402/1/6 403/1/6 407/1/6
f 407/1/6 403/1/6 408/1/6
f 409/3/6 410/3/6 412/3/6
f 412/3/6 410/3/6 413/3/6
f 411/3/6 412/3/6 415/3/6
f 412/2/6 413/2/6 416/2/6
f 415/3/6 412/3/6 416/3/6
f 413/3/6 414/3/6 417/3/6
f 416/2/6 413/2/6 417/2/6
f 417/3/6 414/3/6 418/3/6
f 415/2/6 416/2/6 419/2/6
f 419/2/6 416/2/6 420/2/6
f 417/2/6 418/2/6 421/2/6
f 421/2/6 418/2/6 422/2/6
f 411/3/6 415/3/6 424/3/6
f 415/2/6 419/2/6 425/2/6
f 424/3/6 415/3/6 425/3/6
f 425/2/6 419/2/6 426/2/6
f 422/2/6 418/2/6 427/2/6
f 418/3/6 414/3/6 428/3/6
f 427/2/6 418/2/6 428/2/6
f 428/3/6 414/3/6 429/3/6
f 423/3/6 424/3/6 431/3/6
f 424/2/6 425/2/6 432/2/6
f 431/3/6 424/3/6 432/3/6
f 432/2/6 425/2/6 433/2/6
f 428/2/6 429/2/6 436/2/6
f 429/3/6 430/3/6 437/3/6
f 436/2/6 429/2/6 437/2/6
f 437/3/6 430/3/6 438/3/6
f 433/2/6 434/2/6 439/2/6
f 435/2/6 436/2/6 444/2/6
f 432/3/6 433/3/6 445/3/6
f 433/2/6 439/2/6 445/2/6
f 439/2/6 440/2/6 445/2/6
f 445/2/6 440/2/6 446/2/6
f 441/2/6 442/2/6 447/2/6
f 447/2/6 442/2/6 448/2/6
f 443/2/6 444/2/6 449/2/6
f 436/3/6 437/3/6 450/3/6
f 444/2/6 436/2/6 450/2/6
f 449/2/6 444/2/6 450/2/6
f 445/3/6 446/3/6 451/3/6
f 432/3/6 445/3/6 451/3/6
f 446/2/6 447/2/6 452/2/6
f 451/3/6 446/3/6 452/3/6
f 447/3/6 448/3/6 453/3/6
f 452/2/6 447/2/6 453/2/6
f 448/2/6 449/2/6 454/2/6
f 453/3/6 448/3/6 454/3/6
f 449/3/6 450/3/6 455/3/6
f 454/2/6 449/2/6 455/2/6
f 450/3/6 437/3/6 456/3/6
f 455/3/6 450/3/6 456/3/6
f 452/3/6 453/3/6 457/3/6
f 457/3/6 453/3/6 458/3/6
f 454/3/6 455/3/6 459/3/6
f 459/3/6 455/3/6 460/3/6
