# MagicaVoxel @ Ephtracy

# material
mtllib Hoe.mtl
usemtl palette

# normals
vn -1 0 0
vn 1 0 0
vn 0 0 1
vn 0 0 -1
vn 0 -1 0
vn 0 1 0

# texcoords
vt 0.755859 0.5
vt 0.759766 0.5
vt 0.763672 0.5
vt 0.814453 0.5
vt 0.818359 0.5
vt 0.822266 0.5
vt 0.826172 0.5
vt 0.830078 0.5

# verts
v -9 0 8
v -9 0 6
v -9 1 8
v -9 1 6
v -8 0 6
v -8 0 5
v -8 1 6
v -8 1 5
v -7 0 9
v -7 0 8
v -7 0 5
v -7 0 3
v -7 1 9
v -7 1 8
v -7 1 5
v -7 1 3
v -6 0 3
v -6 0 2
v -6 1 3
v -6 1 2
v -5 0 2
v -5 0 1
v -5 1 2
v -5 1 1
v -4 0 1
v -4 0 -0
v -4 1 1
v -4 1 -0
v -3 0 -0
v -3 0 -2
v -3 1 -0
v -3 1 -2
v -2 0 -2
v -2 0 -3
v -2 1 -2
v -2 1 -3
v -1 0 -3
v -1 0 -4
v -1 1 -3
v -1 1 -4
v 0 0 -4
v 0 0 -5
v 0 1 -4
v 0 1 -5
v 2 0 -5
v 2 0 -6
v 2 1 -5
v 2 1 -6
v 3 0 -6
v 3 0 -8
v 3 1 -6
v 3 1 -8
v 4 0 -0
v 4 0 -4
v 4 0 -8
v 4 0 -9
v 4 1 -0
v 4 1 -4
v 4 1 -8
v 4 1 -9
v 5 0 1
v 5 0 -0
v 5 1 1
v 5 1 -0
v -6 0 9
v -6 0 8
v -6 1 9
v -6 1 8
v -5 0 8
v -5 0 6
v -5 1 8
v -5 1 6
v -4 0 6
v -4 0 4
v -4 1 6
v -4 1 4
v -3 0 4
v -3 0 3
v -3 1 4
v -3 1 3
v -2 0 3
v -2 0 2
v -2 1 3
v -2 1 2
v -1 0 2
v -1 0 1
v -1 1 2
v -1 1 1
v 0 0 1
v 0 0 -0
v 0 1 1
v 0 1 -0
v 1 0 -0
v 1 0 -2
v 1 1 -0
v 1 1 -2
v 2 0 -2
v 2 0 -3
v 2 1 -2
v 2 1 -3
v 3 0 -3
v 3 0 -4
v 3 1 -3
v 3 1 -4
v 7 0 -7
v 7 0 -9
v 7 1 -7
v 7 1 -9
v 8 0 -6
v 8 0 -7
v 8 1 -6
v 8 1 -7
v 9 0 1
v 9 0 -0
v 9 0 -5
v 9 0 -6
v 9 1 1
v 9 1 -0
v 9 1 -5
v 9 1 -6
v 10 0 -0
v 10 0 -5
v 10 1 -0
v 10 1 -5
v -7 0 9
v -7 1 9
v -6 0 9
v -6 1 9
v -9 0 8
v -9 1 8
v -7 0 8
v -7 1 8
v -6 0 8
v -6 1 8
v -5 0 8
v -5 1 8
v -5 0 6
v -5 1 6
v -4 0 6
v -4 1 6
v -4 0 4
v -4 1 4
v -3 0 4
v -3 1 4
v -3 0 3
v -3 1 3
v -2 0 3
v -2 1 3
v -2 0 2
v -2 1 2
v -1 0 2
v -1 1 2
v -1 0 1
v -1 1 1
v 0 0 1
v 0 1 1
v 5 0 1
v 5 1 1
v 9 0 1
v 9 1 1
v 0 0 -0
v 0 1 -0
v 1 0 -0
v 1 1 -0
v 4 0 -0
v 4 1 -0
v 5 0 -0
v 5 1 -0
v 9 0 -0
v 9 1 -0
v 10 0 -0
v 10 1 -0
v 1 0 -2
v 1 1 -2
v 2 0 -2
v 2 1 -2
v 2 0 -3
v 2 1 -3
v 3 0 -3
v 3 1 -3
v 3 0 -4
v 3 1 -4
v 4 0 -4
v 4 1 -4
v -9 0 6
v -9 1 6
v -8 0 6
v -8 1 6
v -8 0 5
v -8 1 5
v -7 0 5
v -7 1 5
v -7 0 3
v -7 1 3
v -6 0 3
v -6 1 3
v -6 0 2
v -6 1 2
v -5 0 2
v -5 1 2
v -5 0 1
v -5 1 1
v -4 0 1
v -4 1 1
v -4 0 -0
v -4 1 -0
v -3 0 -0
v -3 1 -0
v -3 0 -2
v -3 1 -2
v -2 0 -2
v -2 1 -2
v -2 0 -3
v -2 1 -3
v -1 0 -3
v -1 1 -3
v -1 0 -4
v -1 1 -4
v 0 0 -4
v 0 1 -4
v 0 0 -5
v 0 1 -5
v 2 0 -5
v 2 1 -5
v 9 0 -5
v 9 1 -5
v 10 0 -5
v 10 1 -5
v 2 0 -6
v 2 1 -6
v 3 0 -6
v 3 1 -6
v 8 0 -6
v 8 1 -6
v 9 0 -6
v 9 1 -6
v 7 0 -7
v 7 1 -7
v 8 0 -7
v 8 1 -7
v 3 0 -8
v 3 1 -8
v 4 0 -8
v 4 1 -8
v 4 0 -9
v 4 1 -9
v 7 0 -9
v 7 1 -9
v -7 0 9
v -6 0 9
v -9 0 8
v -7 0 8
v -6 0 8
v -5 0 8
v -8 0 7
v -7 0 7
v -9 0 6
v -8 0 6
v -7 0 6
v -6 0 6
v -5 0 6
v -4 0 6
v -8 0 5
v -7 0 5
v -6 0 5
v -5 0 5
v -6 0 4
v -5 0 4
v -4 0 4
v -3 0 4
v -7 0 3
v -6 0 3
v -5 0 3
v -4 0 3
v -3 0 3
v -2 0 3
v -6 0 2
v -5 0 2
v -4 0 2
v -2 0 2
v -1 0 2
v -5 0 1
v -4 0 1
v -3 0 1
v -2 0 1
v -1 0 1
v 0 0 1
v 5 0 1
v 9 0 1
v -4 0 -0
v -3 0 -0
v -2 0 -0
v -1 0 -0
v 0 0 -0
v 1 0 -0
v 4 0 -0
v 5 0 -0
v 9 0 -0
v 10 0 -0
v -2 0 -1
v -1 0 -1
v 5 0 -1
v 9 0 -1
v -3 0 -2
v -2 0 -2
v -1 0 -2
v 0 0 -2
v 1 0 -2
v 2 0 -2
v -2 0 -3
v -1 0 -3
v 0 0 -3
v 1 0 -3
v 2 0 -3
v 3 0 -3
v 6 0 -3
v 7 0 -3
v -1 0 -4
v 0 0 -4
v 2 0 -4
v 3 0 -4
v 4 0 -4
v 6 0 -4
v 7 0 -4
v 0 0 -5
v 2 0 -5
v 4 0 -5
v 5 0 -5
v 6 0 -5
v 7 0 -5
v 9 0 -5
v 10 0 -5
v 2 0 -6
v 3 0 -6
v 5 0 -6
v 6 0 -6
v 7 0 -6
v 8 0 -6
v 9 0 -6
v 4 0 -7
v 5 0 -7
v 6 0 -7
v 7 0 -7
v 8 0 -7
v 3 0 -8
v 4 0 -8
v 5 0 -8
v 6 0 -8
v 4 0 -9
v 7 0 -9
v -7 1 9
v -6 1 9
v -9 1 8
v -7 1 8
v -6 1 8
v -5 1 8
v -8 1 7
v -7 1 7
v -9 1 6
v -8 1 6
v -7 1 6
v -6 1 6
v -5 1 6
v -4 1 6
v -8 1 5
v -7 1 5
v -6 1 5
v -5 1 5
v -6 1 4
v -5 1 4
v -4 1 4
v -3 1 4
v -7 1 3
v -6 1 3
v -5 1 3
v -4 1 3
v -3 1 3
v -2 1 3
v -6 1 2
v -5 1 2
v -4 1 2
v -2 1 2
v -1 1 2
v -5 1 1
v -4 1 1
v -3 1 1
v -2 1 1
v -1 1 1
v 0 1 1
v 5 1 1
v 9 1 1
v -4 1 -0
v -3 1 -0
v -2 1 -0
v -1 1 -0
v 0 1 -0
v 1 1 -0
v 4 1 -0
v 5 1 -0
v 9 1 -0
v 10 1 -0
v -2 1 -1
v -1 1 -1
v 5 1 -1
v 9 1 -1
v -3 1 -2
v -2 1 -2
v -1 1 -2
v 0 1 -2
v 1 1 -2
v 2 1 -2
v -2 1 -3
v -1 1 -3
v 0 1 -3
v 1 1 -3
v 2 1 -3
v 3 1 -3
v 6 1 -3
v 7 1 -3
v -1 1 -4
v 0 1 -4
v 2 1 -4
v 3 1 -4
v 4 1 -4
v 6 1 -4
v 7 1 -4
v 0 1 -5
v 2 1 -5
v 4 1 -5
v 5 1 -5
v 6 1 -5
v 7 1 -5
v 9 1 -5
v 10 1 -5
v 2 1 -6
v 3 1 -6
v 5 1 -6
v 6 1 -6
v 7 1 -6
v 8 1 -6
v 9 1 -6
v 4 1 -7
v 5 1 -7
v 6 1 -7
v 7 1 -7
v 8 1 -7
v 3 1 -8
v 4 1 -8
v 5 1 -8
v 6 1 -8
v 4 1 -9
v 7 1 -9

# faces
f 3/3/1 2/3/1 1/3/1
f 4/3/1 2/3/1 3/3/1
f 7/3/1 6/3/1 5/3/1
f 8/3/1 6/3/1 7/3/1
f 13/3/1 10/3/1 9/3/1
f 14/3/1 10/3/1 13/3/1
f 15/3/1 12/3/1 11/3/1
f 16/3/1 12/3/1 15/3/1
f 19/3/1 18/3/1 17/3/1
f 20/3/1 18/3/1 19/3/1
f 23/3/1 22/3/1 21/3/1
f 24/3/1 22/3/1 23/3/1
f 27/3/1 26/3/1 25/3/1
f 28/3/1 26/3/1 27/3/1
f 31/3/1 30/3/1 29/3/1
f 32/3/1 30/3/1 31/3/1
f 35/3/1 34/3/1 33/3/1
f 36/3/1 34/3/1 35/3/1
f 39/3/1 38/3/1 37/3/1
f 40/3/1 38/3/1 39/3/1
f 43/3/1 42/3/1 41/3/1
f 44/3/1 42/3/1 43/3/1
f 47/3/1 46/3/1 45/3/1
f 48/3/1 46/3/1 47/3/1
f 51/3/1 50/3/1 49/3/1
f 52/3/1 50/3/1 51/3/1
f 57/7/1 54/7/1 53/7/1
f 58/7/1 54/7/1 57/7/1
f 59/3/1 56/3/1 55/3/1
f 60/3/1 56/3/1 59/3/1
f 63/7/1 62/7/1 61/7/1
f 64/7/1 62/7/1 63/7/1
f 65/3/2 66/3/2 67/3/2
f 67/3/2 66/3/2 68/3/2
f 69/3/2 70/3/2 71/3/2
f 71/3/2 70/3/2 72/3/2
f 73/3/2 74/3/2 75/3/2
f 75/3/2 74/3/2 76/3/2
f 77/3/2 78/3/2 79/3/2
f 79/3/2 78/3/2 80/3/2
f 81/3/2 82/3/2 83/3/2
f 83/3/2 82/3/2 84/3/2
f 85/3/2 86/3/2 87/3/2
f 87/3/2 86/3/2 88/3/2
f 89/3/2 90/3/2 91/3/2
f 91/3/2 90/3/2 92/3/2
f 93/3/2 94/3/2 95/3/2
f 95/3/2 94/3/2 96/3/2
f 97/3/2 98/3/2 99/3/2
f 99/3/2 98/3/2 100/3/2
f 101/3/2 102/3/2 103/3/2
f 103/3/2 102/3/2 104/3/2
f 105/3/2 106/3/2 107/3/2
f 107/3/2 106/3/2 108/3/2
f 109/7/2 110/7/2 111/7/2
f 111/7/2 110/7/2 112/7/2
f 113/7/2 114/7/2 117/7/2
f 117/7/2 114/7/2 118/7/2
f 115/7/2 116/7/2 119/7/2
f 119/7/2 116/7/2 120/7/2
f 121/7/2 122/7/2 123/7/2
f 123/7/2 122/7/2 124/7/2
f 127/3/3 126/3/3 125/3/3
f 128/3/3 126/3/3 127/3/3
f 131/3/3 130/3/3 129/3/3
f 132/3/3 130/3/3 131/3/3
f 135/3/3 134/3/3 133/3/3
f 136/3/3 134/3/3 135/3/3
f 139/3/3 138/3/3 137/3/3
f 140/3/3 138/3/3 139/3/3
f 143/3/3 142/3/3 141/3/3
f 144/3/3 142/3/3 143/3/3
f 147/3/3 146/3/3 145/3/3
f 148/3/3 146/3/3 147/3/3
f 151/3/3 150/3/3 149/3/3
f 152/3/3 150/3/3 151/3/3
f 155/3/3 154/3/3 153/3/3
f 156/3/3 154/3/3 155/3/3
f 159/7/3 158/7/3 157/7/3
f 160/7/3 158/7/3 159/7/3
f 163/3/3 162/3/3 161/3/3
f 164/3/3 162/3/3 163/3/3
f 167/7/3 166/7/3 165/7/3
f 168/7/3 166/7/3 167/7/3
f 171/7/3 170/7/3 169/7/3
f 172/7/3 170/7/3 171/7/3
f 175/3/3 174/3/3 173/3/3
f 176/3/3 174/3/3 175/3/3
f 179/3/3 178/3/3 177/3/3
f 180/3/3 178/3/3 179/3/3
f 183/3/3 182/3/3 181/3/3
f 184/3/3 182/3/3 183/3/3
f 185/3/4 186/3/4 187/3/4
f 187/3/4 186/3/4 188/3/4
f 189/3/4 190/3/4 191/3/4
f 191/3/4 190/3/4 192/3/4
f 193/3/4 194/3/4 195/3/4
f 195/3/4 194/3/4 196/3/4
f 197/3/4 198/3/4 199/3/4
f 199/3/4 198/3/4 200/3/4
f 201/3/4 202/3/4 203/3/4
f 203/3/4 202/3/4 204/3/4
f 205/3/4 206/3/4 207/3/4
f 207/3/4 206/3/4 208/3/4
f 209/3/4 210/3/4 211/3/4
f 211/3/4 210/3/4 212/3/4
f 213/3/4 214/3/4 215/3/4
f 215/3/4 214/3/4 216/3/4
f 217/3/4 218/3/4 219/3/4
f 219/3/4 218/3/4 220/3/4
f 221/3/4 222/3/4 223/3/4
f 223/3/4 222/3/4 224/3/4
f 225/7/4 226/7/4 227/7/4
f 227/7/4 226/7/4 228/7/4
f 229/3/4 230/3/4 231/3/4
f 231/3/4 230/3/4 232/3/4
f 233/7/4 234/7/4 235/7/4
f 235/7/4 234/7/4 236/7/4
f 237/7/4 238/7/4 239/7/4
f 239/7/4 238/7/4 240/7/4
f 241/3/4 242/3/4 243/3/4
f 243/3/4 242/3/4 244/3/4
f 245/3/4 246/3/4 247/3/4
f 247/3/4 246/3/4 248/3/4
f 252/3/5 250/3/5 249/3/5
f 253/3/5 250/3/5 252/3/5
f 255/3/5 252/3/5 251/3/5
f 256/1/5 253/1/5 252/1/5
f 256/3/5 252/3/5 255/3/5
f 257/3/5 255/3/5 251/3/5
f 258/2/5 256/2/5 255/2/5
f 258/3/5 255/3/5 257/3/5
f 259/1/5 253/1/5 256/1/5
f 259/2/5 256/2/5 258/2/5
f 260/3/5 254/3/5 253/3/5
f 260/1/5 253/1/5 259/1/5
f 261/3/5 254/3/5 260/3/5
f 263/3/5 259/3/5 258/3/5
f 264/2/5 261/2/5 260/2/5
f 264/3/5 259/3/5 263/3/5
f 264/2/5 260/2/5 259/2/5
f 265/2/5 261/2/5 264/2/5
f 266/3/5 262/3/5 261/3/5
f 266/2/5 261/2/5 265/2/5
f 267/3/5 265/3/5 264/3/5
f 267/1/5 266/1/5 265/1/5
f 268/3/5 262/3/5 266/3/5
f 268/1/5 266/1/5 267/1/5
f 269/3/5 262/3/5 268/3/5
f 271/3/5 267/3/5 264/3/5
f 272/2/5 268/2/5 267/2/5
f 272/3/5 267/3/5 271/3/5
f 273/1/5 269/1/5 268/1/5
f 273/2/5 268/2/5 272/2/5
f 274/3/5 270/3/5 269/3/5
f 274/1/5 269/1/5 273/1/5
f 275/3/5 270/3/5 274/3/5
f 277/3/5 273/3/5 272/3/5
f 278/2/5 275/2/5 274/2/5
f 278/3/5 273/3/5 277/3/5
f 278/2/5 274/2/5 273/2/5
f 279/2/5 275/2/5 278/2/5
f 280/3/5 276/3/5 275/3/5
f 282/3/5 279/3/5 278/3/5
f 283/2/5 275/2/5 279/2/5
f 283/3/5 279/3/5 282/3/5
f 284/3/5 281/3/5 280/3/5
f 284/2/5 275/2/5 283/2/5
f 284/3/5 280/3/5 275/3/5
f 285/3/5 281/3/5 284/3/5
f 286/3/5 281/3/5 285/3/5
f 290/3/5 284/3/5 283/3/5
f 291/1/5 285/1/5 284/1/5
f 291/3/5 284/3/5 290/3/5
f 292/2/5 286/2/5 285/2/5
f 292/1/5 285/1/5 291/1/5
f 293/3/5 287/3/5 286/3/5
f 293/2/5 286/2/5 292/2/5
f 294/3/5 287/3/5 293/3/5
f 297/7/5 289/7/5 288/7/5
f 298/7/5 289/7/5 297/7/5
f 300/3/5 292/3/5 291/3/5
f 300/1/5 293/1/5 292/1/5
f 300/1/5 294/1/5 293/1/5
f 301/1/5 294/1/5 300/1/5
f 302/6/5 298/6/5 297/6/5
f 302/7/5 297/7/5 296/7/5
f 303/7/5 299/7/5 298/7/5
f 303/6/5 298/6/5 302/6/5
f 304/3/5 300/3/5 291/3/5
f 305/2/5 301/2/5 300/2/5
f 305/3/5 300/3/5 304/3/5
f 306/1/5 294/1/5 301/1/5
f 306/2/5 301/2/5 305/2/5
f 307/3/5 295/3/5 294/3/5
f 307/1/5 294/1/5 306/1/5
f 308/3/5 295/3/5 307/3/5
f 310/3/5 306/3/5 305/3/5
f 310/3/5 307/3/5 306/3/5
f 311/3/5 307/3/5 310/3/5
f 312/1/5 308/1/5 307/1/5
f 312/3/5 307/3/5 311/3/5
f 313/3/5 309/3/5 308/3/5
f 313/1/5 308/1/5 312/1/5
f 314/3/5 309/3/5 313/3/5
f 316/4/5 303/4/5 302/4/5
f 317/4/5 303/4/5 316/4/5
f 318/3/5 312/3/5 311/3/5
f 319/2/5 313/2/5 312/2/5
f 319/3/5 312/3/5 318/3/5
f 319/2/5 314/2/5 313/2/5
f 320/3/5 315/3/5 314/3/5
f 320/2/5 314/2/5 319/2/5
f 321/3/5 315/3/5 320/3/5
f 322/7/5 302/7/5 296/7/5
f 323/5/5 317/5/5 316/5/5
f 323/4/5 316/4/5 302/4/5
f 324/4/5 303/4/5 317/4/5
f 324/5/5 317/5/5 323/5/5
f 325/3/5 321/3/5 320/3/5
f 325/3/5 322/3/5 321/3/5
f 325/3/5 320/3/5 319/3/5
f 326/3/5 322/3/5 325/3/5
f 327/7/5 302/7/5 322/7/5
f 327/3/5 322/3/5 326/3/5
f 328/4/5 323/4/5 302/4/5
f 328/7/5 302/7/5 327/7/5
f 328/4/5 324/4/5 323/4/5
f 329/4/5 324/4/5 328/4/5
f 330/4/5 303/4/5 324/4/5
f 330/4/5 324/4/5 329/4/5
f 331/7/5 299/7/5 303/7/5
f 331/4/5 303/4/5 330/4/5
f 332/7/5 299/7/5 331/7/5
f 333/3/5 327/3/5 326/3/5
f 333/3/5 328/3/5 327/3/5
f 334/3/5 328/3/5 333/3/5
f 335/4/5 329/4/5 328/4/5
f 335/3/5 328/3/5 334/3/5
f 336/8/5 330/8/5 329/8/5
f 336/4/5 329/4/5 335/4/5
f 337/7/5 331/7/5 330/7/5
f 337/8/5 330/8/5 336/8/5
f 338/7/5 331/7/5 337/7/5
f 339/7/5 331/7/5 338/7/5
f 340/3/5 335/3/5 334/3/5
f 340/3/5 336/3/5 335/3/5
f 341/3/5 336/3/5 340/3/5
f 342/7/5 338/7/5 337/7/5
f 342/3/5 336/3/5 341/3/5
f 342/7/5 337/7/5 336/7/5
f 343/7/5 338/7/5 342/7/5
f 344/7/5 338/7/5 343/7/5
f 345/3/5 340/3/5 334/3/5
f 346/1/5 341/1/5 340/1/5
f 346/3/5 340/3/5 345/3/5
f 347/2/5 342/2/5 341/2/5
f 347/1/5 341/1/5 346/1/5
f 348/3/5 343/3/5 342/3/5
f 348/2/5 342/2/5 347/2/5
f 349/3/5 347/3/5 346/3/5
f 349/3/5 348/3/5 347/3/5
f 350/3/5 343/3/5 348/3/5
f 350/3/5 348/3/5 349/3/5
f 351/3/6 352/3/6 354/3/6
f 354/3/6 352/3/6 355/3/6
f 353/3/6 354/3/6 357/3/6
f 354/1/6 355/1/6 358/1/6
f 357/3/6 354/3/6 358/3/6
f 353/3/6 357/3/6 359/3/6
f 357/2/6 358/2/6 360/2/6
f 359/3/6 357/3/6 360/3/6
f 358/1/6 355/1/6 361/1/6
f 360/2/6 358/2/6 361/2/6
f 355/3/6 356/3/6 362/3/6
f 361/1/6 355/1/6 362/1/6
f 362/3/6 356/3/6 363/3/6
f 360/3/6 361/3/6 365/3/6
f 362/2/6 363/2/6 366/2/6
f 365/3/6 361/3/6 366/3/6
f 361/2/6 362/2/6 366/2/6
f 366/2/6 363/2/6 367/2/6
f 363/3/6 364/3/6 368/3/6
f 367/2/6 363/2/6 368/2/6
f 366/3/6 367/3/6 369/3/6
f 367/1/6 368/1/6 369/1/6
f 368/3/6 364/3/6 370/3/6
f 369/1/6 368/1/6 370/1/6
f 370/3/6 364/3/6 371/3/6
f 366/3/6 369/3/6 373/3/6
f 369/2/6 370/2/6 374/2/6
f 373/3/6 369/3/6 374/3/6
f 370/1/6 371/1/6 375/1/6
f 374/2/6 370/2/6 375/2/6
f 371/3/6 372/3/6 376/3/6
f 375/1/6 371/1/6 376/1/6
f 376/3/6 372/3/6 377/3/6
f 374/3/6 375/3/6 379/3/6
f 376/2/6 377/2/6 380/2/6
f 379/3/6 375/3/6 380/3/6
f 375/2/6 376/2/6 380/2/6
f 380/2/6 377/2/6 381/2/6
f 377/3/6 378/3/6 382/3/6
f 380/3/6 381/3/6 384/3/6
f 381/2/6 377/2/6 385/2/6
f 384/3/6 381/3/6 385/3/6
f 382/3/6 383/3/6 386/3/6
f 385/2/6 377/2/6 386/2/6
f 377/3/6 382/3/6 386/3/6
f 386/3/6 383/3/6 387/3/6
f 387/3/6 383/3/6 388/3/6
f 385/3/6 386/3/6 392/3/6
f 386/1/6 387/1/6 393/1/6
f 392/3/6 386/3/6 393/3/6
f 387/2/6 388/2/6 394/2/6
f 393/1/6 387/1/6 394/1/6
f 388/3/6 389/3/6 395/3/6
f 394/2/6 388/2/6 395/2/6
f 395/3/6 389/3/6 396/3/6
f 390/7/6 391/7/6 399/7/6
f 399/7/6 391/7/6 400/7/6
f 393/3/6 394/3/6 402/3/6
f 394/1/6 395/1/6 402/1/6
f 395/1/6 396/1/6 402/1/6
f 402/1/6 396/1/6 403/1/6
f 399/6/6 400/6/6 404/6/6
f 398/7/6 399/7/6 404/7/6
f 400/7/6 401/7/6 405/7/6
f 404/6/6 400/6/6 405/6/6
f 393/3/6 402/3/6 406/3/6
f 402/2/6 403/2/6 407/2/6
f 406/3/6 402/3/6 407/3/6
f 403/1/6 396/1/6 408/1/6
f 407/2/6 403/2/6 408/2/6
f 396/3/6 397/3/6 409/3/6
f 408/1/6 396/1/6 409/1/6
f 409/3/6 397/3/6 410/3/6
f 407/3/6 408/3/6 412/3/6
f 408/3/6 409/3/6 412/3/6
f 412/3/6 409/3/6 413/3/6
f 409/1/6 410/1/6 414/1/6
f 413/3/6 409/3/6 414/3/6
f 410/3/6 411/3/6 415/3/6
f 414/1/6 410/1/6 415/1/6
f 415/3/6 411/3/6 416/3/6
f 404/4/6 405/4/6 418/4/6
f 418/4/6 405/4/6 419/4/6
f 413/3/6 414/3/6 420/3/6
f 414/2/6 415/2/6 421/2/6
f 420/3/6 414/3/6 421/3/6
f 415/2/6 416/2/6 421/2/6
f 416/3/6 417/3/6 422/3/6
f 421/2/6 416/2/6 422/2/6
f 422/3/6 417/3/6 423/3/6
f 398/7/6 404/7/6 424/7/6
f 418/5/6 419/5/6 425/5/6
f 404/4/6 418/4/6 425/4/6
f 419/4/6 405/4/6 426/4/6
f 425/5/6 419/5/6 426/5/6
f 422/3/6 423/3/6 427/3/6
f 423/3/6 424/3/6 427/3/6
f 421/3/6 422/3/6 427/3/6
f 427/3/6 424/3/6 428/3/6
f 424/7/6 404/7/6 429/7/6
f 428/3/6 424/3/6 429/3/6
f 404/4/6 425/4/6 430/4/6
f 429/7/6 404/7/6 430/7/6
f 425/4/6 426/4/6 430/4/6
f 430/4/6 426/4/6 431/4/6
f 426/4/6 405/4/6 432/4/6
f 431/4/6 426/4/6 432/4/6
f 405/7/6 401/7/6 433/7/6
f 432/4/6 405/4/6 433/4/6
f 433/7/6 401/7/6 434/7/6
f 428/3/6 429/3/6 435/3/6
f 429/3/6 430/3/6 435/3/6
f 435/3/6 430/3/6 436/3/6
f 430/4/6 431/4/6 437/4/6
f 436/3/6 430/3/6 437/3/6
f 431/8/6 432/8/6 438/8/6
f 437/4/6 431/4/6 438/4/6
f 432/7/6 433/7/6 439/7/6
f 438/8/6 432/8/6 439/8/6
f 439/7/6 433/7/6 440/7/6
f 440/7/6 433/7/6 441/7/6
f 436/3/6 437/3/6 442/3/6
f 437/3/6 438/3/6 442/3/6
f 442/3/6 438/3/6 443/3/6
f 439/7/6 440/7/6 444/7/6
f 443/3/6 438/3/6 444/3/6
f 438/7/6 439/7/6 444/7/6
f 444/7/6 440/7/6 445/7/6
f 445/7/6 440/7/6 446/7/6
f 436/3/6 442/3/6 447/3/6
f 442/1/6 443/1/6 448/1/6
f 447/3/6 442/3/6 448/3/6
f 443/2/6 444/2/6 449/2/6
f 448/1/6 443/1/6 449/1/6
f 444/3/6 445/3/6 450/3/6
f 449/2/6 444/2/6 450/2/6
f 448/3/6 449/3/6 451/3/6
f 449/3/6 450/3/6 451/3/6
f 450/3/6 445/3/6 452/3/6
f 451/3/6 450/3/6 452/3/6
